<svg width="309" height="108" viewBox="0 0 309 108" fill="none" xmlns="http://www.w3.org/2000/svg">
<rect x="0.5" y="0.5" width="308" height="107" fill="#2D2C2C" stroke="black"/>
<path d="M178.869 57.334C178.787 59.1152 178.307 60.6914 177.428 62.0625C176.549 63.4219 175.312 64.4766 173.719 65.2266C172.137 65.9766 170.326 66.3516 168.287 66.3516C164.924 66.3516 162.275 65.2559 160.342 63.0645C158.408 60.873 157.441 57.7793 157.441 53.7832V52.5176C157.441 50.0098 157.875 47.8184 158.742 45.9434C159.621 44.0566 160.881 42.6035 162.521 41.584C164.162 40.5527 166.061 40.0371 168.217 40.0371C171.322 40.0371 173.818 40.8574 175.705 42.498C177.592 44.127 178.664 46.377 178.922 49.248H172.77C172.723 47.6895 172.33 46.5703 171.592 45.8906C170.854 45.2109 169.729 44.8711 168.217 44.8711C166.682 44.8711 165.557 45.4453 164.842 46.5938C164.127 47.7422 163.752 49.5762 163.717 52.0957V53.9062C163.717 56.6367 164.057 58.5879 164.736 59.7598C165.428 60.9316 166.611 61.5176 168.287 61.5176C169.705 61.5176 170.789 61.1836 171.539 60.5156C172.289 59.8477 172.688 58.7871 172.734 57.334H178.869ZM194.988 59.1973C194.988 58.2949 194.666 57.5918 194.021 57.0879C193.389 56.584 192.27 56.0625 190.664 55.5234C189.059 54.9844 187.746 54.4629 186.727 53.959C183.41 52.3301 181.752 50.0918 181.752 47.2441C181.752 45.8262 182.162 44.5781 182.982 43.5C183.814 42.4102 184.986 41.5664 186.498 40.9688C188.01 40.3594 189.709 40.0547 191.596 40.0547C193.436 40.0547 195.082 40.3828 196.535 41.0391C198 41.6953 199.137 42.6328 199.945 43.8516C200.754 45.0586 201.158 46.4414 201.158 48H195.006C195.006 46.957 194.684 46.1484 194.039 45.5742C193.406 45 192.545 44.7129 191.455 44.7129C190.354 44.7129 189.48 44.959 188.836 45.4512C188.203 45.9316 187.887 46.5469 187.887 47.2969C187.887 47.9531 188.238 48.5508 188.941 49.0898C189.645 49.6172 190.881 50.168 192.65 50.7422C194.42 51.3047 195.873 51.9141 197.01 52.5703C199.775 54.1641 201.158 56.3613 201.158 59.1621C201.158 61.4004 200.314 63.1582 198.627 64.4355C196.939 65.7129 194.625 66.3516 191.684 66.3516C189.609 66.3516 187.729 65.9824 186.041 65.2441C184.365 64.4941 183.1 63.4746 182.244 62.1855C181.4 60.8848 180.979 59.3906 180.979 57.7031H187.166C187.166 59.0742 187.518 60.0879 188.221 60.7441C188.936 61.3887 190.09 61.7109 191.684 61.7109C192.703 61.7109 193.506 61.4941 194.092 61.0605C194.689 60.6152 194.988 59.9941 194.988 59.1973ZM217.523 59.1973C217.523 58.2949 217.201 57.5918 216.557 57.0879C215.924 56.584 214.805 56.0625 213.199 55.5234C211.594 54.9844 210.281 54.4629 209.262 53.959C205.945 52.3301 204.287 50.0918 204.287 47.2441C204.287 45.8262 204.697 44.5781 205.518 43.5C206.35 42.4102 207.521 41.5664 209.033 40.9688C210.545 40.3594 212.244 40.0547 214.131 40.0547C215.971 40.0547 217.617 40.3828 219.07 41.0391C220.535 41.6953 221.672 42.6328 222.48 43.8516C223.289 45.0586 223.693 46.4414 223.693 48H217.541C217.541 46.957 217.219 46.1484 216.574 45.5742C215.941 45 215.08 44.7129 213.99 44.7129C212.889 44.7129 212.016 44.959 211.371 45.4512C210.738 45.9316 210.422 46.5469 210.422 47.2969C210.422 47.9531 210.773 48.5508 211.477 49.0898C212.18 49.6172 213.416 50.168 215.186 50.7422C216.955 51.3047 218.408 51.9141 219.545 52.5703C222.311 54.1641 223.693 56.3613 223.693 59.1621C223.693 61.4004 222.85 63.1582 221.162 64.4355C219.475 65.7129 217.16 66.3516 214.219 66.3516C212.145 66.3516 210.264 65.9824 208.576 65.2441C206.9 64.4941 205.635 63.4746 204.779 62.1855C203.936 60.8848 203.514 59.3906 203.514 57.7031H209.701C209.701 59.0742 210.053 60.0879 210.756 60.7441C211.471 61.3887 212.625 61.7109 214.219 61.7109C215.238 61.7109 216.041 61.4941 216.627 61.0605C217.225 60.6152 217.523 59.9941 217.523 59.1973ZM231.902 50.7246H234.697C236.912 50.7246 238.02 49.6406 238.02 47.4727C238.02 46.6289 237.756 45.9434 237.229 45.416C236.701 44.877 235.957 44.6074 234.996 44.6074C234.211 44.6074 233.525 44.8359 232.939 45.293C232.365 45.75 232.078 46.3184 232.078 46.998H226.154C226.154 45.6504 226.529 44.4492 227.279 43.3945C228.029 42.3398 229.066 41.5195 230.391 40.9336C231.727 40.3359 233.191 40.0371 234.785 40.0371C237.633 40.0371 239.871 40.6875 241.5 41.9883C243.129 43.2891 243.943 45.0762 243.943 47.3496C243.943 48.4512 243.604 49.4941 242.924 50.4785C242.256 51.4512 241.277 52.2422 239.988 52.8516C241.348 53.3438 242.414 54.0938 243.188 55.1016C243.961 56.0977 244.348 57.334 244.348 58.8105C244.348 61.0957 243.469 62.9238 241.711 64.2949C239.953 65.666 237.645 66.3516 234.785 66.3516C233.109 66.3516 231.551 66.0352 230.109 65.4023C228.68 64.7578 227.596 63.873 226.857 62.748C226.119 61.6113 225.75 60.3223 225.75 58.8809H231.709C231.709 59.666 232.025 60.3457 232.658 60.9199C233.291 61.4941 234.07 61.7812 234.996 61.7812C236.039 61.7812 236.871 61.4941 237.492 60.9199C238.113 60.334 238.424 59.5898 238.424 58.6875C238.424 57.3984 238.102 56.4844 237.457 55.9453C236.812 55.4062 235.922 55.1367 234.785 55.1367H231.902V50.7246Z" fill="white"/>
<g clip-path="url(#clip0)">
<path d="M89.5371 88.5856L64.4996 94.9867L39.4618 88.5856L33.6841 29.1532H95.3155L89.5371 88.5856Z" fill="#2062AF"/>
<path d="M64.4995 33.9672V89.8813L64.5561 89.896L84.8178 84.7155L89.4946 33.9672H64.4995V33.9672Z" fill="#3C9CD7"/>
<path d="M50.2898 20.4214V16.884H55.7254V13.0132H46.2131V23.9536H55.7254V20.4214H50.2898ZM65.5034 16.884H69.3036V13.0132H59.7905V16.884C61.0632 18.0925 61.7269 18.6709 63.5677 20.4186C62.4916 20.4186 59.7905 20.4223 59.7905 20.4221V23.9536H69.3036V20.4214L65.5034 16.884ZM78.9867 16.884H82.7867V13.0132H73.2731V16.884C74.5459 18.0925 75.21 18.6709 77.0507 20.4186C75.975 20.4186 73.2731 20.4223 73.2731 20.4221V23.9536H82.7869V20.4214L78.9867 16.884V16.884Z" fill="white"/>
<path d="M46.5569 55.914L47.1511 62.9299L64.477 55.8962V48.8277L46.5569 55.914V55.914Z" fill="url(#paint0_linear)"/>
<path d="M83.6715 41.2375L64.4772 48.8277V55.8962L82.9074 48.4144L83.6715 41.2375Z" fill="url(#paint1_linear)"/>
<path d="M46.5844 55.914L47.1789 62.93L73.7632 63.0105L73.1686 72.365L64.4208 74.7034L56.0116 72.6874L55.5021 66.8811H47.6884L48.7077 78.0904L64.5057 82.5255L80.2181 78.1708L82.2566 55.914H46.5844V55.914Z" fill="url(#paint2_linear)"/>
<path opacity="0.05" d="M64.4772 55.914H46.5571L47.1513 62.93L64.4772 62.9825V55.914ZM64.4772 74.6811L64.3923 74.7036L55.9842 72.6875L55.4747 66.8812H47.6612L48.6803 78.0905L64.4772 82.5257V74.6811Z" fill="white"/>
<path d="M44.9431 41.2375H83.6716L82.9075 48.4145H45.8773L44.9431 41.2375V41.2375Z" fill="url(#paint3_linear)"/>
<path opacity="0.05" d="M64.4772 41.2375H44.9431L45.8773 48.4145H64.4772V41.2375V41.2375Z" fill="white"/>
</g>
<defs>
<linearGradient id="paint0_linear" x1="55.5169" y1="62.9301" x2="55.5169" y2="48.8278" gradientUnits="userSpaceOnUse">
<stop offset="0.387" stop-color="#D1D3D4" stop-opacity="0"/>
<stop offset="1" stop-color="#D1D3D4"/>
</linearGradient>
<linearGradient id="paint1_linear" x1="74.0742" y1="55.8964" x2="74.0742" y2="41.2376" gradientUnits="userSpaceOnUse">
<stop offset="0.387" stop-color="#D1D3D4" stop-opacity="0"/>
<stop offset="1" stop-color="#D1D3D4"/>
</linearGradient>
<linearGradient id="paint2_linear" x1="46.5844" y1="69.22" x2="82.2564" y2="69.22" gradientUnits="userSpaceOnUse">
<stop stop-color="#E8E7E5"/>
<stop offset="1" stop-color="white"/>
</linearGradient>
<linearGradient id="paint3_linear" x1="44.9431" y1="44.826" x2="83.6714" y2="44.826" gradientUnits="userSpaceOnUse">
<stop stop-color="#E8E7E5"/>
<stop offset="1" stop-color="white"/>
</linearGradient>
<clipPath id="clip0">
<rect width="99" height="94" fill="white" transform="translate(15 7)"/>
</clipPath>
</defs>
</svg>
