<svg width="309" height="108" viewBox="0 0 309 108" fill="none" xmlns="http://www.w3.org/2000/svg">
<rect x="0.5" y="0.5" width="308" height="107" fill="#2D2C2C" stroke="black"/>
<path d="M146.244 68V42.4062H154.488C156.75 42.4062 158.783 42.9219 160.588 43.9531C162.393 44.9727 163.799 46.4199 164.807 48.2949C165.826 50.1582 166.342 52.25 166.354 54.5703V55.748C166.354 58.0918 165.855 60.1953 164.859 62.0586C163.875 63.9102 162.48 65.3633 160.676 66.418C158.883 67.4609 156.879 67.9883 154.664 68H146.244ZM152.414 47.1699V63.2539H154.559C156.328 63.2539 157.688 62.627 158.637 61.373C159.586 60.1074 160.061 58.2324 160.061 55.748V54.6406C160.061 52.168 159.586 50.3047 158.637 49.0508C157.688 47.7969 156.305 47.1699 154.488 47.1699H152.414ZM175.617 48.9805V68.6504C175.605 70.9004 174.961 72.6348 173.684 73.8535C172.406 75.0723 170.625 75.6816 168.34 75.6816C167.355 75.6816 166.424 75.582 165.545 75.3828V70.9004C166.225 71.0059 166.781 71.0586 167.215 71.0586C168.855 71.0586 169.676 70.2441 169.676 68.6152V48.9805H175.617ZM169.236 44.0762C169.236 43.2324 169.541 42.541 170.15 42.002C170.76 41.4629 171.551 41.1934 172.523 41.1934C173.496 41.1934 174.287 41.4629 174.896 42.002C175.506 42.541 175.811 43.2324 175.811 44.0762C175.811 44.9199 175.506 45.6113 174.896 46.1504C174.287 46.6895 173.496 46.959 172.523 46.959C171.551 46.959 170.76 46.6895 170.15 46.1504C169.541 45.6113 169.236 44.9199 169.236 44.0762ZM189.697 68C189.486 67.6133 189.299 67.0449 189.135 66.2949C188.045 67.666 186.521 68.3516 184.564 68.3516C182.771 68.3516 181.248 67.8125 179.994 66.7344C178.74 65.6445 178.113 64.2793 178.113 62.6387C178.113 60.5762 178.875 59.0176 180.398 57.9629C181.922 56.9082 184.137 56.3809 187.043 56.3809H188.871V55.3789C188.871 53.6328 188.115 52.7598 186.604 52.7598C185.197 52.7598 184.494 53.4512 184.494 54.834H178.57C178.57 52.9941 179.35 51.5 180.908 50.3516C182.479 49.2031 184.477 48.6289 186.902 48.6289C189.328 48.6289 191.244 49.2207 192.65 50.4043C194.057 51.5879 194.777 53.2109 194.812 55.2734V63.6934C194.836 65.4395 195.105 66.7754 195.621 67.7012V68H189.697ZM185.988 64.1328C186.727 64.1328 187.336 63.9746 187.816 63.6582C188.309 63.3418 188.66 62.9844 188.871 62.5859V59.5449H187.148C185.086 59.5449 184.055 60.4707 184.055 62.3223C184.055 62.8613 184.236 63.3008 184.6 63.6406C184.963 63.9688 185.426 64.1328 185.988 64.1328ZM203.549 48.9805L203.742 51.2129C205.055 49.4902 206.865 48.6289 209.174 48.6289C211.154 48.6289 212.631 49.2207 213.604 50.4043C214.588 51.5879 215.098 53.3691 215.133 55.748V68H209.191V55.9941C209.191 55.0332 208.998 54.3301 208.611 53.8848C208.225 53.4277 207.521 53.1992 206.502 53.1992C205.342 53.1992 204.48 53.6562 203.918 54.5703V68H197.994V48.9805H203.549ZM217.734 58.3496C217.734 56.4277 218.051 54.7285 218.684 53.252C219.316 51.7754 220.225 50.6387 221.408 49.8418C222.592 49.0332 223.969 48.6289 225.539 48.6289C227.52 48.6289 229.066 49.2969 230.18 50.6328L230.391 48.9805H235.77V67.2793C235.77 68.9551 235.377 70.4082 234.592 71.6387C233.818 72.8809 232.693 73.8301 231.217 74.4863C229.74 75.1543 228.029 75.4883 226.084 75.4883C224.689 75.4883 223.336 75.2246 222.023 74.6973C220.723 74.1699 219.727 73.4844 219.035 72.6406L221.514 69.1602C222.615 70.4609 224.068 71.1113 225.873 71.1113C228.498 71.1113 229.811 69.7637 229.811 67.0684V66.4707C228.674 67.7246 227.238 68.3516 225.504 68.3516C223.184 68.3516 221.309 67.4668 219.879 65.6973C218.449 63.916 217.734 61.5371 217.734 58.5605V58.3496ZM223.676 58.7188C223.676 60.2773 223.969 61.5137 224.555 62.4277C225.141 63.3301 225.961 63.7812 227.016 63.7812C228.293 63.7812 229.225 63.3535 229.811 62.498V54.5C229.236 53.6328 228.316 53.1992 227.051 53.1992C225.996 53.1992 225.17 53.6738 224.572 54.623C223.975 55.5605 223.676 56.9258 223.676 58.7188ZM238.389 58.3145C238.389 56.416 238.758 54.7285 239.496 53.252C240.234 51.7637 241.295 50.6211 242.678 49.8242C244.061 49.0273 245.684 48.6289 247.547 48.6289C250.395 48.6289 252.639 49.5137 254.279 51.2832C255.92 53.041 256.74 55.4375 256.74 58.4727V58.6836C256.74 61.6484 255.914 64.0039 254.262 65.75C252.621 67.4844 250.395 68.3516 247.582 68.3516C244.875 68.3516 242.701 67.543 241.061 65.9258C239.42 64.2969 238.535 62.0938 238.406 59.3164L238.389 58.3145ZM244.312 58.6836C244.312 60.4414 244.588 61.7305 245.139 62.5508C245.689 63.3711 246.504 63.7812 247.582 63.7812C249.691 63.7812 250.77 62.1582 250.816 58.9121V58.3145C250.816 54.9043 249.727 53.1992 247.547 53.1992C245.566 53.1992 244.494 54.6699 244.33 57.6113L244.312 58.6836Z" fill="white"/>
<path d="M54.3862 14H68.9545V73.9184C61.4923 75.185 55.999 75.6833 50.0553 75.6833C32.2621 75.6667 23 68.5334 23 54.8333C23 41.6334 32.8246 33.0666 48.0491 33.0666C50.4116 33.0666 52.2113 33.2335 54.3862 33.7333V14ZM54.8968 44.5313C53.1905 44.0312 51.7845 43.8646 49.9845 43.8646C42.6161 43.8646 38.3601 47.8978 38.3601 54.9661C38.3601 61.8479 42.4288 65.6478 49.8909 65.6478C51.5031 65.6478 52.8156 65.5663 54.8968 65.3163V44.5313V44.5313Z" fill="#2BA977"/>
<path d="M92.7777 34.6753V64.6756C92.7777 75.0071 91.9153 79.9754 89.3841 84.259C87.0216 88.3771 83.9093 90.9739 77.4783 93.8421L63.9601 88.1256C70.3911 85.4436 73.5034 83.0738 75.491 79.4572C77.5718 75.7589 78.2281 71.4754 78.2281 60.2088V34.6755H92.7777V34.6753ZM76.76 14H91.3282V27.2834H76.76V14Z" fill="#2BA977"/>
</svg>
