<svg width="309" height="108" viewBox="0 0 309 108" fill="none" xmlns="http://www.w3.org/2000/svg">
<rect x="0.5" y="0.5" width="308" height="107" fill="#2D2C2C" stroke="black"/>
<path d="M167.418 57.1543H157.715V63.2539H169.176V68H151.545V42.4062H169.211V47.1699H157.715V52.5664H167.418V57.1543ZM179.125 54.2188L181.885 48.9805H188.037L183.027 58.2441L188.283 68H182.096L179.107 62.375L176.172 68H169.949L175.223 58.2441L170.23 48.9805H176.453L179.125 54.2188ZM207.602 58.6309C207.602 61.584 206.934 63.9453 205.598 65.7148C204.273 67.4727 202.48 68.3516 200.219 68.3516C198.473 68.3516 197.037 67.7129 195.912 66.4355V75.3125H189.988V48.9805H195.525L195.701 50.7383C196.838 49.332 198.332 48.6289 200.184 48.6289C202.527 48.6289 204.35 49.4961 205.65 51.2305C206.951 52.9531 207.602 55.3262 207.602 58.3496V58.6309ZM201.678 58.2617C201.678 54.8867 200.693 53.1992 198.725 53.1992C197.318 53.1992 196.381 53.7031 195.912 54.7109V62.1992C196.428 63.2539 197.377 63.7812 198.76 63.7812C200.646 63.7812 201.619 62.1523 201.678 58.8945V58.2617ZM221.734 54.3418L219.783 54.2012C217.92 54.2012 216.725 54.7871 216.197 55.959V68H210.273V48.9805H215.828L216.021 51.4238C217.018 49.5605 218.406 48.6289 220.188 48.6289C220.82 48.6289 221.371 48.6992 221.84 48.8398L221.734 54.3418ZM232.721 68.3516C229.803 68.3516 227.441 67.4844 225.637 65.75C223.832 64.0039 222.93 61.7363 222.93 58.9473V58.4551C222.93 56.5098 223.287 54.793 224.002 53.3047C224.729 51.8164 225.783 50.668 227.166 49.8594C228.549 49.0391 230.189 48.6289 232.088 48.6289C234.76 48.6289 236.869 49.4609 238.416 51.125C239.963 52.7773 240.736 55.0859 240.736 58.0508V60.3535H228.959C229.17 61.4199 229.633 62.2578 230.348 62.8672C231.062 63.4766 231.988 63.7812 233.125 63.7812C235 63.7812 236.465 63.125 237.52 61.8125L240.227 65.0117C239.488 66.0312 238.439 66.8457 237.08 67.4551C235.732 68.0527 234.279 68.3516 232.721 68.3516ZM232.053 53.1992C230.318 53.1992 229.287 54.3477 228.959 56.6445H234.936V56.1875C234.959 55.2383 234.719 54.5059 234.215 53.9902C233.711 53.4629 232.99 53.1992 232.053 53.1992ZM253.094 62.6562C253.094 62.1523 252.83 61.748 252.303 61.4434C251.775 61.1387 250.773 60.8223 249.297 60.4941C247.82 60.166 246.602 59.7383 245.641 59.2109C244.68 58.6719 243.947 58.0215 243.443 57.2598C242.939 56.498 242.688 55.625 242.688 54.6406C242.688 52.8945 243.408 51.459 244.85 50.334C246.291 49.1973 248.178 48.6289 250.51 48.6289C253.018 48.6289 255.033 49.1973 256.557 50.334C258.08 51.4707 258.842 52.9648 258.842 54.8164H252.9C252.9 53.293 252.098 52.5312 250.492 52.5312C249.871 52.5312 249.35 52.707 248.928 53.0586C248.506 53.3984 248.295 53.8262 248.295 54.3418C248.295 54.8691 248.553 55.2969 249.068 55.625C249.584 55.9531 250.404 56.2227 251.529 56.4336C252.666 56.6445 253.662 56.8965 254.518 57.1895C257.377 58.1738 258.807 59.9375 258.807 62.4805C258.807 64.2148 258.033 65.627 256.486 66.7168C254.951 67.8066 252.959 68.3516 250.51 68.3516C248.881 68.3516 247.428 68.0586 246.15 67.4727C244.873 66.8867 243.877 66.0898 243.162 65.082C242.447 64.0742 242.09 63.0137 242.09 61.9004H247.627C247.65 62.7793 247.943 63.4238 248.506 63.834C249.068 64.2324 249.789 64.4316 250.668 64.4316C251.477 64.4316 252.08 64.2676 252.479 63.9395C252.889 63.6113 253.094 63.1836 253.094 62.6562ZM271.551 62.6562C271.551 62.1523 271.287 61.748 270.76 61.4434C270.232 61.1387 269.23 60.8223 267.754 60.4941C266.277 60.166 265.059 59.7383 264.098 59.2109C263.137 58.6719 262.404 58.0215 261.9 57.2598C261.396 56.498 261.145 55.625 261.145 54.6406C261.145 52.8945 261.865 51.459 263.307 50.334C264.748 49.1973 266.635 48.6289 268.967 48.6289C271.475 48.6289 273.49 49.1973 275.014 50.334C276.537 51.4707 277.299 52.9648 277.299 54.8164H271.357C271.357 53.293 270.555 52.5312 268.949 52.5312C268.328 52.5312 267.807 52.707 267.385 53.0586C266.963 53.3984 266.752 53.8262 266.752 54.3418C266.752 54.8691 267.01 55.2969 267.525 55.625C268.041 55.9531 268.861 56.2227 269.986 56.4336C271.123 56.6445 272.119 56.8965 272.975 57.1895C275.834 58.1738 277.264 59.9375 277.264 62.4805C277.264 64.2148 276.49 65.627 274.943 66.7168C273.408 67.8066 271.416 68.3516 268.967 68.3516C267.338 68.3516 265.885 68.0586 264.607 67.4727C263.33 66.8867 262.334 66.0898 261.619 65.082C260.904 64.0742 260.547 63.0137 260.547 61.9004H266.084C266.107 62.7793 266.4 63.4238 266.963 63.834C267.525 64.2324 268.246 64.4316 269.125 64.4316C269.934 64.4316 270.537 64.2676 270.936 63.9395C271.346 63.6113 271.551 63.1836 271.551 62.6562Z" fill="white"/>
<path d="M22.6508 74.0344V52.3346H36.5461V51.0653H22.6508V31.2689H37.4246V30H22V75.3033H37.5547V74.0344H22.651H22.6508ZM50.0834 42.6898L44.3236 57.4738L38.6938 42.6902H37.8477L43.933 58.4259L37.2617 75.3029H38.0428L44.3232 59.3768L50.6363 75.3029H51.4498L44.7463 58.4251L50.8641 42.6895H50.0832L50.0834 42.6898ZM53.4025 86.4706V66.1669H53.4676C53.8582 69.1278 54.6283 71.5072 55.7781 73.3051C56.9279 75.1026 58.3922 76.0017 60.1711 76.0017C61.3209 76.0017 62.3406 75.547 63.2301 74.6376C64.1195 73.7282 64.8625 72.4909 65.4592 70.9257C66.0557 69.3605 66.5113 67.5417 66.826 65.4689C67.1404 63.3964 67.2979 61.2177 67.2979 58.9339C67.2979 56.4803 67.135 54.217 66.8096 52.1446C66.4842 50.0717 66.0123 48.2739 65.3941 46.7513C64.7758 45.2284 64.0273 44.0437 63.1486 43.1982C62.2701 42.3521 61.2775 41.929 60.1711 41.929C59.325 41.929 58.5387 42.1723 57.8119 42.6586C57.0852 43.1453 56.4398 43.8323 55.8758 44.7208C55.3084 45.6161 54.8146 46.6752 54.4113 47.8614C53.9992 49.0671 53.6846 50.389 53.4676 51.8274H53.4025V42.6898H52.7518V86.4706H53.4025V86.4706ZM60.1711 74.7956C58.132 74.7956 56.4939 73.4315 55.2574 70.7033C54.0209 67.9751 53.4025 64.0514 53.4025 58.9332C53.4025 56.8181 53.5545 54.8088 53.8582 52.9055C54.1619 51.0021 54.6012 49.331 55.176 47.893C55.751 46.4547 56.4615 45.3126 57.3074 44.4668C58.1535 43.6206 59.1082 43.1975 60.1711 43.1975C61.2559 43.1975 62.2051 43.6206 63.0186 44.4668C63.832 45.3126 64.5047 46.4653 65.0361 47.9247C65.5676 49.384 65.9689 51.055 66.2402 52.9371C66.5113 54.8195 66.6469 56.8181 66.6469 58.9332C66.6469 60.8369 66.5223 62.73 66.2727 64.612C66.0232 66.4944 65.6381 68.1864 65.1174 69.6884C64.5969 71.1896 63.9299 72.4163 63.1162 73.3683C62.3025 74.32 61.3209 74.7956 60.1711 74.7956V74.7956ZM70.8773 75.3033V56.8394C70.8773 55.0628 71.0074 53.3282 71.268 51.6366C71.5281 49.9446 71.9295 48.4532 72.4719 47.1634C73.0143 45.8732 73.7029 44.8579 74.5383 44.1176C75.3734 43.3772 76.366 43.0707 77.5158 43.1975V41.9286C76.5178 41.8867 75.6447 42.0977 74.8963 42.563C74.1477 43.0284 73.5023 43.6628 72.96 44.4668C72.4176 45.2703 71.9838 46.2113 71.6584 47.2902C71.3333 48.3674 71.0919 49.5327 70.9424 50.7481H70.8773V42.6898H70.2266V75.3037H70.8773V75.3033ZM78.3293 59.2504H92.3221C92.3656 57.0085 92.2518 54.8515 91.9805 52.7786C91.7094 50.7058 91.2754 48.8657 90.6789 47.2586C90.0822 45.6511 89.3121 44.3609 88.3684 43.3879C87.4246 42.4149 86.302 41.9286 85.0004 41.9286C84.0674 41.9286 83.1563 42.3094 82.2668 43.071C81.3773 43.8323 80.5963 44.9424 79.9238 46.4017C79.2514 47.8611 78.709 49.6483 78.2969 51.7638C77.8848 53.8785 77.6785 56.2895 77.6785 58.9968C77.6785 61.4078 77.8195 63.6603 78.1016 65.7541C78.3836 67.8479 78.8174 69.6671 79.4031 71.2109C79.9891 72.7548 80.743 73.9498 81.6648 74.7956C82.5867 75.6418 83.6986 76.0436 85.0004 76.0013C86.9094 76.0013 88.5148 74.9541 89.8164 72.8607C91.1182 70.7665 91.8883 67.8163 92.127 64.0092H91.4762C91.1941 67.6049 90.4727 70.3015 89.3121 72.099C88.1514 73.8969 86.6926 74.7956 84.9352 74.7956C83.742 74.7956 82.7332 74.3939 81.9088 73.5903C81.0846 72.7868 80.4119 71.6866 79.8912 70.2909C79.3707 68.8948 78.9855 67.2557 78.7361 65.3733C78.4865 63.4912 78.351 61.45 78.3293 59.2504ZM91.6713 57.9815H78.3295C78.3943 55.6973 78.6113 53.6458 78.9801 51.827C79.349 50.0078 79.8316 48.4532 80.4283 47.1634C81.0248 45.8732 81.7191 44.8899 82.5109 44.2128C83.3027 43.536 84.1543 43.1975 85.0654 43.1975C86.1502 43.1975 87.1045 43.589 87.9291 44.3716C88.7533 45.1542 89.4422 46.2224 89.9955 47.5758C90.5486 48.9293 90.9662 50.5051 91.2482 52.3026C91.5303 54.1005 91.6713 55.9936 91.6713 57.9815ZM105.827 52.3346H106.478C106.478 48.6966 105.935 46.0529 104.851 44.4032C103.766 42.7534 102.291 41.9286 100.425 41.9286C99.3836 41.9286 98.5051 42.1826 97.7891 42.6902C97.0732 43.1975 96.4875 43.8533 96.0318 44.6568C95.5764 45.4603 95.251 46.3488 95.0557 47.3218C94.8604 48.2948 94.7627 49.2256 94.7627 50.1136C94.7627 51.8902 94.9254 53.3072 95.251 54.3648C95.5764 55.4223 96.0861 56.2472 96.7803 56.8394C97.2576 57.2621 97.7998 57.6429 98.4074 57.9819C99.0148 58.32 99.7199 58.6795 100.523 59.06C101.238 59.3989 101.944 59.7371 102.638 60.0753C103.332 60.4138 103.945 60.8685 104.476 61.4394C105.008 62.0106 105.442 62.7403 105.778 63.6287C106.114 64.5168 106.282 65.6802 106.282 67.1182C106.282 68.5143 106.114 69.6987 105.778 70.6713C105.445 71.6393 105.006 72.4518 104.493 73.0511C103.972 73.6642 103.392 74.1083 102.752 74.3832C102.112 74.6582 101.488 74.7956 100.881 74.7956C98.9064 74.7956 97.3932 73.9392 96.341 72.2262C95.2889 70.5129 94.7629 67.8163 94.7629 64.136H94.1119C94.1119 68.2394 94.6814 71.2426 95.8203 73.1463C96.9594 75.0497 98.6461 76.0013 100.881 76.0013C101.596 76.0013 102.318 75.8425 103.045 75.5253C103.771 75.2081 104.422 74.6902 104.997 73.9708C105.567 73.2616 106.046 72.3065 106.396 71.1793C106.754 70.0369 106.933 68.6411 106.933 66.9914C106.933 65.4262 106.776 64.1573 106.462 63.1843C106.147 62.2117 105.735 61.4078 105.225 60.7733C104.715 60.1388 104.14 59.6419 103.5 59.2824C102.857 58.9207 102.211 58.5716 101.564 58.2351C100.767 57.8276 99.9701 57.4259 99.1721 57.0298C98.4889 56.6912 97.8543 56.2895 97.2686 55.8241C96.7045 55.3587 96.2543 54.6927 95.918 53.8255C95.5816 52.9584 95.4137 51.7211 95.4137 50.1136C95.4137 49.8177 95.457 49.2888 95.5438 48.5275C95.6305 47.7659 95.8367 46.9939 96.1621 46.2113C96.4875 45.4291 96.9863 44.7311 97.659 44.1176C98.3314 43.5044 99.2535 43.1975 100.425 43.1975C101.228 43.1975 101.96 43.3669 102.621 43.7051C103.283 44.0437 103.853 44.5829 104.33 45.3232C104.807 46.0636 105.176 47.0046 105.436 48.1467C105.697 49.2892 105.827 50.6849 105.827 52.3346V52.3346ZM120.894 52.3346H121.544C121.544 48.6966 121.002 46.0529 119.917 44.4032C118.833 42.7534 117.357 41.9286 115.492 41.9286C114.45 41.9286 113.572 42.1826 112.856 42.6902C112.14 43.1975 111.554 43.8533 111.099 44.6568C110.643 45.4603 110.318 46.3488 110.122 47.3218C109.927 48.2948 109.829 49.2256 109.829 50.1136C109.829 51.8902 109.992 53.3072 110.318 54.3648C110.643 55.4223 111.153 56.2472 111.847 56.8394C112.324 57.2621 112.867 57.6429 113.474 57.9819C114.081 58.32 114.787 58.6795 115.589 59.06C116.305 59.3989 117.01 59.7371 117.704 60.0753C118.399 60.4138 119.012 60.8685 119.543 61.4394C120.075 62.0106 120.509 62.7403 120.845 63.6287C121.181 64.5168 121.349 65.6802 121.349 67.1182C121.349 68.5143 121.181 69.6987 120.845 70.6713C120.511 71.6392 120.073 72.4518 119.56 73.0511C119.039 73.6642 118.458 74.1083 117.818 74.3832C117.179 74.6582 116.555 74.7956 115.947 74.7956C113.973 74.7956 112.46 73.9392 111.408 72.2262C110.355 70.5129 109.829 67.8163 109.829 64.136H109.179C109.179 68.2394 109.748 71.2426 110.887 73.1463C112.026 75.0497 113.713 76.0013 115.947 76.0013C116.663 76.0013 117.385 75.8425 118.111 75.5253C118.838 75.2081 119.489 74.6902 120.064 73.9708C120.634 73.2616 121.113 72.3065 121.463 71.1793C121.821 70.0369 122 68.6411 122 66.9914C122 65.4262 121.843 64.1573 121.528 63.1843C121.214 62.2117 120.802 61.4078 120.292 60.7733C119.782 60.1388 119.207 59.6419 118.567 59.2824C117.923 58.9207 117.278 58.5716 116.631 58.2351C115.834 57.8276 115.037 57.4259 114.239 57.0298C113.555 56.6912 112.921 56.2895 112.335 55.8241C111.771 55.3587 111.321 54.6927 110.985 53.8255C110.648 52.9584 110.48 51.7211 110.48 50.1136C110.48 49.8177 110.524 49.2888 110.611 48.5275C110.697 47.7659 110.904 46.9939 111.229 46.2113C111.554 45.4291 112.053 44.7311 112.726 44.1176C113.398 43.5044 114.32 43.1975 115.492 43.1975C116.295 43.1975 117.027 43.3669 117.688 43.7051C118.35 44.0437 118.919 44.5829 119.397 45.3232C119.874 46.0636 120.243 47.0046 120.503 48.1467C120.763 49.2892 120.894 50.6849 120.894 52.3346H120.894Z" fill="white"/>
</svg>
