<svg width="309" height="108" viewBox="0 0 309 108" fill="none" xmlns="http://www.w3.org/2000/svg">
<rect x="0.5" y="0.5" width="308" height="107" fill="#2D2C2C" stroke="black"/>
<path d="M183.617 57.8047H173.668V68H167.498V42.4062H184.619V47.1699H173.668V53.0586H183.617V57.8047ZM193.162 68H187.221V41H193.162V68ZM207.541 68C207.33 67.6133 207.143 67.0449 206.979 66.2949C205.889 67.666 204.365 68.3516 202.408 68.3516C200.615 68.3516 199.092 67.8125 197.838 66.7344C196.584 65.6445 195.957 64.2793 195.957 62.6387C195.957 60.5762 196.719 59.0176 198.242 57.9629C199.766 56.9082 201.98 56.3809 204.887 56.3809H206.715V55.3789C206.715 53.6328 205.959 52.7598 204.447 52.7598C203.041 52.7598 202.338 53.4512 202.338 54.834H196.414C196.414 52.9941 197.193 51.5 198.752 50.3516C200.322 49.2031 202.32 48.6289 204.746 48.6289C207.172 48.6289 209.088 49.2207 210.494 50.4043C211.9 51.5879 212.621 53.2109 212.656 55.2734V63.6934C212.68 65.4395 212.949 66.7754 213.465 67.7012V68H207.541ZM203.832 64.1328C204.57 64.1328 205.18 63.9746 205.66 63.6582C206.152 63.3418 206.504 62.9844 206.715 62.5859V59.5449H204.992C202.93 59.5449 201.898 60.4707 201.898 62.3223C201.898 62.8613 202.08 63.3008 202.443 63.6406C202.807 63.9688 203.27 64.1328 203.832 64.1328ZM225.91 62.6562C225.91 62.1523 225.646 61.748 225.119 61.4434C224.592 61.1387 223.59 60.8223 222.113 60.4941C220.637 60.166 219.418 59.7383 218.457 59.2109C217.496 58.6719 216.764 58.0215 216.26 57.2598C215.756 56.498 215.504 55.625 215.504 54.6406C215.504 52.8945 216.225 51.459 217.666 50.334C219.107 49.1973 220.994 48.6289 223.326 48.6289C225.834 48.6289 227.85 49.1973 229.373 50.334C230.896 51.4707 231.658 52.9648 231.658 54.8164H225.717C225.717 53.293 224.914 52.5312 223.309 52.5312C222.688 52.5312 222.166 52.707 221.744 53.0586C221.322 53.3984 221.111 53.8262 221.111 54.3418C221.111 54.8691 221.369 55.2969 221.885 55.625C222.4 55.9531 223.221 56.2227 224.346 56.4336C225.482 56.6445 226.479 56.8965 227.334 57.1895C230.193 58.1738 231.623 59.9375 231.623 62.4805C231.623 64.2148 230.85 65.627 229.303 66.7168C227.768 67.8066 225.775 68.3516 223.326 68.3516C221.697 68.3516 220.244 68.0586 218.967 67.4727C217.689 66.8867 216.693 66.0898 215.979 65.082C215.264 64.0742 214.906 63.0137 214.906 61.9004H220.443C220.467 62.7793 220.76 63.4238 221.322 63.834C221.885 64.2324 222.605 64.4316 223.484 64.4316C224.293 64.4316 224.896 64.2676 225.295 63.9395C225.705 63.6113 225.91 63.1836 225.91 62.6562ZM242.047 60.916L240.377 62.5859V68H234.453V40.9824H240.377V55.3262L240.975 54.5352L245.439 48.9805H252.541L245.879 56.8027L252.98 68H246.195L242.047 60.916Z" fill="white"/>
<g clip-path="url(#clip0)">
<path d="M44.9067 82.0256C41.8598 79.4598 38.6089 77.0011 36.3879 73.5364C31.7126 67.4267 28.1139 60.3545 25.6536 52.9214C24.1661 48.0875 23.6567 42.9054 21.7379 38.2592C19.7336 34.8835 22.0832 31.1961 25.537 30.1236C27.0736 29.8064 29.777 28.2536 26.5136 29.3649C23.5873 31.6617 23.3054 27.2774 26.3054 26.9998C28.3529 26.7091 29.1067 24.9157 28.4057 23.3013C26.207 21.7658 33.7354 20.0812 29.947 17.7907C26.0032 13.2345 35.4657 12.3573 33.1307 17.5328C32.5726 21.5119 39.7451 16.8018 38.0795 21.3978C39.7717 23.6054 44.4145 21.9013 44.2979 24.9963C46.7623 25.1776 47.6082 27.3959 49.9192 27.5665C52.3182 28.7259 56.6629 29.6378 57.4779 32.5298C55.0998 34.5446 49.5945 28.3673 49.3286 33.9455C50.0479 42.1875 49.8645 50.6774 52.6804 58.5257C54.0123 63.2772 57.2429 67.0175 60.1589 70.7191C62.9504 74.3433 66.7307 76.8964 70.5848 79.0443C73.9645 80.7504 77.6082 81.8811 81.2926 82.5923C82.7864 81.3693 85.4242 76.8218 87.7536 78.7379C87.8661 80.8953 83.1298 83.2443 87.5314 83.0058C90.1182 82.1701 91.9104 85.1447 94.0395 82.4608C96.0014 84.9484 102.193 80.8729 100.797 85.9566C98.9092 87.2606 96.1567 86.4728 94.2667 88.2668C91.1504 86.5999 88.6692 89.7565 85.2179 89.3584C81.3867 90.093 77.4873 90.3887 73.6032 90.3947C67.2295 89.8565 60.7214 89.6294 54.6582 87.2536C51.2417 86.1911 47.9089 84.1084 44.9067 82.0256V82.0256ZM50.2892 84.5238C53.6242 86.066 56.8857 87.6935 60.5414 88.1855C66.3407 89.0476 72.3298 90.3774 78.1495 89.1657C75.5157 87.8928 72.7917 89.6601 70.1679 88.2558C67.0211 88.9797 63.6436 88.0698 60.4429 87.6212C56.8054 85.887 52.8786 84.6948 49.472 82.4411C45.2132 80.7768 51.6729 84.5764 52.8232 84.8851C55.4839 86.5009 49.8967 84.0555 49.1076 83.3841C46.8789 82.0454 46.5951 82.3254 48.8876 83.6839C49.3492 83.9729 49.8051 84.277 50.2892 84.5238V84.5238ZM43.9423 79.7224C47.1751 81.0043 43.9279 77.2898 42.4486 77.5045C41.7923 76.2859 39.9414 75.5158 41.247 74.8618C38.8992 75.7349 38.7867 71.5433 37.6836 72.1431C35.1986 71.3031 36.7167 68.3279 33.7557 66.4997C33.4857 64.5742 30.8151 62.9052 29.9651 60.0022C29.5892 58.515 26.947 54.2474 28.5695 58.2192C29.9507 62.0428 32.3804 65.3202 34.4036 68.5905C35.9729 71.7049 37.8286 74.9625 40.6873 76.9051C41.652 77.8959 42.5814 79.4117 43.942 79.7224H43.9423ZM34.6326 68.7785C34.7445 68.2556 35.2232 69.9092 34.6326 68.7785V68.7785ZM47.8148 81.2579C48.5298 80.9147 46.7848 80.825 47.8148 81.2579V81.2579ZM49.5679 81.943C49.3864 80.9976 48.767 82.4722 49.5679 81.943V81.943ZM51.7648 82.9232C52.8089 81.857 50.1523 82.2508 51.7648 82.9232V82.9232ZM55.5289 85.1688C56.1642 84.1649 53.4954 84.7908 55.5289 85.1688V85.1688ZM48.3014 79.7753C49.9232 78.6506 46.2026 79.7596 48.3014 79.7753V79.7753ZM49.9482 80.6544C49.9011 80.0613 49.3617 80.921 49.9482 80.6544V80.6544ZM58.1811 86.1557C59.5051 87.0505 65.9117 88.1156 61.9004 86.523C61.2276 86.6742 54.462 84.4733 58.1811 86.1557V86.1557ZM45.1114 75.2579C44.9826 74.6634 43.0551 74.5995 45.1114 75.2579V75.2579ZM48.9426 77.6514C49.9417 76.9054 46.8726 77.076 48.9426 77.6514V77.6514ZM52.167 79.7666C53.5995 79.1892 49.8461 79.1869 52.167 79.7666V79.7666ZM43.5501 73.4401C45.1032 74.7149 49.8157 73.604 45.9286 72.679C44.1611 71.6704 40.1764 70.9796 42.8926 73.2872L43.5501 73.4401ZM54.352 80.4969C54.9995 79.3177 51.6379 79.8228 54.352 80.4969V80.4969ZM51.0698 77.7053C54.8667 78.854 47.8761 75.1328 50.1323 77.2811L50.6332 77.5239L51.0698 77.7053ZM57.6504 81.7764C61.2467 81.8132 54.4011 81.2452 57.6504 81.7764V81.7764ZM42.167 71.2128C42.0257 70.4956 41.2801 71.2724 42.167 71.2128V71.2128ZM63.7336 85.4294C63.8295 84.1348 62.5604 86.3942 63.7336 85.4294V85.4294ZM48.3054 75.2358C48.0867 74.5534 47.1817 75.2074 48.3054 75.2358V75.2358ZM42.5079 70.7625C44.5723 70.6294 39.6798 69.7891 42.5079 70.7625V70.7625ZM35.6398 66.011C35.3826 64.9505 33.3942 64.1062 35.6398 66.011V66.011ZM53.6695 78.2592C53.2914 77.7972 53.4914 78.3596 53.6695 78.2592V78.2592ZM64.8898 85.6311C64.8554 84.9243 64.2789 85.8974 64.8898 85.6311V85.6311ZM52.6764 77.161C52.8789 76.2511 50.9151 76.885 52.6764 77.161V77.161ZM44.3164 71.4888C45.8532 71.3135 41.8539 70.3775 44.3164 71.4888V71.4888ZM58.4576 80.8953C60.8523 79.88 56.1239 80.4005 58.4576 80.8953V80.8953ZM51.1029 75.5512C53.8614 75.9313 47.8192 73.5408 50.4961 75.3365L51.1029 75.5512ZM60.6904 81.8617C63.2676 80.2148 62.4176 85.7228 65.062 82.3277C67.6692 80.2891 62.8098 84.8477 66.0223 82.691C68.3476 81.0261 71.7804 83.4805 73.9489 84.279C75.5076 84.198 77.0242 85.7228 78.6239 84.7948C81.7014 83.9067 72.6042 83.4785 74.9886 81.9052C72.1729 82.783 70.0929 80.8598 68.7073 78.9283C65.5479 78.1472 61.8964 76.4193 60.3189 73.4247C59.6751 72.3027 61.247 73.5846 59.7632 71.747C57.8607 69.9356 56.9107 67.8769 55.6332 65.6744C54.1067 64.8037 53.927 62.2379 53.7736 65.5895C53.7861 63.4739 51.9304 62.0499 51.4767 62.6406C51.4686 60.6037 53.4632 61.6254 52.0673 60.1183C51.7673 58.0071 50.7779 55.807 50.4814 53.4225C50.0201 52.2741 50.4157 49.8133 48.9042 52.4139C48.3542 55.1637 48.7223 49.0365 49.5786 51.0557C50.7023 48.9951 49.1736 49.2376 49.1123 49.5223C49.8442 47.7834 49.5764 45.3156 48.9204 46.2563C49.3107 44.4121 49.5376 39.4708 48.3382 40.348C49.0654 38.4188 49.7176 31.5232 46.5579 34.1532C45.2789 34.1726 43.062 34.65 42.0157 35.2077C45.2995 37.1459 41.6845 35.9075 40.3461 35.5991C40.1723 37.3928 38.8482 36.6183 37.1929 36.6357C39.8373 36.9857 35.9054 39.5294 34.3917 38.5412C32.4217 39.5474 36.0898 42.0631 34.4304 42.8415C34.6351 44.012 31.4142 42.4177 31.6657 45.1256C29.7548 44.2632 31.4042 48.3367 32.3604 46.9588C35.6117 47.9015 34.6492 50.0475 34.7307 52.0881C34.2014 53.2756 32.1151 49.2948 34.2667 49.4788C32.5686 46.5273 32.3892 48.411 30.9789 49.7825C30.652 49.8812 34.5754 51.7335 32.1132 52.6481C34.2792 53.007 34.3426 55.0369 34.7842 56.3211C36.0857 57.773 35.8176 54.7171 37.3773 56.4633C36.3898 54.9078 32.1539 52.081 35.5648 52.9876C35.5461 51.4234 34.9473 50.1609 35.9936 50.1913C37.0298 48.1855 34.9086 55.1396 37.2423 52.5892C37.8876 52.2875 38.0495 50.581 39.2101 52.7511C40.8957 54.5274 39.8192 55.813 37.4404 54.1859C37.8654 55.7324 40.622 56.2833 40.1029 58.7009C40.6523 60.8272 41.4211 60.0437 42.0911 59.9213C42.6161 61.9863 42.9151 60.4682 42.9395 59.4837C45.3445 60.0357 44.7804 61.5578 45.5342 62.6209C47.1914 63.4211 43.162 57.1936 46.0067 60.7482C48.9998 63.6422 47.1304 64.8495 44.4436 64.3862C46.1436 64.239 46.6907 66.8473 48.8186 66.7553C50.7576 67.7438 52.0717 71.537 48.7286 69.9573C47.5698 68.8374 43.4642 67.4571 46.8179 69.5857C49.9117 71.1211 52.372 72.0377 55.3573 73.9653C57.4929 75.5971 58.4161 77.4667 59.2254 77.8371C57.4295 78.7553 53.8148 77.1041 56.4995 76.599C54.8239 76.2728 52.9401 75.3653 54.5439 77.5985C55.9089 78.8192 59.3767 78.6898 60.0001 78.8276C59.4729 80.0703 58.5679 80.169 60.0204 80.265C58.3998 81.1903 60.5417 81.3348 60.6907 81.8617H60.6904ZM57.3761 71.841C56.3892 70.7364 56.1339 68.6694 57.2004 70.4668C57.7482 70.7033 58.952 73.8472 57.3761 71.841ZM68.172 79.1822C68.787 79.1387 68.1901 79.6826 68.172 79.1822V79.1822ZM55.8195 69.1331C55.7801 67.4638 56.1745 70.421 55.8195 69.1331V69.1331ZM54.7464 67.5886C53.5042 65.0228 56.3095 68.3148 54.7464 67.5886V67.5886ZM41.7417 57.9814C42.4714 57.773 42.1014 59.3151 41.7417 57.9814V57.9814ZM52.092 63.9858C52.5395 62.1853 52.6173 65.4955 52.092 63.9858V63.9858ZM44.7804 58.5431C44.2657 57.5502 45.8576 59.4754 44.7804 58.5431V58.5431ZM51.0539 60.6957C49.8789 57.8784 51.8876 59.1556 51.3154 61.1574L51.0539 60.6957ZM40.2339 52.9716C39.7089 52.0466 38.8401 49.3339 39.1201 48.5053C39.3714 49.8548 41.7992 54.3107 40.3092 50.3516C38.6645 47.0331 42.2773 51.4274 42.6492 52.2567C42.8229 53.0793 41.6336 52.0315 42.4386 53.9627C40.9695 51.7643 41.572 55.1771 40.2339 52.9716ZM36.8907 50.5044C37.0276 48.3541 37.6551 51.9787 36.8907 50.5044V50.5044ZM38.3948 51.0597C39.112 49.4373 39.6104 53.3218 38.3948 51.0597V51.0597ZM34.7757 48.0634C33.5311 46.7374 32.6298 45.517 34.8348 47.2405C35.6829 47.2756 32.947 44.4649 35.0395 46.348C37.2379 46.7772 36.1242 50.2094 34.7757 48.0634ZM36.6761 48.0109C37.3998 47.2432 37.0604 48.7656 36.6761 48.0109V48.0109ZM37.847 48.411C36.7495 46.2125 39.1773 49.3343 37.847 48.411V48.411ZM35.5217 46.0335C31.9029 42.5832 40.0682 47.8356 36.1123 46.6718L35.5217 46.0335ZM45.892 52.4818C44.3248 51.4776 45.4751 45.4056 46.0107 49.5574C47.5332 49.0299 45.9264 51.7034 47.0607 51.6769C46.8832 53.3629 46.3745 53.9698 45.892 52.4818ZM49.7276 54.9098C49.8807 53.0793 50.0504 56.1616 49.7276 54.9098V54.9098ZM49.0617 54.2033C49.2332 53.4225 49.0779 55.1242 49.0617 54.2033V54.2033ZM36.2304 44.9002C33.9054 41.4656 42.9882 48.3735 37.7204 45.7709C37.1704 45.6157 36.5067 45.5608 36.2304 44.9002ZM43.6176 49.0917C43.3973 46.1998 44.1082 49.5701 43.6176 49.0917V49.0917ZM49.2248 52.9431C49.6579 51.2963 49.2579 54.033 49.2248 52.9431V52.9431ZM36.5882 43.5898C37.9698 43.2727 42.3139 46.1864 38.3251 44.4211C37.882 43.8959 36.9357 44.1344 36.5882 43.5895V43.5898ZM48.4542 49.9204C48.602 46.9632 49.2804 48.1551 48.4604 50.3449L48.4542 49.92V49.9204ZM37.6161 42.5598C38.1798 41.6757 36.1198 38.5633 37.912 41.4439C38.687 42.1022 40.1536 42.5464 38.8582 42.8241C40.8954 44.7473 38.362 43.345 37.6161 42.5598ZM47.8676 48.9974C48.2564 45.6288 48.2114 50.9704 47.8676 48.9974V48.9974ZM36.4389 39.4491C36.8701 39.2517 36.6676 40.0633 36.4389 39.4491V39.4491ZM39.1139 41.1532C39.802 39.6063 40.3826 42.8766 39.1139 41.1532V41.1532ZM46.6561 45.6438C46.6498 45.051 46.7989 46.5079 46.6561 45.6438V45.6438ZM46.2186 44.6095C45.1723 41.8443 47.1936 46.0727 46.2186 44.6095V44.6095ZM45.5767 42.7957C45.4017 41.6536 46.1736 44.2308 45.5767 42.7957V42.7957ZM46.6229 40.9759C45.9039 39.6214 47.5307 35.0039 47.7126 37.8675C46.9542 40.0987 47.4939 41.3458 48.0207 38.3532C48.9979 35.9995 47.8104 43.0017 46.6229 40.9759ZM47.6979 34.1094C48.0111 33.698 47.7676 34.6055 47.6979 34.1094V34.1094ZM45.9023 71.9809C45.477 71.5828 45.957 72.2328 45.9023 71.9809V71.9809ZM49.6007 73.9827C51.6582 74.5493 51.6482 73.6411 49.7882 73.3698C48.7892 72.3749 45.632 71.3182 48.4582 73.2474C48.6445 73.7552 49.2351 73.7418 49.6007 73.9827ZM42.2976 68.7892C43.4295 69.6954 46.5661 71.353 43.9117 69.1354C44.8067 68.0214 42.1992 67.429 43.0639 66.6834C40.8629 65.2412 41.3264 65.3703 42.8698 65.4165C40.2254 64.1497 43.2517 64.246 43.1089 63.5967C42.0892 63.3819 38.0429 61.6712 40.4236 63.7365C38.0042 62.4172 39.847 64.2286 39.1157 64.0383C36.6407 63.3164 41.3189 66.0555 38.7232 65.375C40.1417 66.578 42.5426 68.4593 39.322 66.6479C38.8992 67.3019 41.6273 68.2931 42.2973 68.7892H42.2976ZM46.1654 71.1693C50.8676 72.7904 43.8582 69.1853 46.1654 71.1693V71.1693ZM65.9667 84.0097C66.0279 83.0101 65.3248 84.8627 65.9667 84.0097V84.0097ZM68.002 84.9263C69.087 83.8023 68.047 86.72 69.8001 84.651C69.8182 83.1697 69.747 82.2953 67.7854 84.095C67.2436 84.4168 67.0029 85.7793 68.002 84.9266V84.9263ZM35.6951 63.2077C35.3617 61.8053 33.3592 61.8114 35.6951 63.2077V63.2077ZM37.867 64.7317C37.0598 63.2993 34.9876 63.4348 37.867 64.7317V64.7317ZM50.232 72.7138C51.4401 73.8626 55.7761 73.5561 51.6976 72.8563C51.0945 71.9003 47.8639 72.1301 50.232 72.7138ZM67.2273 83.9515C69.0848 82.2822 65.4273 84.6951 67.2273 83.9515V83.9515ZM71.0917 86.7926C71.1036 86.2567 70.2907 87.0268 71.0917 86.7926V86.7926ZM71.0979 86.0423C73.1554 83.7106 69.1054 86.1801 71.0979 86.0423V86.0423ZM30.3492 58.4166C28.5961 55.7391 29.2601 54.5358 27.5682 52.3483C27.247 50.675 24.6667 46.8819 26.2339 50.9002C27.6682 53.2519 28.0932 56.8915 30.3495 58.4166H30.3492ZM70.452 85.3006C74.2389 82.682 68.8992 84.1609 70.452 85.3006V85.3006ZM73.3417 86.5123C75.2379 84.7707 72.142 86.149 73.3417 86.5123V86.5123ZM35.0511 60.2471C35.5929 59.383 33.6495 60.1357 35.0511 60.2471V60.2471ZM72.7386 85.6853C74.5736 84.4191 72.3157 84.6135 72.4057 85.8011L72.7386 85.6853ZM47.8329 68.8812C47.7698 68.0238 46.8626 68.9534 47.8329 68.8812V68.8812ZM49.3717 69.8285C48.8814 68.7698 48.6198 69.9948 49.3717 69.8285V69.8285ZM75.6832 86.541C78.0351 84.7249 74.2592 86.1928 75.1907 86.8866L75.6832 86.541ZM74.7823 86.075C76.6989 84.3576 72.7611 86.8361 74.7823 86.075V86.075ZM79.3836 89.3537C80.6695 88.4328 77.8207 89.0563 79.3836 89.3537V89.3537ZM36.2304 59.6239C37.9529 60.037 43.1186 64.1671 40.072 59.9106C38.5111 59.4162 39.447 55.332 37.8551 56.0539C38.9239 57.9657 38.7332 58.7769 36.4895 57.5743C33.672 56.0997 34.9061 58.3029 35.4582 58.911C34.7057 59.0947 36.4511 59.6088 36.2301 59.6236L36.2304 59.6239ZM28.3773 52.9853C28.6857 51.6177 25.5348 45.4688 26.8898 49.903C27.3779 50.8326 27.3273 52.5932 28.3773 52.9853V52.9853ZM42.7917 62.4981C41.9029 61.7043 42.7489 62.3844 42.7917 62.4981V62.4981ZM44.9761 63.0434C44.9761 61.5949 42.5611 62.4546 44.9761 63.0434V63.0434ZM63.9192 75.8246C63.5576 74.8354 62.4911 75.8025 63.9192 75.8246V75.8246ZM64.8286 76.5351C64.6932 75.9818 64.3029 76.6425 64.8286 76.5351V76.5351ZM72.3361 81.5991C73.0576 81.0284 71.4348 81.5252 72.3361 81.5991V81.5991ZM32.2989 54.0571C34.3645 53.2014 30.0854 53.4466 32.2989 54.0571V54.0571ZM62.2514 74.2556C62.2273 72.8252 60.9336 74.6126 62.2514 74.2556V74.2556ZM31.4832 52.0202C32.8095 51.5418 30.2551 51.7057 31.4832 52.0202V52.0202ZM35.3332 54.0173C35.3104 53.5473 34.9267 54.1969 35.3332 54.0173V54.0173ZM82.302 84.8497C84.0082 84.48 87.897 85.7797 88.5242 84.3666C86.4523 84.3118 81.3579 82.8 81.1167 84.7249L81.5704 84.8018L82.3023 84.8497H82.302ZM36.557 54.3478C36.5882 52.8973 35.5007 54.2933 36.557 54.3478V54.3478ZM26.4345 46.8294C25.9748 44.0662 24.6851 46.4112 26.4345 46.8294V46.8294ZM28.8476 47.479C28.8786 46.5908 26.6382 46.6805 28.8476 47.479V47.479ZM30.227 48.2053C29.8286 47.8594 29.9164 48.6401 30.227 48.2053V48.2053ZM38.9095 54.1661C39.3186 53.7634 37.9411 53.8687 38.9095 54.1661V54.1661ZM29.3095 46.5691C29.0748 44.4823 26.512 46.2563 29.3095 46.5691V46.5691ZM24.3579 43.1302C24.2882 42.1678 23.8754 43.4932 24.3579 43.1302V43.1302ZM25.0954 42.5357C24.9751 41.3933 24.462 42.6796 25.0954 42.5357V42.5357ZM29.1626 45.134C30.8832 44.4121 26.0295 43.6377 28.8111 44.9985L29.1626 45.134ZM83.6082 81.1355C84.7095 80.0549 82.2104 80.8009 83.6082 81.1355V81.1355ZM90.1861 84.7841C90.6276 83.3888 89.0742 84.9681 90.1861 84.7841V84.7841ZM29.5782 42.8525C29.7604 41.5011 28.2136 43.1215 29.5782 42.8525V42.8525ZM23.7898 38.7011C23.4792 36.7936 23.522 33.4444 26.4954 34.5754C22.5267 35.4198 29.2439 39.8575 28.3957 36.3534C30.0651 36.4414 31.6614 35.2973 30.7845 37.0315C34.0745 36.6444 36.3532 33.5909 39.5304 34.0198C42.0048 33.6678 44.7104 33.4029 47.3773 32.3354C49.5698 32.1668 51.6804 29.6402 50.4795 28.1418C47.4898 27.8709 44.3589 28.271 41.0548 28.9755C37.3932 29.789 34.0667 31.3376 30.3717 32.0029C26.7689 32.5214 31.0951 33.429 30.0629 33.6324C28.1848 34.3302 32.3048 34.8005 29.8198 35.5375C28.2854 35.2251 26.6873 34.6607 27.3432 32.9282C23.8939 33.4093 20.8614 34.9404 23.5876 38.6984L23.7901 38.7004L23.7898 38.7011ZM32.1048 34.1683C32.912 30.9793 36.4367 36.7936 33.4289 34.5928C33.0711 34.3038 32.4782 34.0696 32.1048 34.1683ZM32.2617 32.6215C33.4289 31.6922 32.8811 33.1447 32.2617 32.6215V32.6215ZM33.7432 32.6482C33.8501 31.1803 37.1379 33.4246 34.2851 33.1754L33.7432 32.6479V32.6482ZM35.7704 31.7754C36.5123 30.8475 35.9854 32.5977 35.7704 31.7754V31.7754ZM36.2898 31.4038C37.5239 29.8178 43.272 30.3905 39.0645 31.2479C37.9364 30.338 37.0723 31.7838 36.2898 31.4038ZM43.7929 30.1654C43.6073 25.8316 47.5223 31.7032 43.7929 30.1654V30.1654ZM45.9226 30.152C46.7007 27.9692 48.9445 29.2752 46.2842 29.7124C46.3411 29.9466 46.2045 30.8415 45.9226 30.152ZM28.7392 41.7326C31.0642 40.2078 26.2704 40.4095 28.7392 41.7326V41.7326ZM30.4595 42.2424C31.2751 41.3151 28.6857 41.866 30.4595 42.2424V42.2424ZM25.392 38.3947C26.7201 37.3008 23.8186 37.9792 25.392 38.3947V38.3947ZM94.0682 84.386C94.107 83.1172 93.0526 84.9567 94.0682 84.386V84.386ZM87.0898 79.2869C87.2879 77.8284 86.1929 79.414 87.0898 79.2869V79.2869ZM95.987 84.8784C97.8448 84.8851 101.616 84.2589 97.5745 84.2612C96.9392 84.3666 93.8782 84.3449 95.987 84.8784ZM31.972 41.3472C33.4761 41.2378 34.3239 39.5729 31.6795 39.6672C27.5826 39.2146 35.2942 41.1702 31.1545 40.6102C30.5989 41.004 31.9389 41.4566 31.972 41.3472ZM33.2961 42.0651C33.1386 41.0324 32.8298 42.6137 33.2961 42.0651V42.0651ZM34.8673 37.5804C35.5192 36.714 33.9642 37.3486 34.8673 37.5804V37.5804ZM29.8648 28.6319C32.5501 27.6565 36.2201 26.5582 37.4873 29.1136C36.1976 27.4534 36.9664 25.8169 38.1842 28.2472C39.9067 30.704 40.7686 27.1296 39.6489 26.3046C40.9264 28.002 42.377 28.8052 40.5029 26.4124C42.5404 23.7894 36.4264 26.7556 35.037 26.7248C34.3689 27.0459 28.1342 28.4265 29.8651 28.6319H29.8648ZM31.4382 25.4081C32.9692 24.1724 36.7329 26.1451 34.3176 24.1784C34.0807 23.9556 29.0295 25.6704 31.4382 25.4081ZM37.0192 25.655C38.8092 25.7032 36.247 23.0782 38.3801 24.2681C38.0307 23.0434 35.8954 22.8136 34.8514 22.3238C34.2607 23.4438 36.0523 25.6704 37.0192 25.655V25.655ZM32.417 20.232C33.0364 19.3332 31.3301 20.6893 32.417 20.232V20.232ZM34.6982 20.8158C37.5851 20.407 33.962 19.486 34.1151 20.7833L34.6979 20.8158H34.6982ZM30.4389 17.2504C28.4054 14.409 34.2623 17.7275 32.1961 14.7522C30.4573 13.2716 28.7879 16.4215 30.4389 17.2504V17.2504ZM56.5232 32.2896C57.4557 30.5217 52.6757 29.9051 55.8961 31.6634C56.1923 31.7688 56.1254 32.4117 56.5232 32.2896ZM37.5964 98.1309C37.3901 99.0027 37.2623 100.466 37.2145 102.519C37.2145 102.922 37.0448 103.124 36.7045 103.124C36.3642 103.124 36.1273 102.948 35.9932 102.597C35.6289 101.648 35.2839 100.986 34.9545 100.608C34.5664 100.166 34.0501 99.8992 33.4061 99.8082C32.7139 99.6912 30.9895 99.6326 28.2326 99.6326C27.6014 99.6326 27.1879 99.7045 26.9942 99.848C26.8726 99.9384 26.812 100.134 26.812 100.433V109.268C26.812 109.567 26.9879 109.709 27.3395 109.697C28.4211 109.683 29.9876 109.604 32.0395 109.463C32.4407 109.41 32.7114 109.27 32.8507 109.042C32.9914 108.815 33.1279 108.228 33.2607 107.278C33.3451 106.758 33.6314 106.556 34.117 106.674C34.5295 106.765 34.707 106.966 34.6461 107.278C34.3054 109.047 34.1954 111.348 34.317 114.182C34.3298 114.52 34.1295 114.702 33.7161 114.728C33.3754 114.767 33.1629 114.572 33.0786 114.143C32.7636 112.518 32.1764 111.65 31.3211 111.539C30.4648 111.429 29.0701 111.373 27.1398 111.373C26.9211 111.373 26.812 111.457 26.812 111.627V120.403C26.812 121.053 27.0361 121.496 27.4851 121.729C27.8382 121.924 28.597 122.1 29.7623 122.256C30.3582 122.321 30.6186 122.601 30.5467 123.094C30.4732 123.523 29.9395 123.693 28.9426 123.602C26.0645 123.354 23.6895 123.367 21.8198 123.641C21.297 123.718 21.0367 123.491 21.0367 122.959C21.0367 122.62 21.297 122.425 21.8198 122.373C23.0101 122.23 23.6048 121.111 23.6048 119.019V102.324C23.6048 101.466 23.4617 100.807 23.177 100.345C22.8911 99.8832 22.3595 99.4634 21.5832 99.0867C21.097 98.8525 20.9151 98.5344 21.0364 98.1309C21.097 97.8844 21.1945 97.7472 21.3273 97.7218C21.4489 97.6823 21.7714 97.7084 22.2926 97.8001C23.0582 97.9299 24.8623 97.9951 27.7039 97.9951C31.0567 97.9951 33.9526 97.9165 36.3945 97.761C37.2079 97.7081 37.6154 97.78 37.6154 97.9751C37.6154 98.0279 37.6092 98.0791 37.5964 98.1309V98.1309ZM49.4111 122.888C49.4111 123.408 49.1376 123.636 48.5914 123.57C46.9164 123.401 44.8389 123.427 42.3614 123.648C41.8629 123.701 41.557 123.687 41.4407 123.61C41.3251 123.531 41.2682 123.317 41.2682 122.965C41.2682 122.654 41.5986 122.391 42.2604 122.176C42.9232 121.962 43.2532 121.321 43.2532 120.255V102.605C43.2532 101.551 43.1104 100.778 42.8257 100.284C42.5398 99.7895 42.0389 99.4061 41.3226 99.1338C40.9457 98.99 40.757 98.7886 40.757 98.5284C40.757 98.1383 41.0304 97.8459 41.577 97.6509C42.4032 97.3649 43.2598 96.9236 44.1467 96.3248C44.8754 95.8565 45.3373 95.6234 45.5307 95.6234C45.9798 95.6234 46.2054 95.9539 46.2054 96.6172C46.2054 96.566 46.1811 97.216 46.1317 98.5675C46.0964 99.8544 46.0839 101.122 46.0964 102.371L46.1682 119.786C46.1682 120.58 46.3507 121.156 46.7151 121.513C47.0795 121.87 47.7057 122.108 48.5914 122.224C49.1376 122.289 49.4111 122.51 49.4111 122.888V122.888ZM65.8889 121.738C65.8889 122.012 65.4245 122.424 64.4957 122.976C63.5661 123.529 62.822 123.805 62.2639 123.805C61.7895 123.805 61.3711 123.558 61.0067 123.064C60.6423 122.57 60.3864 122.323 60.2411 122.323C60.132 122.323 59.5551 122.59 58.5098 123.122C57.4664 123.656 56.4151 123.923 55.3586 123.923C54.3629 123.923 53.5304 123.61 52.8626 122.987C52.1339 122.297 51.7695 121.361 51.7695 120.178C51.7695 117.928 54.1745 116.317 58.9845 115.342C59.8095 115.172 60.2295 114.815 60.2407 114.269L60.2779 113.02C60.3511 110.888 59.4704 109.823 57.6361 109.823C57.1136 109.823 56.6189 110.322 56.1504 111.323C55.6839 112.325 55.012 112.864 54.1376 112.943C53.142 113.046 52.6436 112.598 52.6436 111.597C52.6436 110.972 53.3848 110.245 54.8664 109.412C56.4214 108.542 57.9157 108.105 59.3489 108.105C61.8139 108.105 63.0345 109.361 63.0104 111.87L62.937 119.904C62.9257 120.75 63.2598 121.172 63.9392 121.172C64.0732 121.172 64.3286 121.14 64.7045 121.075C65.0817 121.01 65.3004 120.977 65.3614 120.977C65.7129 120.977 65.8889 121.231 65.8889 121.738V121.738ZM60.2779 117.292C60.2904 116.967 60.2195 116.751 60.0676 116.649C59.9157 116.544 59.677 116.524 59.3489 116.589C56.4214 117.148 54.9576 118.169 54.9576 119.651C54.9576 121.147 55.7167 121.894 57.2348 121.894C57.8423 121.894 58.4686 121.771 59.1111 121.524C59.8651 121.237 60.2411 120.893 60.2411 120.49L60.2779 117.292V117.292ZM79.4339 119.494C79.4339 120.873 78.9376 121.969 77.9486 122.781C76.9589 123.594 75.6079 124 73.8948 124C72.7536 124 71.6111 123.87 70.4698 123.61C69.4854 123.376 68.9148 123.162 68.757 122.967C68.6595 122.784 68.6114 121.894 68.6114 120.294C68.6114 119.605 68.757 119.247 69.0489 119.222C69.3401 119.183 69.5895 119.352 69.7957 119.728C70.7064 121.432 72.1764 122.284 74.2048 122.284C75.9164 122.284 76.7729 121.646 76.7729 120.372C76.7729 119.814 76.5792 119.345 76.1898 118.968C75.7645 118.539 74.9398 118.038 73.7126 117.466C71.9389 116.622 70.7545 115.881 70.1598 115.243C69.5157 114.567 69.1942 113.657 69.1942 112.512C69.1942 111.108 69.6982 110.017 70.7064 109.236C71.6414 108.482 72.8926 108.105 74.4589 108.105C75.4432 108.105 76.3417 108.189 77.1564 108.359C78.0307 108.528 78.4861 108.735 78.5226 108.983C78.6189 109.71 78.8201 110.764 79.1239 112.143C79.1604 112.311 78.9895 112.448 78.6139 112.552C78.2126 112.643 77.9457 112.571 77.8117 112.338C76.8526 110.66 75.6382 109.821 74.1679 109.821C72.5042 109.821 71.672 110.393 71.672 111.537C71.672 112.175 71.897 112.681 72.3461 113.058C72.7473 113.383 73.6882 113.891 75.1701 114.58C76.7248 115.295 77.7814 115.939 78.3407 116.511C79.0695 117.251 79.4339 118.247 79.4339 119.494ZM100.867 122.907C100.867 123.362 100.581 123.603 100.011 123.629C99.1604 123.642 98.0482 123.707 96.677 123.824C95.9964 123.968 95.5104 123.877 95.2195 123.552C93.3001 121.342 91.672 119.027 90.3357 116.608C90.227 116.401 90.0876 116.297 89.917 116.297C89.7107 116.297 89.3529 116.492 88.8429 116.882C88.2711 117.219 87.9864 117.701 87.9864 118.324C87.9864 118.767 87.9976 119.403 88.0229 120.237C88.0473 121.068 88.2407 121.614 88.6051 121.874C88.8604 122.057 89.4504 122.199 90.3723 122.303C90.9432 122.382 91.2292 122.609 91.2292 122.986C91.2292 123.285 91.1836 123.471 91.0923 123.541C91.0017 123.613 90.7611 123.629 90.3723 123.59C89.1579 123.473 87.1057 123.538 84.2151 123.785C83.4864 123.85 83.0914 123.752 83.0307 123.492C83.0067 123.402 82.9939 123.271 82.9939 123.102C82.9939 122.7 83.3648 122.394 84.1064 122.187C84.7742 122.004 85.1079 121.165 85.1079 119.67V102.625C85.1079 101.559 85.0111 100.818 84.8157 100.402C84.5489 99.8685 83.9895 99.4523 83.1395 99.1532C82.7395 99.0111 82.5386 98.8094 82.5386 98.5491C82.5386 98.1711 82.8245 97.8787 83.3948 97.6716C84.3129 97.3429 85.1883 96.8906 85.9998 96.3255C86.6682 95.8582 87.0817 95.6237 87.2386 95.6237C87.7373 95.6237 87.9864 95.9609 87.9864 96.6383C87.9864 96.5463 87.9801 97.1909 87.9673 98.5685C87.9542 99.8428 87.9484 101.117 87.9498 102.391L87.9864 114.6C87.9864 114.938 88.0711 115.106 88.2407 115.106C88.4229 115.106 88.7026 114.938 89.0795 114.6C90.0876 113.754 91.3264 112.649 92.7954 111.284C93.0876 110.959 93.2329 110.699 93.2329 110.504C93.2329 110.153 92.7411 109.905 91.7579 109.763C91.3329 109.71 91.1317 109.457 91.1554 109.002C91.1923 108.547 91.4051 108.352 91.7932 108.417C92.6689 108.547 93.9442 108.619 95.6192 108.632C96.7857 108.644 97.9457 108.651 99.0998 108.651C99.4754 108.665 99.6642 108.905 99.6642 109.373C99.6642 109.815 99.3667 110.056 98.772 110.095C97.8357 110.133 96.9551 110.36 96.1304 110.778C94.9764 111.336 93.7429 112.317 92.4311 113.722C92.3348 113.8 92.2854 113.898 92.2854 114.014C92.2854 114.196 92.4917 114.632 92.9054 115.321C94.4236 117.792 95.857 119.657 97.2045 120.919C98.0673 121.712 98.8745 122.108 99.6273 122.108C100.187 122.108 100.533 122.15 100.666 122.235C100.8 122.32 100.867 122.544 100.867 122.907V122.907Z" fill="white"/>
</g>
<defs>
<clipPath id="clip0">
<rect width="80" height="80" fill="white" transform="translate(21 14)"/>
</clipPath>
</defs>
</svg>
