<svg width="309" height="108" viewBox="0 0 309 108" fill="none" xmlns="http://www.w3.org/2000/svg">
<rect x="0.5" y="0.5" width="308" height="107" fill="#2D2C2C" stroke="black"/>
<path d="M200.473 64.8359C199.523 65.8906 198.135 66.7402 196.307 67.3848C194.479 68.0293 192.475 68.3516 190.295 68.3516C186.943 68.3516 184.266 67.3262 182.262 65.2754C180.258 63.2246 179.186 60.3711 179.045 56.7148L179.027 54.5C179.027 51.9805 179.473 49.7832 180.363 47.9082C181.254 46.0215 182.525 44.5742 184.178 43.5664C185.842 42.5469 187.764 42.0371 189.943 42.0371C193.131 42.0371 195.604 42.7695 197.361 44.2344C199.131 45.6875 200.162 47.8613 200.455 50.7559H194.514C194.303 49.3262 193.846 48.3066 193.143 47.6973C192.439 47.0879 191.443 46.7832 190.154 46.7832C188.607 46.7832 187.412 47.4395 186.568 48.752C185.725 50.0645 185.297 51.9395 185.285 54.377V55.9238C185.285 58.4785 185.719 60.4004 186.586 61.6895C187.465 62.9668 188.842 63.6055 190.717 63.6055C192.322 63.6055 193.518 63.248 194.303 62.5332V58.5605H190.014V54.3242H200.473V64.8359ZM210.035 68H204.094V48.9805H210.035V68ZM203.742 44.0762C203.742 43.2324 204.047 42.541 204.656 42.002C205.266 41.4629 206.057 41.1934 207.029 41.1934C208.002 41.1934 208.793 41.4629 209.402 42.002C210.012 42.541 210.316 43.2324 210.316 44.0762C210.316 44.9199 210.012 45.6113 209.402 46.1504C208.793 46.6895 208.002 46.959 207.029 46.959C206.057 46.959 205.266 46.6895 204.656 46.1504C204.047 45.6113 203.742 44.9199 203.742 44.0762ZM220.6 44.252V48.9805H223.729V53.0938H220.6V61.7949C220.6 62.5098 220.729 63.0078 220.986 63.2891C221.244 63.5703 221.754 63.7109 222.516 63.7109C223.102 63.7109 223.594 63.6758 223.992 63.6055V67.8418C222.926 68.1816 221.812 68.3516 220.652 68.3516C218.613 68.3516 217.107 67.8711 216.135 66.9102C215.162 65.9492 214.676 64.4902 214.676 62.5332V53.0938H212.25V48.9805H214.676V44.252H220.6Z" fill="white"/>
<g clip-path="url(#clip0)">
<path d="M97.4912 50.4355L62.5625 15.5087C60.5522 13.4971 57.2897 13.4971 55.2769 15.5087L48.0237 22.7618L57.2247 31.9627C59.3628 31.2402 61.8147 31.7249 63.5191 33.4293C65.2316 35.1446 65.7128 37.6174 64.9728 39.7624L73.84 48.6299C75.9853 47.8909 78.4606 48.369 80.1741 50.0852C82.5687 52.479 82.5687 56.3587 80.1741 58.754C77.7787 61.1496 73.8991 61.1496 71.5025 58.754C69.7012 56.9509 69.2562 54.3055 70.1681 52.0865L61.8987 43.8171L61.8978 65.5787C62.4973 65.8751 63.0448 66.2666 63.5191 66.738C65.9137 69.1318 65.9137 73.0118 63.5191 75.409C61.1237 77.8034 57.2422 77.8034 54.8503 75.409C52.4556 73.0118 52.4556 69.1321 54.8503 66.7384C55.4242 66.1642 56.1062 65.7095 56.8569 65.4005V43.4362C56.1051 43.1293 55.4227 42.6743 54.8503 42.0984C53.0359 40.2865 52.5997 37.6243 53.5294 35.3965L44.4594 26.3255L20.5094 50.274C18.4969 52.2874 18.4969 55.5502 20.5094 57.5621L55.4387 92.4896C57.4497 94.5015 60.7116 94.5015 62.725 92.4896L97.4909 57.7243C99.5028 55.7118 99.5028 52.4471 97.4909 50.4355" fill="#DE4C36"/>
</g>
<defs>
<clipPath id="clip0">
<rect width="80" height="80" fill="white" transform="translate(19 14)"/>
</clipPath>
</defs>
</svg>
