<svg width="309" height="108" viewBox="0 0 309 108" fill="none" xmlns="http://www.w3.org/2000/svg">
<rect x="0.5" y="0.5" width="308" height="107" fill="#2D2C2C" stroke="black"/>
<path d="M164.613 66H158.479V55.3125H149.391V66H143.221V40.4062H149.391V50.5664H158.479V40.4062H164.613V66ZM188.098 45.1699H180.416V66H174.246V45.1699H166.705V40.4062H188.098V45.1699ZM198.82 40.4062L204.533 58.2129L210.229 40.4062H218.35V66H212.162V60.0234L212.76 47.7891L206.572 66H202.494L196.289 47.7715L196.887 60.0234V66H190.717V40.4062H198.82ZM228.457 61.2539H239.197V66H222.287V40.4062H228.457V61.2539ZM241.781 53.4844L243.346 40.4062H258.305V45.0117H248.162L247.582 50.0918C248.004 49.8457 248.555 49.6289 249.234 49.4414C249.926 49.2539 250.6 49.1602 251.256 49.1602C253.799 49.1602 255.75 49.916 257.109 51.4277C258.48 52.9277 259.166 55.0371 259.166 57.7559C259.166 59.3965 258.797 60.8848 258.059 62.2207C257.332 63.5449 256.307 64.5645 254.982 65.2793C253.658 65.9941 252.094 66.3516 250.289 66.3516C248.684 66.3516 247.178 66.0234 245.771 65.3672C244.365 64.6992 243.264 63.791 242.467 62.6426C241.67 61.4824 241.277 60.1758 241.289 58.7227H247.23C247.289 59.6602 247.588 60.4043 248.127 60.9551C248.666 61.5059 249.375 61.7812 250.254 61.7812C252.246 61.7812 253.242 60.3047 253.242 57.3516C253.242 54.6211 252.023 53.2559 249.586 53.2559C248.203 53.2559 247.172 53.7012 246.492 54.5918L241.781 53.4844Z" fill="white"/>
<path d="M92.8817 29.6822L86.9811 87.3798L60.4577 93.7979L34.0074 87.3886L28.113 29.6822H92.8817Z" fill="#E44D26"/>
<path d="M60.4973 88.8919L81.9295 83.7057L86.9717 34.4004H60.4973V88.8919Z" fill="#F16529"/>
<path d="M49.0268 48.5556H60.4973V41.4781H40.1654L40.3594 43.3768L42.3524 62.8804H60.4973V55.803H49.7678L49.0268 48.5556V48.5556ZM50.8542 66.4193H42.7147L43.8506 77.532L60.46 81.5563L60.4973 81.5475V74.1839L60.4617 74.1921L51.4316 72.0638L50.8542 66.4193V66.4193Z" fill="#EBEBEB"/>
<path d="M34.1389 14H38.2595V17.5535H42.0289V14H46.1498V24.7608H42.0292V21.1575H38.2598V24.7608H34.1392L34.1389 14ZM51.5682 17.5685H47.9412V14H59.3188V17.5685H55.6895V24.7608H51.5689L51.5682 17.5685ZM61.1244 14H65.4209L68.0639 17.7811L70.7043 14H75.0026V24.7608H70.8988V19.4271L68.0639 23.2532H67.9928L65.1561 19.4271V24.7608H61.1244V14ZM77.0532 14H81.175V21.204H86.9697V24.7608H77.0529L77.0532 14Z" fill="white"/>
<path d="M60.4694 62.8804H70.4539L69.5125 72.0594L60.4692 74.1899V81.553L77.0917 77.532L77.2136 76.3362L79.1193 57.7035L79.317 55.803H60.4694V62.8804ZM60.4694 48.5383V48.5556H80.0548L80.2173 46.9649L80.587 43.3768L80.7807 41.4781H60.4694V48.5385V48.5383Z" fill="white"/>
</svg>
