<svg width="268" height="108" viewBox="0 0 268 108" fill="none" xmlns="http://www.w3.org/2000/svg">
<rect x="0.5" y="0.5" width="267" height="107" rx="34.5" fill="#2D2C2C" stroke="black"/>
<path d="M55.494 11C35.2964 11 36.5575 19.5913 36.5575 19.5913L36.5799 28.4921H55.8542V31.1644H28.9245C28.9245 31.1644 16 29.7266 16 49.7159C16 69.7058 27.2808 68.9969 27.2808 68.9969H34.0131V59.7208C34.0131 59.7208 33.6502 48.6559 45.1139 48.6559H64.2305C64.2305 48.6559 74.9708 48.8261 74.9708 38.4744V21.3584C74.9708 21.3584 76.602 11 55.494 11ZM44.8662 16.9856C45.3217 16.9852 45.7727 17.0729 46.1936 17.2437C46.6145 17.4145 46.9969 17.665 47.319 17.9809C47.641 18.2968 47.8964 18.6719 48.0705 19.0847C48.2446 19.4975 48.334 19.94 48.3336 20.3867C48.334 20.8334 48.2446 21.2759 48.0705 21.6887C47.8964 22.1015 47.641 22.4766 47.319 22.7925C46.9969 23.1084 46.6145 23.3589 46.1936 23.5297C45.7727 23.7005 45.3217 23.7882 44.8662 23.7878C44.4107 23.7882 43.9597 23.7005 43.5388 23.5297C43.1179 23.3589 42.7355 23.1084 42.4135 22.7925C42.0914 22.4766 41.836 22.1015 41.6619 21.6887C41.4878 21.2759 41.3984 20.8334 41.3988 20.3867C41.3984 19.94 41.4878 19.4975 41.6619 19.0847C41.836 18.6719 42.0914 18.2968 42.4135 17.9809C42.7355 17.665 43.1179 17.4145 43.5388 17.2437C43.9597 17.0729 44.4107 16.9852 44.8662 16.9856Z" fill="url(#paint0_linear)"/>
<path d="M57.5063 91C77.7039 91 76.4428 82.4087 76.4428 82.4087L76.4204 73.5082H57.1458V70.8359H84.0755C84.0755 70.8359 97 72.2737 97 52.2838C97 32.2942 85.7192 33.0031 85.7192 33.0031H78.9869V42.2789C78.9869 42.2789 79.3498 53.3438 67.8861 53.3438H48.7695C48.7695 53.3438 38.0292 53.1736 38.0292 63.5256V80.6419C38.0292 80.6419 36.3983 91 57.506 91H57.5063ZM68.1341 85.015C67.6786 85.0154 67.2276 84.9277 66.8067 84.7569C66.3858 84.5861 66.0034 84.3356 65.6814 84.0197C65.3593 83.7038 65.1039 83.3287 64.9298 82.9159C64.7557 82.5031 64.6663 82.0607 64.6667 81.6139C64.6662 81.1671 64.7556 80.7247 64.9297 80.3118C65.1038 79.899 65.3592 79.5238 65.6812 79.2079C66.0033 78.892 66.3857 78.6414 66.8066 78.4706C67.2275 78.2998 67.6786 78.2121 68.1341 78.2125C68.5896 78.2121 69.0406 78.2998 69.4615 78.4706C69.8824 78.6414 70.2648 78.8919 70.5869 79.2078C70.9089 79.5237 71.1643 79.8988 71.3384 80.3116C71.5125 80.7244 71.6019 81.1669 71.6015 81.6136C71.6019 82.0604 71.5125 82.5028 71.3384 82.9156C71.1643 83.3284 70.9089 83.7035 70.5869 84.0194C70.2648 84.3353 69.8824 84.5858 69.4615 84.7566C69.0406 84.9274 68.5896 85.0151 68.1341 85.0147V85.015Z" fill="url(#paint1_linear)"/>
<path d="M127.805 54.8672V66H124.055V37.5625H134.543C137.655 37.5625 140.09 38.3568 141.848 39.9453C143.618 41.5339 144.504 43.6367 144.504 46.2539C144.504 49.0143 143.638 51.1432 141.906 52.6406C140.188 54.125 137.72 54.8672 134.504 54.8672H127.805ZM127.805 51.8008H134.543C136.548 51.8008 138.085 51.332 139.152 50.3945C140.22 49.444 140.754 48.0768 140.754 46.293C140.754 44.6003 140.22 43.2461 139.152 42.2305C138.085 41.2148 136.62 40.6875 134.758 40.6484H127.805V51.8008ZM155.949 60.707L160.871 44.8672H164.738L156.242 69.2617C154.927 72.7773 152.837 74.5352 149.973 74.5352L149.289 74.4766L147.941 74.2227V71.293L148.918 71.3711C150.142 71.3711 151.092 71.1237 151.77 70.6289C152.46 70.1341 153.026 69.2292 153.469 67.9141L154.27 65.7656L146.73 44.8672H150.676L155.949 60.707ZM172.883 39.75V44.8672H176.828V47.6602H172.883V60.7656C172.883 61.612 173.059 62.25 173.41 62.6797C173.762 63.0964 174.361 63.3047 175.207 63.3047C175.624 63.3047 176.197 63.2266 176.926 63.0703V66C175.975 66.2604 175.051 66.3906 174.152 66.3906C172.538 66.3906 171.32 65.9023 170.5 64.9258C169.68 63.9492 169.27 62.5625 169.27 60.7656V47.6602H165.422V44.8672H169.27V39.75H172.883ZM184.68 47.4258C186.281 45.4596 188.365 44.4766 190.93 44.4766C195.396 44.4766 197.648 46.9961 197.688 52.0352V66H194.074V52.0156C194.061 50.4922 193.71 49.3659 193.02 48.6367C192.342 47.9076 191.281 47.543 189.836 47.543C188.664 47.543 187.635 47.8555 186.75 48.4805C185.865 49.1055 185.174 49.9258 184.68 50.9414V66H181.066V36H184.68V47.4258ZM202.141 55.2383C202.141 53.168 202.544 51.306 203.352 49.6523C204.172 47.9987 205.305 46.7227 206.75 45.8242C208.208 44.9258 209.868 44.4766 211.73 44.4766C214.608 44.4766 216.932 45.4727 218.703 47.4648C220.487 49.457 221.379 52.1068 221.379 55.4141V55.668C221.379 57.7253 220.982 59.5742 220.188 61.2148C219.406 62.8424 218.28 64.112 216.809 65.0234C215.35 65.9349 213.671 66.3906 211.77 66.3906C208.905 66.3906 206.581 65.3945 204.797 63.4023C203.026 61.4102 202.141 58.7734 202.141 55.4922V55.2383ZM205.773 55.668C205.773 58.0117 206.314 59.8932 207.395 61.3125C208.488 62.7318 209.947 63.4414 211.77 63.4414C213.605 63.4414 215.064 62.7253 216.145 61.293C217.225 59.8477 217.766 57.8294 217.766 55.2383C217.766 52.9206 217.212 51.0456 216.105 49.6133C215.012 48.168 213.553 47.4453 211.73 47.4453C209.947 47.4453 208.508 48.1549 207.414 49.5742C206.32 50.9935 205.773 53.0247 205.773 55.668ZM229.328 44.8672L229.445 47.5234C231.06 45.4922 233.169 44.4766 235.773 44.4766C240.24 44.4766 242.492 46.9961 242.531 52.0352V66H238.918V52.0156C238.905 50.4922 238.553 49.3659 237.863 48.6367C237.186 47.9076 236.125 47.543 234.68 47.543C233.508 47.543 232.479 47.8555 231.594 48.4805C230.708 49.1055 230.018 49.9258 229.523 50.9414V66H225.91V44.8672H229.328Z" fill="white"/>
<defs>
<linearGradient id="paint0_linear" x1="23.6458" y1="17.9826" x2="62.3197" y2="57.0177" gradientUnits="userSpaceOnUse">
<stop stop-color="#387EB8"/>
<stop offset="1" stop-color="#366994"/>
</linearGradient>
<linearGradient id="paint1_linear" x1="49.2855" y1="44.9358" x2="90.8539" y2="84.9984" gradientUnits="userSpaceOnUse">
<stop stop-color="#FFE052"/>
<stop offset="1" stop-color="#FFC331"/>
</linearGradient>
</defs>
</svg>
