<svg width="309" height="108" viewBox="0 0 309 108" fill="none" xmlns="http://www.w3.org/2000/svg">
<rect x="0.5" y="0.5" width="308" height="107" fill="#2D2C2C" stroke="black"/>
<path d="M128.174 40.4062H134.326V57.9668C134.326 59.5957 133.945 61.0488 133.184 62.3262C132.434 63.6035 131.379 64.5938 130.02 65.2969C128.672 66 127.166 66.3516 125.502 66.3516C122.713 66.3516 120.545 65.6484 118.998 64.2422C117.451 62.8359 116.678 60.8438 116.678 58.2656H122.865C122.865 59.4375 123.064 60.2871 123.463 60.8145C123.873 61.3418 124.553 61.6055 125.502 61.6055C126.357 61.6055 127.014 61.2891 127.471 60.6562C127.939 60.0117 128.174 59.1152 128.174 57.9668V40.4062ZM148.67 66C148.459 65.6133 148.271 65.0449 148.107 64.2949C147.018 65.666 145.494 66.3516 143.537 66.3516C141.744 66.3516 140.221 65.8125 138.967 64.7344C137.713 63.6445 137.086 62.2793 137.086 60.6387C137.086 58.5762 137.848 57.0176 139.371 55.9629C140.895 54.9082 143.109 54.3809 146.016 54.3809H147.844V53.3789C147.844 51.6328 147.088 50.7598 145.576 50.7598C144.17 50.7598 143.467 51.4512 143.467 52.834H137.543C137.543 50.9941 138.322 49.5 139.881 48.3516C141.451 47.2031 143.449 46.6289 145.875 46.6289C148.301 46.6289 150.217 47.2207 151.623 48.4043C153.029 49.5879 153.75 51.2109 153.785 53.2734V61.6934C153.809 63.4395 154.078 64.7754 154.594 65.7012V66H148.67ZM144.961 62.1328C145.699 62.1328 146.309 61.9746 146.789 61.6582C147.281 61.3418 147.633 60.9844 147.844 60.5859V57.5449H146.121C144.059 57.5449 143.027 58.4707 143.027 60.3223C143.027 60.8613 143.209 61.3008 143.572 61.6406C143.936 61.9688 144.398 62.1328 144.961 62.1328ZM164.385 58.9512L167.391 46.9805H173.631L167.426 66H161.379L155.174 46.9805H161.432L164.385 58.9512ZM185.83 66C185.619 65.6133 185.432 65.0449 185.268 64.2949C184.178 65.666 182.654 66.3516 180.697 66.3516C178.904 66.3516 177.381 65.8125 176.127 64.7344C174.873 63.6445 174.246 62.2793 174.246 60.6387C174.246 58.5762 175.008 57.0176 176.531 55.9629C178.055 54.9082 180.27 54.3809 183.176 54.3809H185.004V53.3789C185.004 51.6328 184.248 50.7598 182.736 50.7598C181.33 50.7598 180.627 51.4512 180.627 52.834H174.703C174.703 50.9941 175.482 49.5 177.041 48.3516C178.611 47.2031 180.609 46.6289 183.035 46.6289C185.461 46.6289 187.377 47.2207 188.783 48.4043C190.189 49.5879 190.91 51.2109 190.945 53.2734V61.6934C190.969 63.4395 191.238 64.7754 191.754 65.7012V66H185.83ZM182.121 62.1328C182.859 62.1328 183.469 61.9746 183.949 61.6582C184.441 61.3418 184.793 60.9844 185.004 60.5859V57.5449H183.281C181.219 57.5449 180.188 58.4707 180.188 60.3223C180.188 60.8613 180.369 61.3008 180.732 61.6406C181.096 61.9688 181.559 62.1328 182.121 62.1328ZM204.199 60.6562C204.199 60.1523 203.936 59.748 203.408 59.4434C202.881 59.1387 201.879 58.8223 200.402 58.4941C198.926 58.166 197.707 57.7383 196.746 57.2109C195.785 56.6719 195.053 56.0215 194.549 55.2598C194.045 54.498 193.793 53.625 193.793 52.6406C193.793 50.8945 194.514 49.459 195.955 48.334C197.396 47.1973 199.283 46.6289 201.615 46.6289C204.123 46.6289 206.139 47.1973 207.662 48.334C209.186 49.4707 209.947 50.9648 209.947 52.8164H204.006C204.006 51.293 203.203 50.5312 201.598 50.5312C200.977 50.5312 200.455 50.707 200.033 51.0586C199.611 51.3984 199.4 51.8262 199.4 52.3418C199.4 52.8691 199.658 53.2969 200.174 53.625C200.689 53.9531 201.51 54.2227 202.635 54.4336C203.771 54.6445 204.768 54.8965 205.623 55.1895C208.482 56.1738 209.912 57.9375 209.912 60.4805C209.912 62.2148 209.139 63.627 207.592 64.7168C206.057 65.8066 204.064 66.3516 201.615 66.3516C199.986 66.3516 198.533 66.0586 197.256 65.4727C195.979 64.8867 194.982 64.0898 194.268 63.082C193.553 62.0742 193.195 61.0137 193.195 59.9004H198.732C198.756 60.7793 199.049 61.4238 199.611 61.834C200.174 62.2324 200.895 62.4316 201.773 62.4316C202.582 62.4316 203.186 62.2676 203.584 61.9395C203.994 61.6113 204.199 61.1836 204.199 60.6562ZM220.74 61.7812C221.572 61.7812 222.217 61.5586 222.674 61.1133C223.131 60.6562 223.354 60.0234 223.342 59.2148H228.896C228.896 61.3008 228.146 63.0117 226.646 64.3477C225.158 65.6836 223.236 66.3516 220.881 66.3516C218.115 66.3516 215.936 65.4844 214.342 63.75C212.748 62.0156 211.951 59.6133 211.951 56.543V56.2969C211.951 54.375 212.303 52.6816 213.006 51.2168C213.721 49.7402 214.746 48.6094 216.082 47.8242C217.418 47.0273 219 46.6289 220.828 46.6289C223.301 46.6289 225.264 47.3145 226.717 48.6855C228.17 50.0566 228.896 51.9141 228.896 54.2578H223.342C223.342 53.2734 223.102 52.5176 222.621 51.9902C222.141 51.4629 221.496 51.1992 220.688 51.1992C219.152 51.1992 218.256 52.1777 217.998 54.1348C217.916 54.7559 217.875 55.6113 217.875 56.7012C217.875 58.6113 218.104 59.9355 218.561 60.6738C219.018 61.4121 219.744 61.7812 220.74 61.7812ZM242.906 52.3418L240.955 52.2012C239.092 52.2012 237.896 52.7871 237.369 53.959V66H231.445V46.9805H237L237.193 49.4238C238.189 47.5605 239.578 46.6289 241.359 46.6289C241.992 46.6289 242.543 46.6992 243.012 46.8398L242.906 52.3418ZM251.291 66H245.35V46.9805H251.291V66ZM244.998 42.0762C244.998 41.2324 245.303 40.541 245.912 40.002C246.521 39.4629 247.312 39.1934 248.285 39.1934C249.258 39.1934 250.049 39.4629 250.658 40.002C251.268 40.541 251.572 41.2324 251.572 42.0762C251.572 42.9199 251.268 43.6113 250.658 44.1504C250.049 44.6895 249.258 44.959 248.285 44.959C247.312 44.959 246.521 44.6895 245.912 44.1504C245.303 43.6113 244.998 42.9199 244.998 42.0762ZM272.613 56.6309C272.613 59.584 271.945 61.9453 270.609 63.7148C269.285 65.4727 267.492 66.3516 265.23 66.3516C263.484 66.3516 262.049 65.7129 260.924 64.4355V73.3125H255V46.9805H260.537L260.713 48.7383C261.85 47.332 263.344 46.6289 265.195 46.6289C267.539 46.6289 269.361 47.4961 270.662 49.2305C271.963 50.9531 272.613 53.3262 272.613 56.3496V56.6309ZM266.689 56.2617C266.689 52.8867 265.705 51.1992 263.736 51.1992C262.33 51.1992 261.393 51.7031 260.924 52.7109V60.1992C261.439 61.2539 262.389 61.7812 263.771 61.7812C265.658 61.7812 266.631 60.1523 266.689 56.8945V56.2617ZM282.141 42.252V46.9805H285.27V51.0938H282.141V59.7949C282.141 60.5098 282.27 61.0078 282.527 61.2891C282.785 61.5703 283.295 61.7109 284.057 61.7109C284.643 61.7109 285.135 61.6758 285.533 61.6055V65.8418C284.467 66.1816 283.354 66.3516 282.193 66.3516C280.154 66.3516 278.648 65.8711 277.676 64.9102C276.703 63.9492 276.217 62.4902 276.217 60.5332V51.0938H273.791V46.9805H276.217V42.252H282.141Z" fill="white"/>
<rect width="80" height="80" transform="translate(13 14)" fill="white"/>
<path d="M13 14H93V94H13V14Z" fill="#F7DF1E"/>
<path d="M34.035 80.8538L40.1569 77.1488C41.3381 79.2428 42.4125 81.0147 44.9897 81.0147C47.46 81.0147 49.0178 80.0484 49.0178 76.2897V50.7278H56.5356V76.3959C56.5356 84.1825 51.9712 87.7269 45.3119 87.7269C39.2978 87.7269 35.8069 84.6122 34.0347 80.8531L34.035 80.8538ZM60.6191 80.0481L66.7403 76.5041C68.3519 79.1356 70.4463 81.0687 74.1513 81.0687C77.2666 81.0687 79.2528 79.5112 79.2528 77.3631C79.2528 74.7856 77.2122 73.8725 73.7753 72.3694L71.8962 71.5631C66.4722 69.2547 62.8744 66.3547 62.8744 60.2328C62.8744 54.5941 67.1703 50.2978 73.8831 50.2978C78.6625 50.2978 82.0994 51.9628 84.5694 56.3125L78.7156 60.0719C77.4266 57.7628 76.0309 56.85 73.8828 56.85C71.6809 56.85 70.2847 58.2462 70.2847 60.0719C70.2847 62.3272 71.6809 63.2406 74.9028 64.6369L76.7822 65.4422C83.1728 68.1813 86.7706 70.9734 86.7706 77.2559C86.7706 84.0228 81.4544 87.7278 74.3122 87.7278C67.3312 87.7278 62.8203 84.3984 60.6187 80.0484" fill="black"/>
</svg>
