<svg width="309" height="108" viewBox="0 0 309 108" fill="none" xmlns="http://www.w3.org/2000/svg">
<rect x="0.5" y="0.5" width="308" height="107" fill="#2D2C2C" stroke="black"/>
<path fill-rule="evenodd" clip-rule="evenodd" d="M103.143 73.3791L102.785 74.3159C96.6831 86.3092 85.8703 93.667 70.4479 93.9915C63.2382 94.1417 56.3688 92.2743 51.8812 90.2443C42.197 85.8525 34.0511 77.708 29.6027 69.0062C23.2214 56.532 22.0706 39.1795 35.3391 26.2189C35.544 26.2189 33.7296 29.0293 33.9344 29.0293L33.5692 30.2286C24.0079 60.4419 53.4658 86.3344 82.1016 83.3729C88.9835 82.6609 97.7591 78.857 103.143 73.3791Z" fill="#21609B"/>
<path fill-rule="evenodd" clip-rule="evenodd" d="M85.8142 60.8861C93.0186 60.9355 100.544 57.5371 105 52.7659C101.101 62.7543 89.8128 69.1743 74.6754 67.1326C62.0001 65.4208 49.926 52.5474 48.6825 39.6479C47.7731 30.2601 51.0145 24.6573 56.3563 17.8605C54.5 21.4153 53.8061 24.1565 53.6333 25.9051C51.6042 46.2128 69.7059 60.7791 85.8142 60.8861" fill="#21609B"/>
<path fill-rule="evenodd" clip-rule="evenodd" d="M104.276 35.6625C103.156 38.2553 96.708 43.1515 93.8603 43.7637C82.5844 46.1885 75.3631 40.7915 71.5801 34.6501C71.018 33.7331 69.9785 31.2284 69.7923 30.591C68.3253 25.5563 68.9996 17.9414 73.3758 14C72.0575 17.7481 71.8651 22.1013 72.559 24.9315C72.9794 26.6424 74.2603 29.6299 75.5421 31.5089C77.8741 34.9315 79.3536 35.7632 82.3492 37.581C83.6987 38.3991 85.1461 39.0555 85.7715 39.2353C88.612 40.0795 94.6095 42.3028 104.277 35.6625" fill="#21609B"/>
<path d="M154.295 40.4062H160.447V57.9668C160.447 59.5957 160.066 61.0488 159.305 62.3262C158.555 63.6035 157.5 64.5938 156.141 65.2969C154.793 66 153.287 66.3516 151.623 66.3516C148.834 66.3516 146.666 65.6484 145.119 64.2422C143.572 62.8359 142.799 60.8438 142.799 58.2656H148.986C148.986 59.4375 149.186 60.2871 149.584 60.8145C149.994 61.3418 150.674 61.6055 151.623 61.6055C152.479 61.6055 153.135 61.2891 153.592 60.6562C154.061 60.0117 154.295 59.1152 154.295 57.9668V40.4062ZM186.059 53.7305C186.059 56.0977 185.666 58.166 184.881 59.9355C184.096 61.6934 183.012 63.1055 181.629 64.1719L185.76 67.4414L181.945 70.6758L176.443 66.2461C175.928 66.3164 175.412 66.3516 174.896 66.3516C172.717 66.3516 170.783 65.8477 169.096 64.8398C167.408 63.832 166.09 62.3906 165.141 60.5156C164.203 58.6406 163.717 56.4844 163.682 54.0469V52.6934C163.682 50.1738 164.139 47.959 165.053 46.0488C165.979 44.1387 167.291 42.6621 168.99 41.6191C170.701 40.5762 172.658 40.0547 174.861 40.0547C177.029 40.0547 178.963 40.5703 180.662 41.6016C182.361 42.6328 183.68 44.1035 184.617 46.0137C185.566 47.9121 186.047 50.0918 186.059 52.5527V53.7305ZM179.783 52.6582C179.783 50.1152 179.355 48.1875 178.5 46.875C177.656 45.5508 176.443 44.8887 174.861 44.8887C173.232 44.8887 172.008 45.5391 171.188 46.8398C170.367 48.1406 169.951 50.0449 169.939 52.5527V53.7305C169.939 56.25 170.355 58.1836 171.188 59.5312C172.02 60.8672 173.256 61.5352 174.896 61.5352C176.467 61.5352 177.668 60.873 178.5 59.5488C179.344 58.2246 179.771 56.3203 179.783 53.8359V52.6582ZM200.262 63.9434C199.008 65.5488 197.314 66.3516 195.182 66.3516C193.096 66.3516 191.514 65.748 190.436 64.541C189.369 63.3223 188.836 61.5762 188.836 59.3027V46.9805H194.76V59.3379C194.76 60.9668 195.551 61.7812 197.133 61.7812C198.492 61.7812 199.459 61.2949 200.033 60.3223V46.9805H205.992V66H200.438L200.262 63.9434ZM218.455 66.3516C215.537 66.3516 213.176 65.4844 211.371 63.75C209.566 62.0039 208.664 59.7363 208.664 56.9473V56.4551C208.664 54.5098 209.021 52.793 209.736 51.3047C210.463 49.8164 211.518 48.668 212.9 47.8594C214.283 47.0391 215.924 46.6289 217.822 46.6289C220.494 46.6289 222.604 47.4609 224.15 49.125C225.697 50.7773 226.471 53.0859 226.471 56.0508V58.3535H214.693C214.904 59.4199 215.367 60.2578 216.082 60.8672C216.797 61.4766 217.723 61.7812 218.859 61.7812C220.734 61.7812 222.199 61.125 223.254 59.8125L225.961 63.0117C225.223 64.0312 224.174 64.8457 222.814 65.4551C221.467 66.0527 220.014 66.3516 218.455 66.3516ZM217.787 51.1992C216.053 51.1992 215.021 52.3477 214.693 54.6445H220.67V54.1875C220.693 53.2383 220.453 52.5059 219.949 51.9902C219.445 51.4629 218.725 51.1992 217.787 51.1992ZM240.375 52.3418L238.424 52.2012C236.561 52.2012 235.365 52.7871 234.838 53.959V66H228.914V46.9805H234.469L234.662 49.4238C235.658 47.5605 237.047 46.6289 238.828 46.6289C239.461 46.6289 240.012 46.6992 240.48 46.8398L240.375 52.3418ZM250.43 57.7031L253.594 46.9805H259.939L252.188 69.1816L251.854 69.9902C250.752 72.4512 248.807 73.6816 246.018 73.6816C245.244 73.6816 244.43 73.5645 243.574 73.3301V69.0938H244.348C245.18 69.0938 245.812 68.9707 246.246 68.7246C246.691 68.4902 247.02 68.0625 247.23 67.4414L247.705 66.1758L241.096 46.9805H247.424L250.43 57.7031Z" fill="white"/>
</svg>
