<svg width="322" height="108" viewBox="0 0 322 108" fill="none" xmlns="http://www.w3.org/2000/svg">
<rect x="0.5" y="0.5" width="308" height="107" fill="#2D2C2C" stroke="black"/>
<path d="M131.268 42.4062L136.98 60.2129L142.676 42.4062H150.797V68H144.609V62.0234L145.207 49.7891L139.02 68H134.941L128.736 49.7715L129.334 62.0234V68H123.164V42.4062H131.268ZM153.715 58.3145C153.715 56.416 154.084 54.7285 154.822 53.252C155.561 51.7637 156.621 50.6211 158.004 49.8242C159.387 49.0273 161.01 48.6289 162.873 48.6289C165.721 48.6289 167.965 49.5137 169.605 51.2832C171.246 53.041 172.066 55.4375 172.066 58.4727V58.6836C172.066 61.6484 171.24 64.0039 169.588 65.75C167.947 67.4844 165.721 68.3516 162.908 68.3516C160.201 68.3516 158.027 67.543 156.387 65.9258C154.746 64.2969 153.861 62.0938 153.732 59.3164L153.715 58.3145ZM159.639 58.6836C159.639 60.4414 159.914 61.7305 160.465 62.5508C161.016 63.3711 161.83 63.7812 162.908 63.7812C165.018 63.7812 166.096 62.1582 166.143 58.9121V58.3145C166.143 54.9043 165.053 53.1992 162.873 53.1992C160.893 53.1992 159.82 54.6699 159.656 57.6113L159.639 58.6836ZM180.117 48.9805L180.311 51.2129C181.623 49.4902 183.434 48.6289 185.742 48.6289C187.723 48.6289 189.199 49.2207 190.172 50.4043C191.156 51.5879 191.666 53.3691 191.701 55.748V68H185.76V55.9941C185.76 55.0332 185.566 54.3301 185.18 53.8848C184.793 53.4277 184.09 53.1992 183.07 53.1992C181.91 53.1992 181.049 53.6562 180.486 54.5703V68H174.562V48.9805H180.117ZM194.303 58.3496C194.303 56.4277 194.619 54.7285 195.252 53.252C195.885 51.7754 196.793 50.6387 197.977 49.8418C199.16 49.0332 200.537 48.6289 202.107 48.6289C204.088 48.6289 205.635 49.2969 206.748 50.6328L206.959 48.9805H212.338V67.2793C212.338 68.9551 211.945 70.4082 211.16 71.6387C210.387 72.8809 209.262 73.8301 207.785 74.4863C206.309 75.1543 204.598 75.4883 202.652 75.4883C201.258 75.4883 199.904 75.2246 198.592 74.6973C197.291 74.1699 196.295 73.4844 195.604 72.6406L198.082 69.1602C199.184 70.4609 200.637 71.1113 202.441 71.1113C205.066 71.1113 206.379 69.7637 206.379 67.0684V66.4707C205.242 67.7246 203.807 68.3516 202.072 68.3516C199.752 68.3516 197.877 67.4668 196.447 65.6973C195.018 63.916 194.303 61.5371 194.303 58.5605V58.3496ZM200.244 58.7188C200.244 60.2773 200.537 61.5137 201.123 62.4277C201.709 63.3301 202.529 63.7812 203.584 63.7812C204.861 63.7812 205.793 63.3535 206.379 62.498V54.5C205.805 53.6328 204.885 53.1992 203.619 53.1992C202.564 53.1992 201.738 53.6738 201.141 54.623C200.543 55.5605 200.244 56.9258 200.244 58.7188ZM214.957 58.3145C214.957 56.416 215.326 54.7285 216.064 53.252C216.803 51.7637 217.863 50.6211 219.246 49.8242C220.629 49.0273 222.252 48.6289 224.115 48.6289C226.963 48.6289 229.207 49.5137 230.848 51.2832C232.488 53.041 233.309 55.4375 233.309 58.4727V58.6836C233.309 61.6484 232.482 64.0039 230.83 65.75C229.189 67.4844 226.963 68.3516 224.15 68.3516C221.443 68.3516 219.27 67.543 217.629 65.9258C215.988 64.2969 215.104 62.0938 214.975 59.3164L214.957 58.3145ZM220.881 58.6836C220.881 60.4414 221.156 61.7305 221.707 62.5508C222.258 63.3711 223.072 63.7812 224.15 63.7812C226.26 63.7812 227.338 62.1582 227.385 58.9121V58.3145C227.385 54.9043 226.295 53.1992 224.115 53.1992C222.135 53.1992 221.062 54.6699 220.898 57.6113L220.881 58.6836ZM236.191 68V42.4062H244.436C246.697 42.4062 248.73 42.9219 250.535 43.9531C252.34 44.9727 253.746 46.4199 254.754 48.2949C255.773 50.1582 256.289 52.25 256.301 54.5703V55.748C256.301 58.0918 255.803 60.1953 254.807 62.0586C253.822 63.9102 252.428 65.3633 250.623 66.418C248.83 67.4609 246.826 67.9883 244.611 68H236.191ZM242.361 47.1699V63.2539H244.506C246.275 63.2539 247.635 62.627 248.584 61.373C249.533 60.1074 250.008 58.2324 250.008 55.748V54.6406C250.008 52.168 249.533 50.3047 248.584 49.0508C247.635 47.7969 246.252 47.1699 244.436 47.1699H242.361ZM259.465 68V42.4062H268.658C271.951 42.4062 274.453 43.0098 276.164 44.2168C277.887 45.4238 278.748 47.1758 278.748 49.4727C278.748 50.7969 278.443 51.9277 277.834 52.8652C277.225 53.8027 276.328 54.4941 275.145 54.9395C276.48 55.291 277.506 55.9473 278.221 56.9082C278.936 57.8691 279.293 59.041 279.293 60.4238C279.293 62.9316 278.496 64.8184 276.902 66.084C275.32 67.3379 272.971 67.9766 269.854 68H259.465ZM265.635 57.1191V63.2539H269.678C270.791 63.2539 271.646 63.002 272.244 62.498C272.842 61.9824 273.141 61.2617 273.141 60.3359C273.141 58.2031 272.08 57.1309 269.959 57.1191H265.635ZM265.635 53.0762H268.852C270.199 53.0645 271.16 52.8184 271.734 52.3379C272.309 51.8574 272.596 51.1484 272.596 50.2109C272.596 49.1328 272.285 48.3594 271.664 47.8906C271.043 47.4102 270.041 47.1699 268.658 47.1699H265.635V53.0762Z" fill="white"/>
<g clip-path="url(#clip0)">
<path fill-rule="evenodd" clip-rule="evenodd" d="M45.3335 88.2038L43.1391 87.5751C43.1391 87.5751 43.4071 78.1977 39.3918 77.5248C36.7159 74.922 39.8211 -32.855 49.4561 77.1654C49.4561 77.1654 46.1369 78.5561 45.5481 80.9347C44.9054 83.2681 45.3335 88.2038 45.3335 88.2038V88.2038Z" fill="#A6A385"/>
<path fill-rule="evenodd" clip-rule="evenodd" d="M46.5116 79.14C46.5116 79.14 65.7295 68.5505 61.2322 46.5191C56.8967 30.5013 46.6723 25.2515 45.5481 23.2322C44.3172 21.7964 43.139 19.284 43.139 19.284L43.9425 63.839C43.9425 63.8842 42.2829 77.4796 46.5122 79.1405" fill="#499D4A"/>
<path fill-rule="evenodd" clip-rule="evenodd" d="M42.0154 79.723C42.0154 79.723 23.975 69.4029 25.0458 51.2311C26.0627 33.0589 38.803 24.1298 41.2654 22.5145C42.8716 21.0787 42.925 20.54 43.0323 19.1041C44.1565 21.1234 43.9425 49.3018 44.1026 52.6217C44.584 65.4095 43.2464 77.3006 42.0154 79.723Z" fill="#58AA50"/>
</g>
<defs>
<clipPath id="clip0">
<rect width="297" height="71" fill="white" transform="translate(25 19)"/>
</clipPath>
</defs>
</svg>
