<svg width="309" height="108" viewBox="0 0 309 108" fill="none" xmlns="http://www.w3.org/2000/svg">
<rect x="0.5" y="0.5" width="308" height="107" fill="#2D2C2C" stroke="black"/>
<path d="M160.467 42.4062L166.18 60.2129L171.875 42.4062H179.996V68H173.809V62.0234L174.406 49.7891L168.219 68H164.141L157.936 49.7715L158.533 62.0234V68H152.363V42.4062H160.467ZM191.264 59.7031L194.428 48.9805H200.773L193.021 71.1816L192.688 71.9902C191.586 74.4512 189.641 75.6816 186.852 75.6816C186.078 75.6816 185.264 75.5645 184.408 75.3301V71.0938H185.182C186.014 71.0938 186.646 70.9707 187.08 70.7246C187.525 70.4902 187.854 70.0625 188.064 69.4414L188.539 68.1758L181.93 48.9805H188.258L191.264 59.7031ZM215.803 61.1973C215.803 60.2949 215.48 59.5918 214.836 59.0879C214.203 58.584 213.084 58.0625 211.479 57.5234C209.873 56.9844 208.561 56.4629 207.541 55.959C204.225 54.3301 202.566 52.0918 202.566 49.2441C202.566 47.8262 202.977 46.5781 203.797 45.5C204.629 44.4102 205.801 43.5664 207.312 42.9688C208.824 42.3594 210.523 42.0547 212.41 42.0547C214.25 42.0547 215.896 42.3828 217.35 43.0391C218.814 43.6953 219.951 44.6328 220.76 45.8516C221.568 47.0586 221.973 48.4414 221.973 50H215.82C215.82 48.957 215.498 48.1484 214.854 47.5742C214.221 47 213.359 46.7129 212.27 46.7129C211.168 46.7129 210.295 46.959 209.65 47.4512C209.018 47.9316 208.701 48.5469 208.701 49.2969C208.701 49.9531 209.053 50.5508 209.756 51.0898C210.459 51.6172 211.695 52.168 213.465 52.7422C215.234 53.3047 216.688 53.9141 217.824 54.5703C220.59 56.1641 221.973 58.3613 221.973 61.1621C221.973 63.4004 221.129 65.1582 219.441 66.4355C217.754 67.7129 215.439 68.3516 212.498 68.3516C210.424 68.3516 208.543 67.9824 206.855 67.2441C205.18 66.4941 203.914 65.4746 203.059 64.1855C202.215 62.8848 201.793 61.3906 201.793 59.7031H207.98C207.98 61.0742 208.332 62.0879 209.035 62.7441C209.75 63.3887 210.904 63.7109 212.498 63.7109C213.518 63.7109 214.32 63.4941 214.906 63.0605C215.504 62.6152 215.803 61.9941 215.803 61.1973ZM246.846 55.7305C246.846 58.0977 246.453 60.166 245.668 61.9355C244.883 63.6934 243.799 65.1055 242.416 66.1719L246.547 69.4414L242.732 72.6758L237.23 68.2461C236.715 68.3164 236.199 68.3516 235.684 68.3516C233.504 68.3516 231.57 67.8477 229.883 66.8398C228.195 65.832 226.877 64.3906 225.928 62.5156C224.99 60.6406 224.504 58.4844 224.469 56.0469V54.6934C224.469 52.1738 224.926 49.959 225.84 48.0488C226.766 46.1387 228.078 44.6621 229.777 43.6191C231.488 42.5762 233.445 42.0547 235.648 42.0547C237.816 42.0547 239.75 42.5703 241.449 43.6016C243.148 44.6328 244.467 46.1035 245.404 48.0137C246.354 49.9121 246.834 52.0918 246.846 54.5527V55.7305ZM240.57 54.6582C240.57 52.1152 240.143 50.1875 239.287 48.875C238.443 47.5508 237.23 46.8887 235.648 46.8887C234.02 46.8887 232.795 47.5391 231.975 48.8398C231.154 50.1406 230.738 52.0449 230.727 54.5527V55.7305C230.727 58.25 231.143 60.1836 231.975 61.5312C232.807 62.8672 234.043 63.5352 235.684 63.5352C237.254 63.5352 238.455 62.873 239.287 61.5488C240.131 60.2246 240.559 58.3203 240.57 55.8359V54.6582ZM256.162 63.2539H266.902V68H249.992V42.4062H256.162V63.2539Z" fill="white"/>
<path d="M49.5493 75.5316H47.1128C47.0266 70.917 46.7893 66.5788 46.4013 62.5137H46.3797L42.67 75.5316H40.8149L37.1274 62.5137H37.1062C36.8326 66.4166 36.6603 70.7559 36.5887 75.5316H34.3678C34.511 69.7242 34.8707 64.2798 35.4456 59.1977H38.4655L41.9802 71.1997H42.0019L45.5383 59.1977H48.4278C49.0606 65.1504 49.4344 70.5953 49.5493 75.5316V75.5316ZM60.1162 63.4805C59.1242 69.5208 57.8153 73.9097 56.1909 76.6494C54.9253 78.7583 53.5387 79.8138 52.0287 79.8138C51.6262 79.8138 51.1294 79.6775 50.5409 79.407V77.9505C50.8286 77.997 51.1662 78.0234 51.5541 78.0234C52.2594 78.0234 52.8263 77.8058 53.2585 77.3694C53.7755 76.838 54.034 76.2405 54.034 75.5796C54.034 75.1264 53.8325 74.1998 53.4304 72.7967L50.7565 63.4799H53.1503L55.0694 70.4479C55.5006 72.0301 55.6805 73.1348 55.6085 73.7639C56.658 70.6191 57.391 67.19 57.8087 63.4794H60.1162V63.4805V63.4805Z" fill="#5D87A1"/>
<path d="M92.5495 75.5316H85.6282V59.1977H87.9565V73.521H92.5495V75.5316ZM83.8165 75.9262L81.1403 74.4444C81.3776 74.2257 81.6045 73.989 81.8088 73.7148C82.9464 72.2156 83.5137 69.9984 83.5137 67.0617C83.5137 61.6579 81.6238 58.9547 77.8426 58.9547C75.9884 58.9547 74.542 59.6404 73.5076 61.0124C72.371 62.5127 71.8037 64.7219 71.8037 67.6428C71.8037 70.514 72.3065 72.6203 73.3127 73.9563C74.2332 75.1666 75.6207 75.7725 77.4762 75.7725C78.1684 75.7725 78.8035 75.6774 79.3822 75.4856L82.8663 77.7615L83.8165 75.9262ZM75.147 72.2631C74.5576 71.1992 74.2628 69.4907 74.2628 67.1351C74.2628 63.0225 75.3763 60.9638 77.6057 60.9638C78.771 60.9638 79.6251 61.4561 80.1713 62.4387C80.7598 63.5043 81.056 65.1974 81.056 67.5202C81.056 71.6667 79.9415 73.7402 77.7135 73.7402C76.5478 73.7407 75.6937 73.25 75.147 72.2631V72.2631ZM70.789 71.0042C70.789 72.3894 70.3361 73.5257 69.4311 74.4159C68.5253 75.3023 67.3105 75.7466 65.7883 75.7466C64.3645 75.7466 62.984 75.2363 61.6478 74.2209L62.2736 72.8184C63.4233 73.4644 64.4643 73.7856 65.3989 73.7856C66.2761 73.7856 66.9616 73.5675 67.4588 73.1348C67.9556 72.7006 68.2517 72.0914 68.2517 71.3212C68.2517 70.3508 67.6486 69.5214 66.5421 68.8267C65.5218 68.198 63.4812 66.8837 63.4812 66.8837C62.3752 65.9792 61.8216 65.0083 61.8216 63.4086C61.8216 62.0848 62.2345 61.0161 63.0608 60.203C63.888 59.3868 64.9554 58.9801 66.2639 58.9801C67.6151 58.9801 68.8435 59.3863 69.95 60.1904L69.3888 61.5935C68.4424 61.1423 67.5083 60.9167 66.5868 60.9167C65.8406 60.9167 65.2643 61.118 64.8636 61.5222C64.4596 61.9247 64.2106 62.4398 64.2106 63.0716C64.2106 64.0373 64.8264 64.8773 65.963 65.5857C66.9969 66.2154 69.0884 67.5525 69.0884 67.5525C70.2226 68.4553 70.789 69.4173 70.789 71.0042" fill="#F8981D"/>
<path d="M95.4724 53.7269C94.0646 53.6867 92.9746 53.8457 92.0598 54.28C91.7957 54.3983 91.3757 54.3983 91.339 54.7729C91.4816 54.9314 91.4981 55.187 91.6219 55.4057C91.8329 55.8004 92.2006 56.3313 92.5363 56.6081C92.905 56.9251 93.275 57.2389 93.663 57.5152C94.3471 57.9901 95.1226 58.2664 95.7893 58.7397C96.1777 59.0149 96.5638 59.371 96.9527 59.6674C97.1439 59.8253 97.2663 60.0815 97.5144 60.1803V60.1201C97.3901 59.9426 97.3548 59.6859 97.2329 59.4883L96.7046 58.9167C96.1942 58.1475 95.56 57.4761 94.8759 56.9245C94.3127 56.4892 93.0811 55.8976 92.8527 55.1696L92.8169 55.1295C93.2039 55.0888 93.663 54.9314 94.0307 54.8104C94.6291 54.6334 95.1748 54.6736 95.7888 54.4966C96.0713 54.4173 96.3515 54.318 96.6349 54.2203V54.0423C96.3166 53.6867 96.0897 53.2144 95.7549 52.8785C94.8594 52.0105 93.8725 51.1616 92.8527 50.451C92.3065 50.0553 91.6041 49.8007 91.0226 49.4642C90.8131 49.3453 90.4599 49.2867 90.3366 49.0891C90.0211 48.6549 89.8436 48.0833 89.6148 47.5693C89.1063 46.4847 88.6124 45.2813 88.1736 44.1344C87.8562 43.3652 87.6632 42.5971 87.2762 41.8855C85.4635 38.5309 83.4949 36.4992 80.4693 34.5049C79.8191 34.0897 79.0455 33.9127 78.2192 33.6951L76.8995 33.6169C76.6179 33.4785 76.3359 33.1029 76.0901 32.9254C75.0863 32.2154 72.5019 30.6765 71.7636 32.7083C71.2881 33.9925 72.4671 35.2551 72.872 35.9065C73.171 36.3587 73.5585 36.8732 73.7675 37.3867C73.8913 37.7222 73.9262 38.0782 74.05 38.4327C74.3316 39.3012 74.5948 40.2674 74.9648 41.0778C75.1579 41.4909 75.3683 41.9251 75.6151 42.2992C75.7563 42.5179 76.0021 42.6145 76.0558 42.9711C75.8104 43.3642 75.7911 43.9574 75.6504 44.4508C75.0176 46.6807 75.2648 49.4431 76.1617 51.0818C76.4423 51.5752 77.1118 52.6613 78.0074 52.2451C78.8002 51.8901 78.6246 50.7653 78.8525 49.7791C78.9048 49.5408 78.8704 49.3844 78.9759 49.2281V49.2666C79.2212 49.8187 79.4688 50.3506 79.6962 50.9043C80.2419 51.8705 81.1921 52.8774 81.9835 53.5467C82.4049 53.9039 82.7387 54.5145 83.2666 54.7327V54.6736H83.2317C83.1248 54.4966 82.9685 54.4173 82.8282 54.28C82.5109 53.9245 82.1596 53.4902 81.9134 53.0961C81.1761 51.9904 80.5235 50.7664 79.9444 49.5033C79.6609 48.8905 79.4166 48.2206 79.1882 47.6089C79.0818 47.3727 79.0818 47.0167 78.9052 46.8978C78.6406 47.3315 78.255 47.7071 78.062 48.2386C77.7272 49.0886 77.6924 50.1341 77.5681 51.2213L77.4989 51.2593C76.9386 51.1013 76.7436 50.451 76.5308 49.899C76.004 48.4969 75.9154 46.2465 76.3726 44.6289C76.495 44.2152 77.0247 42.9125 76.8133 42.5184C76.7074 42.1407 76.3552 41.9257 76.1622 41.6282C75.9352 41.2542 75.6866 40.7809 75.5284 40.3657C75.1066 39.261 74.8942 38.037 74.4399 36.9329C74.2275 36.4184 73.8588 35.8859 73.5603 35.412C73.2251 34.8795 72.8564 34.5044 72.5914 33.8731C72.5038 33.656 72.3809 33.301 72.5217 33.0648C72.5561 32.9064 72.6276 32.8472 72.7679 32.8076C72.9958 32.5915 73.647 32.8662 73.8753 32.9851C74.5274 33.2809 75.0727 33.5572 75.6169 33.9714C75.8632 34.1695 76.1273 34.5446 76.4432 34.6433H76.8133C77.375 34.7807 78.0083 34.6814 78.537 34.8599C79.4688 35.1959 80.313 35.6888 81.0701 36.2208C83.3739 37.86 85.2737 40.1892 86.5563 42.9711C86.7667 43.4244 86.8562 43.8396 87.0483 44.3124C87.4188 45.2802 87.8769 46.2671 88.2447 47.2143C88.6143 48.1414 88.9664 49.0881 89.4942 49.8583C89.7574 50.2725 90.8149 50.4896 91.2891 50.7067C91.6398 50.8837 92.186 51.0411 92.5024 51.2582C93.1008 51.6719 93.6969 52.1468 94.2595 52.6016C94.5397 52.8383 95.4201 53.3317 95.4724 53.7269V53.7269ZM77.5309 36.5768C77.288 36.574 77.046 36.6074 76.811 36.6762V36.7158H76.8449C76.9866 37.0312 77.2328 37.2499 77.4085 37.5251C77.5502 37.8415 77.6731 38.1553 77.812 38.4713L77.8459 38.4322C78.094 38.2351 78.2173 37.9192 78.2173 37.4453C78.1105 37.3059 78.094 37.1696 78.005 37.0312C77.9014 36.8336 77.6731 36.7353 77.5309 36.5768" fill="#5D87A1"/>
<path d="M97.1476 75.5289H97.512V73.5278H96.9654L96.5195 74.8934L96.035 73.5278H95.5086V75.5289H95.8528V74.0064H95.8721L96.3796 75.5289H96.6419L97.1476 74.0064V75.5289ZM94.212 75.5289H94.5976V73.867H95.1023V73.5273H93.6861V73.867H94.211L94.212 75.5289Z" fill="#F8981D"/>
</svg>
