<svg width="309" height="108" viewBox="0 0 309 108" fill="none" xmlns="http://www.w3.org/2000/svg">
<rect x="0.5" y="0.5" width="308" height="107" fill="#2D2C2C" stroke="black"/>
<path d="M186.41 68H180.275L171.205 52.0742V68H165.035V42.4062H171.205L180.258 58.332V42.4062H186.41V68ZM199.242 68.3516C196.324 68.3516 193.963 67.4844 192.158 65.75C190.354 64.0039 189.451 61.7363 189.451 58.9473V58.4551C189.451 56.5098 189.809 54.793 190.523 53.3047C191.25 51.8164 192.305 50.668 193.688 49.8594C195.07 49.0391 196.711 48.6289 198.609 48.6289C201.281 48.6289 203.391 49.4609 204.938 51.125C206.484 52.7773 207.258 55.0859 207.258 58.0508V60.3535H195.48C195.691 61.4199 196.154 62.2578 196.869 62.8672C197.584 63.4766 198.51 63.7812 199.646 63.7812C201.521 63.7812 202.986 63.125 204.041 61.8125L206.748 65.0117C206.01 66.0312 204.961 66.8457 203.602 67.4551C202.254 68.0527 200.801 68.3516 199.242 68.3516ZM198.574 53.1992C196.84 53.1992 195.809 54.3477 195.48 56.6445H201.457V56.1875C201.48 55.2383 201.24 54.5059 200.736 53.9902C200.232 53.4629 199.512 53.1992 198.574 53.1992ZM217.365 54.2188L220.125 48.9805H226.277L221.268 58.2441L226.523 68H220.336L217.348 62.375L214.412 68H208.189L213.463 58.2441L208.471 48.9805H214.693L217.365 54.2188ZM235.084 44.252V48.9805H238.213V53.0938H235.084V61.7949C235.084 62.5098 235.213 63.0078 235.471 63.2891C235.729 63.5703 236.238 63.7109 237 63.7109C237.586 63.7109 238.078 63.6758 238.477 63.6055V67.8418C237.41 68.1816 236.297 68.3516 235.137 68.3516C233.098 68.3516 231.592 67.8711 230.619 66.9102C229.646 65.9492 229.16 64.4902 229.16 62.5332V53.0938H226.734V48.9805H229.16V44.252H235.084Z" fill="white"/>
<path d="M44.955 34.8648H65.7022V36.8529H46.8573V51.8143H64.5783V53.8024H46.8573V70.2287H65.9182V72.2168H44.955V34.8648ZM67.5606 34.8648H69.7653L79.5337 51.2911L89.5181 34.8648L103.099 14L80.7873 53.0176L92.2844 72.2168H89.9933L79.5337 54.7441L69.0309 72.2168H66.783L78.3666 53.0176L67.5606 34.8648ZM93.106 36.8529V34.8648H116.748V36.8529H105.857V72.2159H103.954V36.8529H93.106ZM19 34.8648H21.3775L54.1581 94L40.6112 72.2168L20.9879 37.6897L20.9015 72.2168H19V34.8648ZM116.558 69.6285C116.168 69.6285 115.877 69.2656 115.877 68.797C115.877 68.3275 116.168 67.9647 116.557 67.9647C116.95 67.9647 117.237 68.3275 117.237 68.797C117.237 69.2656 116.951 69.6285 116.558 69.6285ZM118.426 67.4397H119.444C119.458 68.1044 119.861 68.5506 120.452 68.5506C121.114 68.5506 121.488 68.0713 121.488 67.1718V61.4771H122.524V67.1771C122.524 68.797 121.748 69.7297 120.461 69.7297C119.255 69.7297 118.426 68.8248 118.426 67.4397ZM123.879 67.368H124.906C124.994 68.1322 125.614 68.6178 126.507 68.6178C127.339 68.6178 127.95 68.0982 127.95 67.3841C127.95 66.7704 127.562 66.4013 126.678 66.1504L125.817 65.8995C124.611 65.5591 124.06 64.8548 124.06 63.6713C124.06 62.236 125.031 61.2809 126.488 61.2809C127.843 61.2809 128.834 62.236 128.893 63.5925H127.885C127.788 62.8506 127.252 62.3865 126.474 62.3865C125.655 62.3865 125.11 62.8614 125.11 63.5871C125.11 64.1623 125.461 64.492 126.331 64.7375L127.066 64.9552C128.435 65.3404 129 66.0106 129 67.2219C129 68.763 128.009 69.7297 126.428 69.7297C124.948 69.7297 123.953 68.8087 123.879 67.368Z" fill="#FFFBFB"/>
</svg>
