<svg width="309" height="108" viewBox="0 0 309 108" fill="none" xmlns="http://www.w3.org/2000/svg">
<rect x="0.5" y="0.5" width="308" height="107" fill="#2D2C2C" stroke="black"/>
<path d="M160.236 68H154.102L145.031 52.0742V68H138.861V42.4062H145.031L154.084 58.332V42.4062H160.236V68ZM163.119 58.3145C163.119 56.416 163.488 54.7285 164.227 53.252C164.965 51.7637 166.025 50.6211 167.408 49.8242C168.791 49.0273 170.414 48.6289 172.277 48.6289C175.125 48.6289 177.369 49.5137 179.01 51.2832C180.65 53.041 181.471 55.4375 181.471 58.4727V58.6836C181.471 61.6484 180.645 64.0039 178.992 65.75C177.352 67.4844 175.125 68.3516 172.312 68.3516C169.605 68.3516 167.432 67.543 165.791 65.9258C164.15 64.2969 163.266 62.0938 163.137 59.3164L163.119 58.3145ZM169.043 58.6836C169.043 60.4414 169.318 61.7305 169.869 62.5508C170.42 63.3711 171.234 63.7812 172.312 63.7812C174.422 63.7812 175.5 62.1582 175.547 58.9121V58.3145C175.547 54.9043 174.457 53.1992 172.277 53.1992C170.297 53.1992 169.225 54.6699 169.061 57.6113L169.043 58.6836ZM183.334 58.3496C183.334 55.3379 183.984 52.9648 185.285 51.2305C186.586 49.4961 188.402 48.6289 190.734 48.6289C192.434 48.6289 193.863 49.2969 195.023 50.6328V41H200.965V68H195.639L195.34 65.9609C194.121 67.5547 192.574 68.3516 190.699 68.3516C188.438 68.3516 186.645 67.4844 185.32 65.75C183.996 64.0156 183.334 61.5488 183.334 58.3496ZM189.258 58.7188C189.258 62.0938 190.242 63.7812 192.211 63.7812C193.523 63.7812 194.461 63.2305 195.023 62.1289V54.8867C194.484 53.7617 193.559 53.1992 192.246 53.1992C190.418 53.1992 189.428 54.6758 189.275 57.6289L189.258 58.7188ZM213.533 68.3516C210.615 68.3516 208.254 67.4844 206.449 65.75C204.645 64.0039 203.742 61.7363 203.742 58.9473V58.4551C203.742 56.5098 204.1 54.793 204.814 53.3047C205.541 51.8164 206.596 50.668 207.979 49.8594C209.361 49.0391 211.002 48.6289 212.9 48.6289C215.572 48.6289 217.682 49.4609 219.229 51.125C220.775 52.7773 221.549 55.0859 221.549 58.0508V60.3535H209.771C209.982 61.4199 210.445 62.2578 211.16 62.8672C211.875 63.4766 212.801 63.7812 213.938 63.7812C215.812 63.7812 217.277 63.125 218.332 61.8125L221.039 65.0117C220.301 66.0312 219.252 66.8457 217.893 67.4551C216.545 68.0527 215.092 68.3516 213.533 68.3516ZM212.865 53.1992C211.131 53.1992 210.1 54.3477 209.771 56.6445H215.748V56.1875C215.771 55.2383 215.531 54.5059 215.027 53.9902C214.523 53.4629 213.803 53.1992 212.865 53.1992ZM234.416 42.4062H240.568V59.9668C240.568 61.5957 240.188 63.0488 239.426 64.3262C238.676 65.6035 237.621 66.5938 236.262 67.2969C234.914 68 233.408 68.3516 231.744 68.3516C228.955 68.3516 226.787 67.6484 225.24 66.2422C223.693 64.8359 222.92 62.8438 222.92 60.2656H229.107C229.107 61.4375 229.307 62.2871 229.705 62.8145C230.115 63.3418 230.795 63.6055 231.744 63.6055C232.6 63.6055 233.256 63.2891 233.713 62.6562C234.182 62.0117 234.416 61.1152 234.416 59.9668V42.4062ZM257.672 61.1973C257.672 60.2949 257.35 59.5918 256.705 59.0879C256.072 58.584 254.953 58.0625 253.348 57.5234C251.742 56.9844 250.43 56.4629 249.41 55.959C246.094 54.3301 244.436 52.0918 244.436 49.2441C244.436 47.8262 244.846 46.5781 245.666 45.5C246.498 44.4102 247.67 43.5664 249.182 42.9688C250.693 42.3594 252.393 42.0547 254.279 42.0547C256.119 42.0547 257.766 42.3828 259.219 43.0391C260.684 43.6953 261.82 44.6328 262.629 45.8516C263.438 47.0586 263.842 48.4414 263.842 50H257.689C257.689 48.957 257.367 48.1484 256.723 47.5742C256.09 47 255.229 46.7129 254.139 46.7129C253.037 46.7129 252.164 46.959 251.52 47.4512C250.887 47.9316 250.57 48.5469 250.57 49.2969C250.57 49.9531 250.922 50.5508 251.625 51.0898C252.328 51.6172 253.564 52.168 255.334 52.7422C257.104 53.3047 258.557 53.9141 259.693 54.5703C262.459 56.1641 263.842 58.3613 263.842 61.1621C263.842 63.4004 262.998 65.1582 261.311 66.4355C259.623 67.7129 257.309 68.3516 254.367 68.3516C252.293 68.3516 250.412 67.9824 248.725 67.2441C247.049 66.4941 245.783 65.4746 244.928 64.1855C244.084 62.8848 243.662 61.3906 243.662 59.7031H249.85C249.85 61.0742 250.201 62.0879 250.904 62.7441C251.619 63.3887 252.773 63.7109 254.367 63.7109C255.387 63.7109 256.189 63.4941 256.775 63.0605C257.373 62.6152 257.672 61.9941 257.672 61.1973Z" fill="white"/>
<path d="M58.3996 13.0791C60.5747 11.8779 63.4079 11.8725 65.5812 13.0791C76.5147 19.0393 87.4517 24.9903 98.3834 30.9541C100.44 32.0715 101.815 34.2791 101.794 36.5648V72.424C101.809 74.8043 100.298 77.0646 98.1288 78.1566C87.2311 84.0841 76.3391 90.0187 65.4434 95.9461C63.2232 97.1708 60.3332 97.0764 58.1825 95.7514C54.9153 93.9242 51.6426 92.106 48.3752 90.2806C47.7075 89.8966 46.9549 89.591 46.4834 88.9664C46.9002 88.4245 47.6454 88.357 48.2509 88.1204C49.6146 87.702 50.8672 87.0304 52.12 86.3788C52.4368 86.1696 52.8236 86.2498 53.1273 86.4369C55.9211 87.9823 58.6902 89.5726 61.4933 91.1032C62.0913 91.4363 62.6968 90.9941 63.2079 90.7192C73.9018 84.8882 84.6089 79.0793 95.3009 73.2465C95.6971 73.0627 95.9161 72.657 95.8839 72.2383C95.8914 60.4091 95.8858 48.5778 95.8877 36.7486C95.933 36.2736 95.6481 35.8368 95.2028 35.6424C84.343 29.7421 73.4888 23.8328 62.6309 17.931C62.4427 17.8063 62.2199 17.7393 61.9916 17.739C61.7633 17.7387 61.5403 17.805 61.3518 17.9292C50.4938 23.8328 39.6415 29.7476 28.7835 35.6475C28.3399 35.8423 28.0421 36.2718 28.0949 36.7486C28.0968 48.5778 28.0949 60.4091 28.0949 72.2401C28.0761 72.4444 28.1226 72.6493 28.2282 72.8273C28.3338 73.0053 28.4933 73.1478 28.6854 73.2357C31.5829 74.8208 34.4842 76.3949 37.3835 77.9746C39.0169 78.8228 41.0224 79.3268 42.822 78.6769C44.4101 78.1274 45.5233 76.564 45.493 74.9372C45.508 63.177 45.4855 51.4151 45.5043 39.6567C45.4646 39.1346 45.9779 38.7033 46.5041 38.7524C47.8963 38.7434 49.2903 38.7344 50.6825 38.7561C51.2636 38.7434 51.6636 39.3056 51.5917 39.8315C51.5861 51.6661 51.6067 63.5011 51.5823 75.3357C51.5861 78.4897 50.2429 81.9217 47.2189 83.4649C43.4935 85.3268 38.8888 84.9319 35.2084 83.1466C32.0222 81.6124 28.9816 79.8018 25.852 78.1582C23.6771 77.0721 22.1734 74.8028 22.1887 72.4243V36.5648C22.1659 34.2318 23.5959 31.9841 25.7161 30.883C36.6118 24.9508 47.5057 19.014 58.3996 13.0791Z" fill="#8CC84B"/>
<path d="M67.9049 37.919C72.657 37.6239 77.7444 37.7442 82.0206 40.0027C85.3314 41.7334 87.167 45.3658 87.2254 48.9144C87.1329 49.393 86.6143 49.6571 86.1406 49.6242C84.7619 49.6224 83.3828 49.6423 82.004 49.6152C81.4192 49.6369 81.0793 49.1166 81.0058 48.6178C80.6097 46.9199 79.6499 45.2383 77.9934 44.4193C75.4505 43.1911 72.5021 43.2529 69.7292 43.2785C67.705 43.3822 65.5283 43.5513 63.8133 44.6997C62.4968 45.5696 62.0968 47.3256 62.5667 48.7399C63.0098 49.7553 64.2248 50.083 65.219 50.385C70.9458 51.83 77.0145 51.6862 82.632 53.5879C84.9578 54.3631 87.2329 55.8702 88.029 58.2194C89.0703 61.368 88.6139 65.1315 86.2919 67.6592C84.4088 69.7393 81.6663 70.8714 78.931 71.4863C75.2921 72.2691 71.5157 72.289 67.8203 71.9415C64.3454 71.5593 60.7293 70.6785 58.0468 68.3944C55.7529 66.4728 54.6325 63.4789 54.7438 60.5892C54.7703 60.1012 55.274 59.7609 55.7585 59.801C57.147 59.7901 58.5354 59.7865 59.9239 59.8028C60.4784 59.7645 60.8896 60.2269 60.918 60.7311C61.1742 62.3489 61.8044 64.0467 63.2666 65.0058C66.0885 66.7622 69.6293 66.6419 72.8604 66.6911C75.5373 66.5765 78.5423 66.5419 80.7268 64.8349C81.8794 63.8614 82.2209 62.2325 81.9094 60.8312C81.572 59.6482 80.2891 59.0969 79.1875 58.7364C73.534 57.011 67.3976 57.6371 61.7988 55.686C59.5258 54.9111 57.3279 53.4459 56.4546 51.1931C55.2362 48.0047 55.7945 44.061 58.3598 41.6186C60.8612 39.1892 64.4719 38.2536 67.9049 37.9187V37.919Z" fill="#8CC84B"/>
</svg>
