<svg width="309" height="108" viewBox="0 0 309 108" fill="none" xmlns="http://www.w3.org/2000/svg">
<rect x="0.5" y="0.5" width="308" height="107" fill="#2D2C2C" stroke="black"/>
<path d="M172.998 59.3164V68H166.828V42.4062H177.041C178.998 42.4062 180.727 42.7695 182.227 43.4961C183.738 44.2109 184.904 45.2363 185.725 46.5723C186.557 47.8965 186.973 49.4023 186.973 51.0898C186.973 53.5859 186.076 55.584 184.283 57.084C182.502 58.5723 180.053 59.3164 176.936 59.3164H172.998ZM172.998 54.5527H177.041C178.236 54.5527 179.145 54.2539 179.766 53.6562C180.398 53.0586 180.715 52.2148 180.715 51.125C180.715 49.9297 180.393 48.9746 179.748 48.2598C179.104 47.5449 178.225 47.1816 177.111 47.1699H172.998V54.5527ZM211.67 68H205.535V57.3125H196.447V68H190.277V42.4062H196.447V52.5664H205.535V42.4062H211.67V68ZM221.76 59.3164V68H215.59V42.4062H225.803C227.76 42.4062 229.488 42.7695 230.988 43.4961C232.5 44.2109 233.666 45.2363 234.486 46.5723C235.318 47.8965 235.734 49.4023 235.734 51.0898C235.734 53.5859 234.838 55.584 233.045 57.084C231.264 58.5723 228.814 59.3164 225.697 59.3164H221.76ZM221.76 54.5527H225.803C226.998 54.5527 227.906 54.2539 228.527 53.6562C229.16 53.0586 229.477 52.2148 229.477 51.125C229.477 49.9297 229.154 48.9746 228.51 48.2598C227.865 47.5449 226.986 47.1816 225.873 47.1699H221.76V54.5527Z" fill="white"/>
<path d="M69 83.8462C93.8528 83.8462 114 71.7923 114 56.9231C114 42.0539 93.8528 30 69 30C44.1472 30 24 42.0539 24 56.9231C24 71.7923 44.1472 83.8462 69 83.8462Z" fill="#8993BE"/>
<path fill-rule="evenodd" clip-rule="evenodd" d="M36.6369 72.8643L41.5686 44.1699H52.9723C57.9036 44.5242 60.3695 47.358 60.3695 52.3179C60.3695 60.8199 54.5135 65.7794 49.2735 65.4251H43.7262L42.4933 72.8643H36.6369ZM44.9588 60.1116L46.5 49.4838H50.5068C52.6643 49.4838 54.2052 50.5465 54.2052 52.6719C53.8972 58.6945 51.4314 59.7572 48.6576 60.1116H44.9591H44.9588ZM59.2238 65.4251L64.1551 36.731H70.0115L68.7785 44.1699H74.3262C79.2579 44.5242 81.1071 47.358 80.4908 50.9008L78.3333 65.4251H72.169L74.3265 52.3179C74.6345 50.5465 74.6345 49.4838 72.4773 49.4838H67.8539L65.0801 65.4251H59.2238V65.4251ZM77.9385 72.8643L82.8699 44.1699H94.2738C99.2056 44.5242 101.671 47.358 101.671 52.3179C101.671 60.8199 95.8151 65.7794 90.5754 65.4251H85.0274L83.7945 72.8643H77.9385V72.8643ZM86.26 60.1116L87.8012 49.4838H91.8083C93.9659 49.4838 95.5068 50.5465 95.5068 52.6719C95.1988 58.6945 92.7329 59.7572 89.9591 60.1116H86.2603H86.26Z" fill="#232531"/>
</svg>
