<svg width="309" height="108" viewBox="0 0 309 108" fill="none" xmlns="http://www.w3.org/2000/svg">
<rect x="0.5" y="0.5" width="308" height="107" fill="#2D2C2C" stroke="black"/>
<path d="M145.172 59.3164V68H139.002V42.4062H149.215C151.172 42.4062 152.9 42.7695 154.4 43.4961C155.912 44.2109 157.078 45.2363 157.898 46.5723C158.73 47.8965 159.146 49.4023 159.146 51.0898C159.146 53.5859 158.25 55.584 156.457 57.084C154.676 58.5723 152.227 59.3164 149.109 59.3164H145.172ZM145.172 54.5527H149.215C150.41 54.5527 151.318 54.2539 151.939 53.6562C152.572 53.0586 152.889 52.2148 152.889 51.125C152.889 49.9297 152.566 48.9746 151.922 48.2598C151.277 47.5449 150.398 47.1816 149.285 47.1699H145.172V54.5527ZM161.186 58.3145C161.186 56.416 161.555 54.7285 162.293 53.252C163.031 51.7637 164.092 50.6211 165.475 49.8242C166.857 49.0273 168.48 48.6289 170.344 48.6289C173.191 48.6289 175.436 49.5137 177.076 51.2832C178.717 53.041 179.537 55.4375 179.537 58.4727V58.6836C179.537 61.6484 178.711 64.0039 177.059 65.75C175.418 67.4844 173.191 68.3516 170.379 68.3516C167.672 68.3516 165.498 67.543 163.857 65.9258C162.217 64.2969 161.332 62.0938 161.203 59.3164L161.186 58.3145ZM167.109 58.6836C167.109 60.4414 167.385 61.7305 167.936 62.5508C168.486 63.3711 169.301 63.7812 170.379 63.7812C172.488 63.7812 173.566 62.1582 173.613 58.9121V58.3145C173.613 54.9043 172.523 53.1992 170.344 53.1992C168.363 53.1992 167.291 54.6699 167.127 57.6113L167.109 58.6836ZM192.105 62.6562C192.105 62.1523 191.842 61.748 191.314 61.4434C190.787 61.1387 189.785 60.8223 188.309 60.4941C186.832 60.166 185.613 59.7383 184.652 59.2109C183.691 58.6719 182.959 58.0215 182.455 57.2598C181.951 56.498 181.699 55.625 181.699 54.6406C181.699 52.8945 182.42 51.459 183.861 50.334C185.303 49.1973 187.189 48.6289 189.521 48.6289C192.029 48.6289 194.045 49.1973 195.568 50.334C197.092 51.4707 197.854 52.9648 197.854 54.8164H191.912C191.912 53.293 191.109 52.5312 189.504 52.5312C188.883 52.5312 188.361 52.707 187.939 53.0586C187.518 53.3984 187.307 53.8262 187.307 54.3418C187.307 54.8691 187.564 55.2969 188.08 55.625C188.596 55.9531 189.416 56.2227 190.541 56.4336C191.678 56.6445 192.674 56.8965 193.529 57.1895C196.389 58.1738 197.818 59.9375 197.818 62.4805C197.818 64.2148 197.045 65.627 195.498 66.7168C193.963 67.8066 191.971 68.3516 189.521 68.3516C187.893 68.3516 186.439 68.0586 185.162 67.4727C183.885 66.8867 182.889 66.0898 182.174 65.082C181.459 64.0742 181.102 63.0137 181.102 61.9004H186.639C186.662 62.7793 186.955 63.4238 187.518 63.834C188.08 64.2324 188.801 64.4316 189.68 64.4316C190.488 64.4316 191.092 64.2676 191.49 63.9395C191.9 63.6113 192.105 63.1836 192.105 62.6562ZM207.504 44.252V48.9805H210.633V53.0938H207.504V61.7949C207.504 62.5098 207.633 63.0078 207.891 63.2891C208.148 63.5703 208.658 63.7109 209.42 63.7109C210.006 63.7109 210.498 63.6758 210.896 63.6055V67.8418C209.83 68.1816 208.717 68.3516 207.557 68.3516C205.518 68.3516 204.012 67.8711 203.039 66.9102C202.066 65.9492 201.58 64.4902 201.58 62.5332V53.0938H199.154V48.9805H201.58V44.252H207.504ZM212.285 58.3496C212.285 56.4277 212.602 54.7285 213.234 53.252C213.867 51.7754 214.775 50.6387 215.959 49.8418C217.143 49.0332 218.52 48.6289 220.09 48.6289C222.07 48.6289 223.617 49.2969 224.73 50.6328L224.941 48.9805H230.32V67.2793C230.32 68.9551 229.928 70.4082 229.143 71.6387C228.369 72.8809 227.244 73.8301 225.768 74.4863C224.291 75.1543 222.58 75.4883 220.635 75.4883C219.24 75.4883 217.887 75.2246 216.574 74.6973C215.273 74.1699 214.277 73.4844 213.586 72.6406L216.064 69.1602C217.166 70.4609 218.619 71.1113 220.424 71.1113C223.049 71.1113 224.361 69.7637 224.361 67.0684V66.4707C223.225 67.7246 221.789 68.3516 220.055 68.3516C217.734 68.3516 215.859 67.4668 214.43 65.6973C213 63.916 212.285 61.5371 212.285 58.5605V58.3496ZM218.227 58.7188C218.227 60.2773 218.52 61.5137 219.105 62.4277C219.691 63.3301 220.512 63.7812 221.566 63.7812C222.844 63.7812 223.775 63.3535 224.361 62.498V54.5C223.787 53.6328 222.867 53.1992 221.602 53.1992C220.547 53.1992 219.721 53.6738 219.123 54.623C218.525 55.5605 218.227 56.9258 218.227 58.7188ZM245.191 54.3418L243.24 54.2012C241.377 54.2012 240.182 54.7871 239.654 55.959V68H233.73V48.9805H239.285L239.479 51.4238C240.475 49.5605 241.863 48.6289 243.645 48.6289C244.277 48.6289 244.828 48.6992 245.297 48.8398L245.191 54.3418ZM256.178 68.3516C253.26 68.3516 250.898 67.4844 249.094 65.75C247.289 64.0039 246.387 61.7363 246.387 58.9473V58.4551C246.387 56.5098 246.744 54.793 247.459 53.3047C248.186 51.8164 249.24 50.668 250.623 49.8594C252.006 49.0391 253.646 48.6289 255.545 48.6289C258.217 48.6289 260.326 49.4609 261.873 51.125C263.42 52.7773 264.193 55.0859 264.193 58.0508V60.3535H252.416C252.627 61.4199 253.09 62.2578 253.805 62.8672C254.52 63.4766 255.445 63.7812 256.582 63.7812C258.457 63.7812 259.922 63.125 260.977 61.8125L263.684 65.0117C262.945 66.0312 261.896 66.8457 260.537 67.4551C259.189 68.0527 257.736 68.3516 256.178 68.3516ZM255.51 53.1992C253.775 53.1992 252.744 54.3477 252.416 56.6445H258.393V56.1875C258.416 55.2383 258.176 54.5059 257.672 53.9902C257.168 53.4629 256.447 53.1992 255.51 53.1992Z" fill="white"/>
<path d="M92.6899 61.9C92.2103 60.4914 90.9537 59.5103 89.3287 59.2748C88.5624 59.1639 87.6849 59.2112 86.6465 59.4188C84.8365 59.7809 83.4937 59.9187 82.5137 59.9454C86.2128 53.8899 89.2206 46.9846 90.9521 40.4843C93.7521 29.9735 92.2559 25.1852 90.5074 23.0194C85.8803 17.2866 79.1293 14.2069 70.985 14.1127C66.6403 14.0612 62.8262 14.8929 60.8365 15.4911C58.984 15.1741 56.9922 14.9972 54.9022 14.9644C50.9844 14.9038 47.5228 15.7319 44.565 17.4339C42.9275 16.897 40.2994 16.1401 37.2644 15.6571C30.1262 14.5209 24.3731 15.4062 20.165 18.2887C15.0694 21.7786 12.7072 27.8422 13.1441 36.3111C13.2828 38.9999 14.8341 47.1809 17.2766 54.9395C18.6803 59.3991 20.1772 63.1023 21.7256 65.9475C23.9216 69.9819 26.2713 72.3578 28.9091 73.211C30.3875 73.6885 33.0737 74.0231 35.8991 71.7415C36.2572 72.162 36.735 72.5799 37.3691 72.968C38.1744 73.4604 39.1591 73.8628 40.1425 74.1012C43.6865 74.9602 47.0062 74.7454 49.8384 73.5413C49.8559 74.0297 49.8694 74.4963 49.8806 74.8993C49.8994 75.5529 49.9181 76.1937 49.9428 76.7931C50.1106 80.8454 50.395 83.9963 51.2375 86.2009C51.2837 86.3221 51.3459 86.5069 51.4115 86.703C51.8319 87.9507 52.5347 90.0396 54.3228 91.6755C56.1743 93.3702 58.414 93.8898 60.4653 93.8898C61.494 93.8898 62.4756 93.7589 63.3365 93.5802C66.4053 92.9424 69.8906 91.9709 72.4118 88.4901C74.7956 85.1995 75.9543 80.2433 76.164 72.4341C76.1912 72.2132 76.2162 72.0024 76.2403 71.8015L76.2903 71.3888L76.8518 71.4366L76.9965 71.446C80.1221 71.5842 83.944 70.9415 86.2912 69.8844C88.1459 69.0499 94.0893 66.0075 92.6899 61.9" fill="black"/>
<path d="M87.3456 62.6988C78.0519 64.5577 77.4128 61.5068 77.4128 61.5068C87.2253 47.3891 91.3275 29.4688 87.7878 25.0828C78.1303 13.1189 61.4131 18.7771 61.1341 18.9238L61.0444 18.9395C59.2081 18.5698 57.1534 18.3499 54.8437 18.3132C50.6387 18.2465 47.4487 19.3822 45.0281 21.162C45.0281 21.162 15.2063 9.24987 16.5934 36.1436C16.8884 41.8648 25.0509 79.4341 34.7866 68.0864C38.345 63.9368 41.7834 60.4284 41.7834 60.4284C43.4909 61.5283 45.5353 62.0895 47.6784 61.888L47.845 61.751C47.7931 62.2661 47.8169 62.77 47.9116 63.3666C45.4034 66.0836 46.1406 66.5605 41.1269 67.5613C36.0534 68.5752 39.0337 70.3798 40.9797 70.8519C43.3387 71.4237 48.7962 72.2339 52.4837 67.2286L52.3369 67.7998C53.3194 68.563 54.0094 72.7638 53.8937 76.5722C53.7781 80.3804 53.7009 82.9949 54.475 85.0372C55.2497 87.0794 56.0212 91.6744 62.6125 90.3051C68.1197 89.1607 70.9737 86.1952 71.3709 81.2484C71.6525 77.7318 72.2903 78.2518 72.3303 75.1075L72.8419 73.6192C73.4316 68.8521 72.9356 67.3141 76.3284 68.0295L77.1534 68.0998C79.6503 68.2097 82.9191 67.7101 84.8375 66.8456C88.9681 64.987 91.4181 61.8834 87.345 62.6988H87.3456" fill="#336791"/>
<path d="M46.7737 38.7021C45.9362 38.5891 45.1778 38.6936 44.7941 38.9754C44.5784 39.1338 44.5116 39.3175 44.4934 39.4438C44.4453 39.7786 44.6872 40.1489 44.8359 40.3398C45.2566 40.8803 45.8709 41.2518 46.4791 41.3336C46.5672 41.3457 46.655 41.3512 46.7422 41.3512C47.7562 41.3512 48.6784 40.5855 48.7597 40.0204C48.8612 39.3126 47.8016 38.8409 46.7737 38.7024V38.7021ZM74.5187 38.7245C74.4387 38.1697 73.4206 38.0115 72.4544 38.1418C71.4894 38.2721 70.5537 38.6945 70.6319 39.2505C70.6944 39.6829 71.4997 40.421 72.4528 40.421C72.5334 40.421 72.6147 40.4158 72.6966 40.4046C73.3328 40.3192 73.7997 39.9274 74.0216 39.7017C74.3591 39.3575 74.5547 38.9739 74.5187 38.7245" fill="white"/>
<path d="M90.4382 62.4876C90.0838 61.4486 88.9432 61.1144 87.0482 61.4938C81.4216 62.6197 79.4066 61.8398 78.745 61.3674C83.1185 54.9075 86.7163 47.0985 88.6572 39.8129C89.5766 36.3617 90.0844 33.1566 90.126 30.5441C90.1719 27.6768 89.6682 25.5698 88.6294 24.2826C84.4413 19.0937 78.2944 16.3104 70.8538 16.234C65.7385 16.1783 61.4166 17.4475 60.5788 17.8045C58.8144 17.3791 56.891 17.1179 54.7969 17.0845C50.9569 17.0242 47.6375 17.9157 44.8894 19.7328C43.6956 19.3019 40.6106 18.275 36.8378 17.6857C30.3153 16.6676 25.1322 17.4391 21.4334 19.9797C17.02 23.0115 14.9825 28.431 15.3772 36.0872C15.51 38.663 17.0237 46.5871 19.4125 54.1757C22.5569 64.1638 25.975 69.8181 29.5712 70.9813C29.9922 71.1174 30.4775 71.2125 31.0128 71.2125C32.3247 71.2125 33.9331 70.6392 35.6066 68.6885C37.6477 66.3144 39.7591 63.9979 41.9381 61.7419C43.3519 62.4776 44.905 62.8885 46.4935 62.9297C46.4966 62.97 46.5006 63.0103 46.5044 63.0503C46.231 63.3664 45.9632 63.6871 45.7013 64.0123C44.6006 65.367 44.3716 65.6491 40.8288 66.3563C39.8209 66.5581 37.1444 67.0929 37.105 68.9121C37.0625 70.8998 40.2691 71.7346 40.6344 71.823C41.9075 72.1321 43.1341 72.2845 44.3038 72.2845C47.1484 72.2845 49.6519 71.3779 51.6525 69.6239C51.591 76.7098 51.8956 83.6922 52.7731 85.8195C53.4919 87.5612 55.2475 91.8174 60.7931 91.8171C61.6069 91.8171 62.5025 91.7253 63.4878 91.5205C69.2757 90.3176 71.7891 87.8372 72.7613 82.369C73.2816 79.4465 74.1744 72.4681 74.5944 68.7249C75.4807 68.993 76.6216 69.1157 77.855 69.1154C80.4275 69.1154 83.396 68.5855 85.2575 67.7477C87.3488 66.806 91.1225 64.4953 90.4382 62.4876V62.4876ZM76.655 37.1931C76.636 38.2982 76.4791 39.3014 76.3128 40.3486C76.1338 41.4748 75.9488 42.6393 75.9022 44.0528C75.8563 45.4284 76.0335 46.8586 76.2047 48.2417C76.551 51.0354 76.9063 53.9115 75.531 56.7494C75.3025 56.3569 75.099 55.9512 74.9216 55.5347C74.7507 55.1329 74.3794 54.4875 73.8653 53.5942C71.8657 50.117 67.1828 41.9742 69.58 38.6515C70.2941 37.6625 72.1063 36.6456 76.655 37.1931V37.1931ZM71.1413 18.4717C77.8082 18.6144 83.0819 21.0326 86.8157 25.6588C89.6794 29.2073 86.526 45.3532 77.3969 59.2825C77.3051 59.1693 77.2128 59.0565 77.12 58.944L77.0044 58.804C79.3635 55.0265 78.9022 51.289 78.4916 47.9754C78.3228 46.6155 78.1635 45.3311 78.2041 44.1246C78.246 42.8459 78.4203 41.7491 78.5891 40.6886C78.7963 39.3817 79.0072 38.0294 78.9491 36.4353C78.9925 36.2681 79.01 36.0705 78.9872 35.836C78.8388 34.3074 77.0388 29.7324 73.37 25.5916C71.3632 23.3266 68.4366 20.7921 64.4407 19.0825C66.1594 18.7371 68.5097 18.415 71.1413 18.4717V18.4717ZM33.8356 67.2608C31.9919 69.4103 30.7188 68.9982 30.3 68.863C27.5719 67.9807 24.4062 62.3897 21.6153 53.524C19.2003 45.8526 17.7891 38.1385 17.6772 35.9754C17.3247 29.1343 19.035 24.3665 22.7609 21.8044C28.8247 17.6351 38.7941 20.1306 42.8 21.3962C42.7425 21.4514 42.6825 21.5029 42.6256 21.5589C36.0519 27.9959 36.2078 38.9936 36.2241 39.6659C36.2234 39.9253 36.2459 40.2925 36.2766 40.7976C36.3897 42.6475 36.6003 46.0901 36.0378 49.9888C35.5153 53.6118 36.6672 57.1578 39.1975 59.7179C39.4572 59.9801 39.7301 60.2297 40.0153 60.4657C38.8891 61.6353 36.4413 64.2217 33.8356 67.2608V67.2608ZM40.8603 58.1729C38.8209 56.1095 37.8947 53.2394 38.3188 50.2979C38.9125 46.1795 38.6934 42.5926 38.5756 40.6655C38.5591 40.3959 38.5444 40.1595 38.5359 39.9732C39.4963 39.1475 43.9466 36.8356 47.1203 37.5407C48.5685 37.8622 49.451 38.8184 49.8178 40.4631C51.7166 48.9783 50.0691 52.5274 48.7453 55.3795C48.4725 55.967 48.2147 56.5224 47.9947 57.0969L47.8241 57.5411C47.3922 58.664 46.9903 59.7082 46.7413 60.6996C44.5731 60.6935 42.4641 59.7954 40.8603 58.1726V58.1729ZM41.1931 69.6566C40.56 69.5033 39.9906 69.2369 39.6566 69.016C39.9356 68.8888 40.4322 68.7155 41.2934 68.5434C45.4613 67.7116 46.105 67.1244 47.5106 65.394C47.8328 64.9971 48.1981 64.5474 48.7041 63.9996L48.7047 63.999C49.4581 63.1809 49.8028 63.3196 50.4278 63.5711C50.9344 63.7741 51.4278 64.3898 51.6278 65.0674C51.7225 65.3873 51.8288 65.9945 51.481 66.4672C48.5447 70.4535 44.2659 70.4023 41.1931 69.6566V69.6566ZM63.0053 89.3371C57.9066 90.3963 56.1013 87.8739 54.9116 84.9902C54.1438 83.1286 53.7663 74.7337 54.0341 65.4628C54.0375 65.3394 54.0194 65.2204 53.9844 65.1083C53.9531 64.8869 53.9055 64.668 53.8419 64.4532C53.4438 63.1042 52.4735 61.9758 51.3094 61.508C50.8469 61.3223 49.9981 60.9814 48.9781 61.2344C49.1956 60.3654 49.5728 59.384 49.9819 58.3214L50.1535 57.8744C50.3466 57.3705 50.5891 56.8485 50.8453 56.2958C52.2306 53.3119 54.1278 49.2247 52.0688 39.9914C51.2975 36.5329 48.7219 34.844 44.8175 35.2364C42.4769 35.4712 40.3353 36.3869 39.2672 36.912C39.0375 37.0247 38.8275 37.1338 38.6313 37.2398C38.9294 33.7553 40.0556 27.2432 44.2688 23.123C46.9216 20.5294 50.4544 19.2483 54.7588 19.3173C63.24 19.4519 68.6788 23.6721 71.7482 27.189C74.3932 30.2193 75.8253 33.272 76.3969 34.9185C72.0985 34.4946 69.175 35.3173 67.6932 37.3716C64.4691 41.8403 69.4569 50.5133 71.8541 54.6817C72.2938 55.4456 72.6732 56.1058 72.7925 56.3864C73.5732 58.2208 74.5838 59.4455 75.3216 60.3393C75.5478 60.6132 75.7672 60.879 75.9341 61.1111C74.6322 61.475 72.2938 62.3158 72.5069 66.5187C72.335 68.6276 71.1128 78.5012 70.4919 81.9896C69.6722 86.5982 67.9232 88.3147 63.0053 89.3374V89.3371ZM84.2879 65.7224C82.9566 66.3215 80.7288 66.7708 78.6125 66.8675C76.275 66.9735 75.085 66.6136 74.805 66.3921C74.6738 63.7729 75.6791 63.4993 76.7432 63.2097C76.9103 63.1642 77.0735 63.1197 77.231 63.0663C77.3288 63.1436 77.436 63.2203 77.5535 63.2954C79.4322 64.4977 82.7832 64.6274 87.5141 63.6805L87.566 63.6705C86.9279 64.2489 85.836 65.0252 84.2879 65.7224Z" fill="white"/>
</svg>
