<svg width="309" height="108" viewBox="0 0 309 108" fill="none" xmlns="http://www.w3.org/2000/svg">
<rect x="0.5" y="0.5" width="308" height="107" fill="#2D2C2C" stroke="black"/>
<path d="M57.494 14C37.2964 14 38.5575 22.5913 38.5575 22.5913L38.5799 31.4921H57.8542V34.1644H30.9245C30.9245 34.1644 18 32.7266 18 52.7159C18 72.7058 29.2808 71.9969 29.2808 71.9969H36.0131V62.7208C36.0131 62.7208 35.6502 51.6559 47.1139 51.6559H66.2305C66.2305 51.6559 76.9708 51.8261 76.9708 41.4744V24.3584C76.9708 24.3584 78.602 14 57.494 14ZM46.8662 19.9856C47.3217 19.9852 47.7727 20.0729 48.1936 20.2437C48.6145 20.4145 48.9969 20.665 49.319 20.9809C49.641 21.2968 49.8964 21.6719 50.0705 22.0847C50.2446 22.4975 50.334 22.94 50.3336 23.3867C50.334 23.8334 50.2446 24.2759 50.0705 24.6887C49.8964 25.1015 49.641 25.4766 49.319 25.7925C48.9969 26.1084 48.6145 26.3589 48.1936 26.5297C47.7727 26.7005 47.3217 26.7882 46.8662 26.7878C46.4107 26.7882 45.9597 26.7005 45.5388 26.5297C45.1179 26.3589 44.7355 26.1084 44.4135 25.7925C44.0914 25.4766 43.836 25.1015 43.6619 24.6887C43.4878 24.2759 43.3984 23.8334 43.3988 23.3867C43.3984 22.94 43.4878 22.4975 43.6619 22.0847C43.836 21.6719 44.0914 21.2968 44.4135 20.9809C44.7355 20.665 45.1179 20.4145 45.5388 20.2437C45.9597 20.0729 46.4107 19.9852 46.8662 19.9856Z" fill="url(#paint0_linear)"/>
<path d="M59.5063 94C79.7039 94 78.4428 85.4087 78.4428 85.4087L78.4204 76.5082H59.1458V73.8359H86.0755C86.0755 73.8359 99 75.2737 99 55.2838C99 35.2942 87.7192 36.0031 87.7192 36.0031H80.9869V45.2789C80.9869 45.2789 81.3498 56.3438 69.8861 56.3438H50.7695C50.7695 56.3438 40.0292 56.1736 40.0292 66.5256V83.6419C40.0292 83.6419 38.3983 94 59.506 94H59.5063ZM70.1341 88.015C69.6786 88.0154 69.2276 87.9277 68.8067 87.7569C68.3858 87.5861 68.0034 87.3356 67.6814 87.0197C67.3593 86.7038 67.1039 86.3287 66.9298 85.9159C66.7557 85.5031 66.6663 85.0607 66.6667 84.6139C66.6662 84.1671 66.7556 83.7247 66.9297 83.3118C67.1038 82.899 67.3592 82.5238 67.6812 82.2079C68.0033 81.892 68.3857 81.6414 68.8066 81.4706C69.2275 81.2998 69.6786 81.2121 70.1341 81.2125C70.5896 81.2121 71.0406 81.2998 71.4615 81.4706C71.8824 81.6414 72.2648 81.8919 72.5869 82.2078C72.9089 82.5237 73.1643 82.8988 73.3384 83.3116C73.5125 83.7244 73.6019 84.1669 73.6015 84.6136C73.6019 85.0604 73.5125 85.5028 73.3384 85.9156C73.1643 86.3284 72.9089 86.7035 72.5869 87.0194C72.2648 87.3353 71.8824 87.5858 71.4615 87.7566C71.0406 87.9274 70.5896 88.0151 70.1341 88.0147V88.015Z" fill="url(#paint1_linear)"/>
<path d="M151.289 57.3164V66H145.119V40.4062H155.332C157.289 40.4062 159.018 40.7695 160.518 41.4961C162.029 42.2109 163.195 43.2363 164.016 44.5723C164.848 45.8965 165.264 47.4023 165.264 49.0898C165.264 51.5859 164.367 53.584 162.574 55.084C160.793 56.5723 158.344 57.3164 155.227 57.3164H151.289ZM151.289 52.5527H155.332C156.527 52.5527 157.436 52.2539 158.057 51.6562C158.689 51.0586 159.006 50.2148 159.006 49.125C159.006 47.9297 158.684 46.9746 158.039 46.2598C157.395 45.5449 156.516 45.1816 155.402 45.1699H151.289V52.5527ZM176.18 57.7031L179.344 46.9805H185.689L177.938 69.1816L177.604 69.9902C176.502 72.4512 174.557 73.6816 171.768 73.6816C170.994 73.6816 170.18 73.5645 169.324 73.3301V69.0938H170.098C170.93 69.0938 171.562 68.9707 171.996 68.7246C172.441 68.4902 172.77 68.0625 172.98 67.4414L173.455 66.1758L166.846 46.9805H173.174L176.18 57.7031ZM194.145 42.252V46.9805H197.273V51.0938H194.145V59.7949C194.145 60.5098 194.273 61.0078 194.531 61.2891C194.789 61.5703 195.299 61.7109 196.061 61.7109C196.646 61.7109 197.139 61.6758 197.537 61.6055V65.8418C196.471 66.1816 195.357 66.3516 194.197 66.3516C192.158 66.3516 190.652 65.8711 189.68 64.9102C188.707 63.9492 188.221 62.4902 188.221 60.5332V51.0938H185.795V46.9805H188.221V42.252H194.145ZM205.412 49.0195C206.678 47.4258 208.295 46.6289 210.264 46.6289C212.361 46.6289 213.943 47.25 215.01 48.4922C216.076 49.7344 216.621 51.5684 216.645 53.9941V66H210.703V54.1348C210.703 53.127 210.498 52.3887 210.088 51.9199C209.678 51.4395 208.98 51.1992 207.996 51.1992C206.777 51.1992 205.916 51.5859 205.412 52.3594V66H199.488V39H205.412V49.0195ZM219.193 56.3145C219.193 54.416 219.562 52.7285 220.301 51.252C221.039 49.7637 222.1 48.6211 223.482 47.8242C224.865 47.0273 226.488 46.6289 228.352 46.6289C231.199 46.6289 233.443 47.5137 235.084 49.2832C236.725 51.041 237.545 53.4375 237.545 56.4727V56.6836C237.545 59.6484 236.719 62.0039 235.066 63.75C233.426 65.4844 231.199 66.3516 228.387 66.3516C225.68 66.3516 223.506 65.543 221.865 63.9258C220.225 62.2969 219.34 60.0938 219.211 57.3164L219.193 56.3145ZM225.117 56.6836C225.117 58.4414 225.393 59.7305 225.943 60.5508C226.494 61.3711 227.309 61.7812 228.387 61.7812C230.496 61.7812 231.574 60.1582 231.621 56.9121V56.3145C231.621 52.9043 230.531 51.1992 228.352 51.1992C226.371 51.1992 225.299 52.6699 225.135 55.6113L225.117 56.6836ZM245.596 46.9805L245.789 49.2129C247.102 47.4902 248.912 46.6289 251.221 46.6289C253.201 46.6289 254.678 47.2207 255.65 48.4043C256.635 49.5879 257.145 51.3691 257.18 53.748V66H251.238V53.9941C251.238 53.0332 251.045 52.3301 250.658 51.8848C250.271 51.4277 249.568 51.1992 248.549 51.1992C247.389 51.1992 246.527 51.6562 245.965 52.5703V66H240.041V46.9805H245.596Z" fill="white"/>
<defs>
<linearGradient id="paint0_linear" x1="25.6458" y1="20.9826" x2="64.3197" y2="60.0177" gradientUnits="userSpaceOnUse">
<stop stop-color="#387EB8"/>
<stop offset="1" stop-color="#366994"/>
</linearGradient>
<linearGradient id="paint1_linear" x1="51.2855" y1="47.9358" x2="92.8539" y2="87.9984" gradientUnits="userSpaceOnUse">
<stop stop-color="#FFE052"/>
<stop offset="1" stop-color="#FFC331"/>
</linearGradient>
</defs>
</svg>
