<svg width="309" height="108" viewBox="0 0 309 108" fill="none" xmlns="http://www.w3.org/2000/svg">
<rect x="0.5" y="0.5" width="308" height="107" fill="#2D2C2C" stroke="black"/>
<path d="M165.791 56.9648H162.451V66H156.281V40.4062H166.354C169.389 40.4062 171.762 41.0801 173.473 42.4277C175.184 43.7754 176.039 45.6797 176.039 48.1406C176.039 49.9219 175.676 51.3984 174.949 52.5703C174.234 53.7422 173.109 54.6914 171.574 55.418L176.918 65.7363V66H170.309L165.791 56.9648ZM162.451 52.2012H166.354C167.525 52.2012 168.404 51.8965 168.99 51.2871C169.588 50.666 169.887 49.8047 169.887 48.7031C169.887 47.6016 169.588 46.7402 168.99 46.1191C168.393 45.4863 167.514 45.1699 166.354 45.1699H162.451V52.2012ZM188.695 66.3516C185.777 66.3516 183.416 65.4844 181.611 63.75C179.807 62.0039 178.904 59.7363 178.904 56.9473V56.4551C178.904 54.5098 179.262 52.793 179.977 51.3047C180.703 49.8164 181.758 48.668 183.141 47.8594C184.523 47.0391 186.164 46.6289 188.062 46.6289C190.734 46.6289 192.844 47.4609 194.391 49.125C195.938 50.7773 196.711 53.0859 196.711 56.0508V58.3535H184.934C185.145 59.4199 185.607 60.2578 186.322 60.8672C187.037 61.4766 187.963 61.7812 189.1 61.7812C190.975 61.7812 192.439 61.125 193.494 59.8125L196.201 63.0117C195.463 64.0312 194.414 64.8457 193.055 65.4551C191.707 66.0527 190.254 66.3516 188.695 66.3516ZM188.027 51.1992C186.293 51.1992 185.262 52.3477 184.934 54.6445H190.91V54.1875C190.934 53.2383 190.693 52.5059 190.189 51.9902C189.686 51.4629 188.965 51.1992 188.027 51.1992ZM209.824 66C209.613 65.6133 209.426 65.0449 209.262 64.2949C208.172 65.666 206.648 66.3516 204.691 66.3516C202.898 66.3516 201.375 65.8125 200.121 64.7344C198.867 63.6445 198.24 62.2793 198.24 60.6387C198.24 58.5762 199.002 57.0176 200.525 55.9629C202.049 54.9082 204.264 54.3809 207.17 54.3809H208.998V53.3789C208.998 51.6328 208.242 50.7598 206.73 50.7598C205.324 50.7598 204.621 51.4512 204.621 52.834H198.697C198.697 50.9941 199.477 49.5 201.035 48.3516C202.605 47.2031 204.604 46.6289 207.029 46.6289C209.455 46.6289 211.371 47.2207 212.777 48.4043C214.184 49.5879 214.904 51.2109 214.939 53.2734V61.6934C214.963 63.4395 215.232 64.7754 215.748 65.7012V66H209.824ZM206.115 62.1328C206.854 62.1328 207.463 61.9746 207.943 61.6582C208.436 61.3418 208.787 60.9844 208.998 60.5859V57.5449H207.275C205.213 57.5449 204.182 58.4707 204.182 60.3223C204.182 60.8613 204.363 61.3008 204.727 61.6406C205.09 61.9688 205.553 62.1328 206.115 62.1328ZM226.277 61.7812C227.109 61.7812 227.754 61.5586 228.211 61.1133C228.668 60.6562 228.891 60.0234 228.879 59.2148H234.434C234.434 61.3008 233.684 63.0117 232.184 64.3477C230.695 65.6836 228.773 66.3516 226.418 66.3516C223.652 66.3516 221.473 65.4844 219.879 63.75C218.285 62.0156 217.488 59.6133 217.488 56.543V56.2969C217.488 54.375 217.84 52.6816 218.543 51.2168C219.258 49.7402 220.283 48.6094 221.619 47.8242C222.955 47.0273 224.537 46.6289 226.365 46.6289C228.838 46.6289 230.801 47.3145 232.254 48.6855C233.707 50.0566 234.434 51.9141 234.434 54.2578H228.879C228.879 53.2734 228.639 52.5176 228.158 51.9902C227.678 51.4629 227.033 51.1992 226.225 51.1992C224.689 51.1992 223.793 52.1777 223.535 54.1348C223.453 54.7559 223.412 55.6113 223.412 56.7012C223.412 58.6113 223.641 59.9355 224.098 60.6738C224.555 61.4121 225.281 61.7812 226.277 61.7812ZM243.838 42.252V46.9805H246.967V51.0938H243.838V59.7949C243.838 60.5098 243.967 61.0078 244.225 61.2891C244.482 61.5703 244.992 61.7109 245.754 61.7109C246.34 61.7109 246.832 61.6758 247.23 61.6055V65.8418C246.164 66.1816 245.051 66.3516 243.891 66.3516C241.852 66.3516 240.346 65.8711 239.373 64.9102C238.4 63.9492 237.914 62.4902 237.914 60.5332V51.0938H235.488V46.9805H237.914V42.252H243.838Z" fill="white"/>
<path d="M105 54.0092C105 48.0581 97.5336 42.4184 86.0864 38.921C88.7281 27.2753 87.554 18.0101 82.3808 15.0437C81.1883 14.3479 79.7941 14.0183 78.2715 14.0183V18.1016C79.1154 18.1016 79.7941 18.2664 80.3628 18.5777C82.8577 20.006 83.9401 25.4443 83.0962 32.439C82.8944 34.1602 82.5642 35.973 82.1606 37.8224C78.565 36.9435 74.6392 36.266 70.5116 35.8265C68.0351 32.439 65.4668 29.3628 62.8802 26.6711C68.8606 21.1229 74.4741 18.0833 78.2899 18.0833V14C73.245 14 66.6409 17.5889 59.9633 23.8146C53.2858 17.6255 46.6816 14.0732 41.6368 14.0732V18.1566C45.4342 18.1566 51.066 21.1778 57.0465 26.6894C54.4782 29.3811 51.9099 32.439 49.47 35.8265C45.3241 36.266 41.3983 36.9435 37.8027 37.8407C37.3808 36.0096 37.0689 34.2335 36.8488 32.5306C35.9865 25.5358 37.0506 20.0975 39.5271 18.6509C40.0775 18.3214 40.7929 18.1749 41.6368 18.1749V14.0916C40.0958 14.0916 38.7016 14.4211 37.4908 15.117C32.3359 18.0833 31.1802 27.3303 33.8402 38.9393C22.4297 42.455 15 48.0764 15 54.0092C15 59.9602 22.4664 65.5999 33.9136 69.0973C31.2719 80.743 32.446 90.0082 37.6192 92.9746C38.8117 93.6704 40.2059 94 41.7468 94C46.7917 94 53.3958 90.4111 60.0734 84.1854C66.7509 90.3745 73.3551 93.9268 78.3999 93.9268C79.9409 93.9268 81.3351 93.5972 82.5459 92.9013C87.7008 89.935 88.8565 80.688 86.1965 69.079C97.5703 65.5816 105 59.9419 105 54.0092V54.0092ZM81.115 41.7958C80.4362 44.1579 79.5923 46.5933 78.6384 49.0286C77.8863 47.5637 77.0974 46.0989 76.2352 44.634C75.3914 43.1691 74.4925 41.7409 73.5936 40.3493C76.1985 40.7338 78.7118 41.2099 81.115 41.7958ZM72.713 61.2969C71.2821 63.7688 69.8145 66.1126 68.2919 68.2916C65.5585 68.5296 62.7884 68.6578 60 68.6578C57.2299 68.6578 54.4598 68.5296 51.7448 68.3099C50.2222 66.1309 48.7362 63.8054 47.3053 61.3518C45.9111 58.9531 44.6453 56.5177 43.4896 54.0641C44.627 51.6104 45.9111 49.1568 47.287 46.7581C48.7179 44.2861 50.1855 41.9423 51.7081 39.7633C54.4415 39.5253 57.2116 39.3971 60 39.3971C62.7701 39.3971 65.5402 39.5253 68.2552 39.745C69.7778 41.924 71.2638 44.2495 72.6947 46.7031C74.0889 49.1019 75.3547 51.5372 76.5104 53.9908C75.3547 56.4445 74.0889 58.8981 72.713 61.2969ZM78.6384 58.9165C79.629 61.3701 80.4729 63.8238 81.17 66.2042C78.7668 66.7901 76.2352 67.2845 73.6119 67.669C74.5108 66.2591 75.4097 64.8125 76.2536 63.3294C77.0974 61.8645 77.8863 60.3813 78.6384 58.9165ZM60.0367 78.4541C58.3306 76.6963 56.6245 74.737 54.9368 72.5946C56.5879 72.6679 58.2756 72.7228 59.9817 72.7228C61.7061 72.7228 63.4122 72.6862 65.0815 72.5946C63.4305 74.737 61.7244 76.6963 60.0367 78.4541ZM46.3881 67.669C43.7831 67.2845 41.2699 66.8084 38.8667 66.2225C39.5455 63.8604 40.3893 61.425 41.3433 58.9897C42.0954 60.4546 42.8842 61.9194 43.7464 63.3843C44.6086 64.8492 45.4892 66.2774 46.3881 67.669ZM59.945 29.5642C61.651 31.322 63.3571 33.2813 65.0448 35.4237C63.3938 35.3504 61.7061 35.2955 60 35.2955C58.2756 35.2955 56.5695 35.3321 54.9001 35.4237C56.5512 33.2813 58.2572 31.322 59.945 29.5642ZM46.3698 40.3493C45.4709 41.7592 44.572 43.2058 43.7281 44.6889C42.8842 46.1538 42.0954 47.6187 41.3433 49.0835C40.3526 46.6299 39.5088 44.1762 38.8117 41.7958C41.2148 41.2282 43.7464 40.7338 46.3698 40.3493V40.3493ZM29.7676 63.2744C23.2735 60.5095 19.0726 56.884 19.0726 54.0092C19.0726 51.1344 23.2735 47.4905 29.7676 44.7439C31.3453 44.0664 33.0697 43.4621 34.8492 42.8945C35.8948 46.4834 37.2707 50.2188 38.9768 54.0458C37.289 57.8544 35.9315 61.5715 34.9042 65.1421C33.0881 64.5745 31.3636 63.9519 29.7676 63.2744ZM39.6372 89.4406C37.1423 88.0124 36.0599 82.574 36.9038 75.5793C37.1056 73.8581 37.4358 72.0453 37.8394 70.1959C41.435 71.0748 45.3608 71.7523 49.4884 72.1918C51.9649 75.5793 54.5332 78.6555 57.1199 81.3472C51.1394 86.8954 45.5259 89.935 41.7102 89.935C40.8846 89.9167 40.1875 89.7519 39.6372 89.4406V89.4406ZM83.1512 75.4877C84.0135 82.4825 82.9494 87.9208 80.4729 89.3674C79.9225 89.697 79.2071 89.8434 78.3632 89.8434C74.5658 89.8434 68.934 86.8222 62.9535 81.3106C65.5218 78.6189 68.0901 75.561 70.53 72.1735C74.6759 71.734 78.6017 71.0565 82.1973 70.1593C82.6192 72.0087 82.9495 73.7848 83.1512 75.4877V75.4877ZM90.214 63.2744C88.6364 63.9519 86.9119 64.5562 85.1325 65.1238C84.0868 61.5349 82.711 57.7995 81.0049 53.9725C82.6926 50.1639 84.0501 46.4468 85.0775 42.8762C86.8936 43.4438 88.618 44.0664 90.2324 44.7439C96.7265 47.5088 100.927 51.1344 100.927 54.0092C100.909 56.884 96.7081 60.5278 90.214 63.2744V63.2744Z" fill="#61DAFB"/>
<path d="M59.9816 62.3773C64.6118 62.3773 68.3653 58.6308 68.3653 54.0092C68.3653 49.3877 64.6118 45.6412 59.9816 45.6412C55.3515 45.6412 51.598 49.3877 51.598 54.0092C51.598 58.6308 55.3515 62.3773 59.9816 62.3773Z" fill="#61DAFB"/>
</svg>
