<svg width="309" height="108" viewBox="0 0 309 108" fill="none" xmlns="http://www.w3.org/2000/svg">
<rect x="0.5" y="0.5" width="308" height="107" fill="#2D2C2C" stroke="black"/>
<path d="M161.344 58.9648H158.004V68H151.834V42.4062H161.906C164.941 42.4062 167.314 43.0801 169.025 44.4277C170.736 45.7754 171.592 47.6797 171.592 50.1406C171.592 51.9219 171.229 53.3984 170.502 54.5703C169.787 55.7422 168.662 56.6914 167.127 57.418L172.471 67.7363V68H165.861L161.344 58.9648ZM158.004 54.2012H161.906C163.078 54.2012 163.957 53.8965 164.543 53.2871C165.141 52.666 165.439 51.8047 165.439 50.7031C165.439 49.6016 165.141 48.7402 164.543 48.1191C163.945 47.4863 163.066 47.1699 161.906 47.1699H158.004V54.2012ZM184.248 68.3516C181.33 68.3516 178.969 67.4844 177.164 65.75C175.359 64.0039 174.457 61.7363 174.457 58.9473V58.4551C174.457 56.5098 174.814 54.793 175.529 53.3047C176.256 51.8164 177.311 50.668 178.693 49.8594C180.076 49.0391 181.717 48.6289 183.615 48.6289C186.287 48.6289 188.396 49.4609 189.943 51.125C191.49 52.7773 192.264 55.0859 192.264 58.0508V60.3535H180.486C180.697 61.4199 181.16 62.2578 181.875 62.8672C182.59 63.4766 183.516 63.7812 184.652 63.7812C186.527 63.7812 187.992 63.125 189.047 61.8125L191.754 65.0117C191.016 66.0312 189.967 66.8457 188.607 67.4551C187.26 68.0527 185.807 68.3516 184.248 68.3516ZM183.58 53.1992C181.846 53.1992 180.814 54.3477 180.486 56.6445H186.463V56.1875C186.486 55.2383 186.246 54.5059 185.742 53.9902C185.238 53.4629 184.518 53.1992 183.58 53.1992ZM193.916 58.3496C193.916 55.3379 194.566 52.9648 195.867 51.2305C197.168 49.4961 198.984 48.6289 201.316 48.6289C203.016 48.6289 204.445 49.2969 205.605 50.6328V41H211.547V68H206.221L205.922 65.9609C204.703 67.5547 203.156 68.3516 201.281 68.3516C199.02 68.3516 197.227 67.4844 195.902 65.75C194.578 64.0156 193.916 61.5488 193.916 58.3496ZM199.84 58.7188C199.84 62.0938 200.824 63.7812 202.793 63.7812C204.105 63.7812 205.043 63.2305 205.605 62.1289V54.8867C205.066 53.7617 204.141 53.1992 202.828 53.1992C201 53.1992 200.01 54.6758 199.857 57.6289L199.84 58.7188ZM226.242 65.9434C224.988 67.5488 223.295 68.3516 221.162 68.3516C219.076 68.3516 217.494 67.748 216.416 66.541C215.35 65.3223 214.816 63.5762 214.816 61.3027V48.9805H220.74V61.3379C220.74 62.9668 221.531 63.7812 223.113 63.7812C224.473 63.7812 225.439 63.2949 226.014 62.3223V48.9805H231.973V68H226.418L226.242 65.9434ZM242.941 54.2188L245.701 48.9805H251.854L246.844 58.2441L252.1 68H245.912L242.924 62.375L239.988 68H233.766L239.039 58.2441L234.047 48.9805H240.27L242.941 54.2188Z" fill="white"/>
<g clip-path="url(#clip0)">
<path d="M86.4317 69.6458C89.3838 69.3252 91.6235 66.6552 91.5217 63.4509C91.4201 60.2469 88.8748 57.6834 85.8207 57.6834H85.6173C82.461 57.7903 80.0179 60.5672 80.1198 63.878C80.2216 65.4802 80.8323 66.8686 81.7485 67.8299C78.2873 74.986 72.9935 80.2194 65.0529 84.5984C59.6572 87.589 54.0582 88.6571 48.4591 87.9096C43.8778 87.2687 40.3147 85.1328 38.0747 81.6078C34.8172 76.3744 34.5119 70.7136 37.2606 65.053C39.195 60.9943 42.2488 58.0038 44.1831 56.5085C43.776 55.12 43.165 52.7704 42.8597 51.0617C28.0981 62.2762 29.6253 77.4426 34.1047 84.5984C37.4641 89.9389 44.285 93.2498 51.8185 93.2498C53.8544 93.2498 55.8904 93.0361 57.9266 92.5024C70.9576 89.8321 80.8326 81.7147 86.4317 69.6458V69.6458ZM104.349 56.4019C96.612 46.8961 85.2101 41.6627 72.1791 41.6627H70.5504C69.6341 39.7403 67.6997 38.4584 65.5619 38.4584H65.3582C62.2025 38.5653 59.7594 41.3421 59.861 44.6533C59.9629 47.8573 62.5079 50.4207 65.5619 50.4207H65.7654C68.0051 50.3139 69.9394 48.8186 70.7538 46.7892H72.5863C80.3235 46.7892 87.6532 49.1389 94.2707 53.7316C99.3607 57.2563 103.026 61.849 105.062 67.4027C106.792 71.8886 106.69 76.2676 104.858 80.006C102.008 85.6665 97.2229 88.764 90.911 88.764C86.8388 88.764 82.9704 87.4821 80.9341 86.5209C79.8145 87.589 77.7782 89.2977 76.3529 90.3661C80.7307 92.502 85.2101 93.677 89.4857 93.677C99.2589 93.677 106.487 88.0161 109.236 82.3556C112.188 76.1607 111.984 65.4802 104.349 56.4019V56.4019ZM52.6328 71.4611C52.7347 74.6654 55.2797 77.2285 58.3338 77.2285H58.5375C61.6935 77.1219 64.1366 74.3448 64.0347 71.0339C63.9332 67.8295 61.3879 65.2665 58.3338 65.2665H58.1304C57.9266 65.2665 57.621 65.2665 57.4179 65.373C53.2438 58.1103 51.5132 50.207 52.1241 41.6624C52.531 35.2541 54.5672 29.7001 58.1304 25.1073C61.0825 21.1555 66.7835 19.233 70.6523 19.1265C81.4432 18.9127 86.0241 33.011 86.3298 38.6718C87.6532 38.9921 89.8929 39.7399 91.4201 40.274C90.1982 22.9718 80.0179 14 70.2451 14C61.0825 14 52.6328 20.9424 49.2732 31.1957C44.5903 44.8668 47.6444 58.0038 53.3453 68.3639C52.8366 69.1114 52.531 70.2864 52.6328 71.4614V71.4611Z" fill="#764ABC"/>
</g>
<defs>
<clipPath id="clip0">
<rect width="80" height="80" fill="white" transform="translate(31 14)"/>
</clipPath>
</defs>
</svg>
