<svg width="309" height="108" viewBox="0 0 309 108" fill="none" xmlns="http://www.w3.org/2000/svg">
<rect x="0.5" y="0.5" width="308" height="107" fill="#2D2C2C" stroke="black"/>
<path d="M166.408 61.1973C166.408 60.2949 166.086 59.5918 165.441 59.0879C164.809 58.584 163.689 58.0625 162.084 57.5234C160.479 56.9844 159.166 56.4629 158.146 55.959C154.83 54.3301 153.172 52.0918 153.172 49.2441C153.172 47.8262 153.582 46.5781 154.402 45.5C155.234 44.4102 156.406 43.5664 157.918 42.9688C159.43 42.3594 161.129 42.0547 163.016 42.0547C164.855 42.0547 166.502 42.3828 167.955 43.0391C169.42 43.6953 170.557 44.6328 171.365 45.8516C172.174 47.0586 172.578 48.4414 172.578 50H166.426C166.426 48.957 166.104 48.1484 165.459 47.5742C164.826 47 163.965 46.7129 162.875 46.7129C161.773 46.7129 160.9 46.959 160.256 47.4512C159.623 47.9316 159.307 48.5469 159.307 49.2969C159.307 49.9531 159.658 50.5508 160.361 51.0898C161.064 51.6172 162.301 52.168 164.07 52.7422C165.84 53.3047 167.293 53.9141 168.43 54.5703C171.195 56.1641 172.578 58.3613 172.578 61.1621C172.578 63.4004 171.734 65.1582 170.047 66.4355C168.359 67.7129 166.045 68.3516 163.104 68.3516C161.029 68.3516 159.148 67.9824 157.461 67.2441C155.785 66.4941 154.52 65.4746 153.664 64.1855C152.82 62.8848 152.398 61.3906 152.398 59.7031H158.586C158.586 61.0742 158.938 62.0879 159.641 62.7441C160.355 63.3887 161.51 63.7109 163.104 63.7109C164.123 63.7109 164.926 63.4941 165.512 63.0605C166.109 62.6152 166.408 61.9941 166.408 61.1973ZM174.723 58.2969C174.723 55.2734 175.379 52.9062 176.691 51.1953C178.004 49.4844 179.814 48.6289 182.123 48.6289C184.068 48.6289 185.627 49.4258 186.799 51.0195L187.221 48.9805H192.354V75.3125H186.412V66.418C185.275 67.707 183.834 68.3516 182.088 68.3516C179.838 68.3516 178.045 67.4844 176.709 65.75C175.385 64.0039 174.723 61.5195 174.723 58.2969ZM180.646 58.666C180.646 62.0762 181.631 63.7812 183.6 63.7812C184.959 63.7812 185.896 63.2656 186.412 62.2344V54.7109C185.92 53.7031 184.994 53.1992 183.635 53.1992C181.795 53.1992 180.805 54.6699 180.664 57.6113L180.646 58.666ZM201.969 68H196.027V41H201.969V68ZM211.883 68H205.941V48.9805H211.883V68ZM205.59 44.0762C205.59 43.2324 205.895 42.541 206.504 42.002C207.113 41.4629 207.904 41.1934 208.877 41.1934C209.85 41.1934 210.641 41.4629 211.25 42.002C211.859 42.541 212.164 43.2324 212.164 44.0762C212.164 44.9199 211.859 45.6113 211.25 46.1504C210.641 46.6895 209.85 46.959 208.877 46.959C207.904 46.959 207.113 46.6895 206.504 46.1504C205.895 45.6113 205.59 44.9199 205.59 44.0762ZM222.447 44.252V48.9805H225.576V53.0938H222.447V61.7949C222.447 62.5098 222.576 63.0078 222.834 63.2891C223.092 63.5703 223.602 63.7109 224.363 63.7109C224.949 63.7109 225.441 63.6758 225.84 63.6055V67.8418C224.773 68.1816 223.66 68.3516 222.5 68.3516C220.461 68.3516 218.955 67.8711 217.982 66.9102C217.01 65.9492 216.523 64.4902 216.523 62.5332V53.0938H214.098V48.9805H216.523V44.252H222.447ZM237.125 68.3516C234.207 68.3516 231.846 67.4844 230.041 65.75C228.236 64.0039 227.334 61.7363 227.334 58.9473V58.4551C227.334 56.5098 227.691 54.793 228.406 53.3047C229.133 51.8164 230.188 50.668 231.57 49.8594C232.953 49.0391 234.594 48.6289 236.492 48.6289C239.164 48.6289 241.273 49.4609 242.82 51.125C244.367 52.7773 245.141 55.0859 245.141 58.0508V60.3535H233.363C233.574 61.4199 234.037 62.2578 234.752 62.8672C235.467 63.4766 236.393 63.7812 237.529 63.7812C239.404 63.7812 240.869 63.125 241.924 61.8125L244.631 65.0117C243.893 66.0312 242.844 66.8457 241.484 67.4551C240.137 68.0527 238.684 68.3516 237.125 68.3516ZM236.457 53.1992C234.723 53.1992 233.691 54.3477 233.363 56.6445H239.34V56.1875C239.363 55.2383 239.123 54.5059 238.619 53.9902C238.115 53.4629 237.395 53.1992 236.457 53.1992ZM252.857 52.7246H255.652C257.867 52.7246 258.975 51.6406 258.975 49.4727C258.975 48.6289 258.711 47.9434 258.184 47.416C257.656 46.877 256.912 46.6074 255.951 46.6074C255.166 46.6074 254.48 46.8359 253.895 47.293C253.32 47.75 253.033 48.3184 253.033 48.998H247.109C247.109 47.6504 247.484 46.4492 248.234 45.3945C248.984 44.3398 250.021 43.5195 251.346 42.9336C252.682 42.3359 254.146 42.0371 255.74 42.0371C258.588 42.0371 260.826 42.6875 262.455 43.9883C264.084 45.2891 264.898 47.0762 264.898 49.3496C264.898 50.4512 264.559 51.4941 263.879 52.4785C263.211 53.4512 262.232 54.2422 260.943 54.8516C262.303 55.3438 263.369 56.0938 264.143 57.1016C264.916 58.0977 265.303 59.334 265.303 60.8105C265.303 63.0957 264.424 64.9238 262.666 66.2949C260.908 67.666 258.6 68.3516 255.74 68.3516C254.064 68.3516 252.506 68.0352 251.064 67.4023C249.635 66.7578 248.551 65.873 247.812 64.748C247.074 63.6113 246.705 62.3223 246.705 60.8809H252.664C252.664 61.666 252.98 62.3457 253.613 62.9199C254.246 63.4941 255.025 63.7812 255.951 63.7812C256.994 63.7812 257.826 63.4941 258.447 62.9199C259.068 62.334 259.379 61.5898 259.379 60.6875C259.379 59.3984 259.057 58.4844 258.412 57.9453C257.768 57.4062 256.877 57.1367 255.74 57.1367H252.857V52.7246Z" fill="white"/>
<g clip-path="url(#clip0)">
<path d="M62.3146 53.4855C60.7962 53.4855 59.5614 54.0171 58.6149 55.0789C57.6687 56.1421 57.1885 57.5355 57.1885 59.2431C57.1885 60.1278 57.3076 60.9347 57.5425 61.6739C57.7775 62.4147 58.1432 63.101 58.6347 63.7213C59.1263 64.3418 60.1101 65.1847 61.5764 66.2568C63.3759 67.5552 64.5532 68.6092 65.1184 69.4321C65.6838 70.2542 65.9645 71.1157 65.9645 72.0142C65.9645 73.2168 65.6297 74.1771 64.9412 74.8986C64.2518 75.6207 63.3296 75.9802 62.1866 75.9802C60.9807 75.9802 59.9303 75.4778 59.0283 74.4802C58.1263 73.4807 57.6709 72.1589 57.6607 70.5021H57.0997V76.5155H57.6607C57.8321 75.946 58.0689 75.6549 58.379 75.6549C58.5281 75.6549 58.8776 75.7763 59.4219 76.0036C60.7461 76.5607 61.8335 76.8294 62.6883 76.8294C64.1612 76.8294 65.4187 76.2197 66.4663 74.9802C67.5125 73.7413 68.0405 72.2468 68.0405 70.5021C68.0405 69.1494 67.6919 67.9455 67.0076 66.8965C66.3231 65.846 64.9922 64.6242 63.0031 63.221C61.2915 62.0052 60.1805 61.0152 59.6678 60.2434C59.1543 59.4726 58.8905 58.6199 58.8905 57.6844C58.8905 56.6726 59.2051 55.8597 59.8252 55.2534C60.4454 54.6468 61.2581 54.3463 62.2752 54.3463C63.4193 54.3463 64.3734 54.7478 65.1282 55.556C65.8824 56.3655 66.3185 57.4873 66.4467 58.9289H67.0076V53.7184H66.4861C66.4222 53.9839 66.3632 54.1536 66.3089 54.2299C66.2561 54.3057 66.1546 54.3463 66.0039 54.3463C65.8225 54.3463 65.4991 54.256 65.0396 54.0786C64.0557 53.6871 63.1486 53.4855 62.3143 53.4855H62.3146ZM80.6439 53.4855C78.7939 53.4855 77.1141 54.0013 75.5966 55.0326C74.0767 56.0621 72.8736 57.4918 71.9859 59.3128C71.0983 61.1339 70.6576 63.0676 70.6576 65.1286C70.6576 67.8971 71.4242 70.3639 72.9697 72.526C74.5159 74.6865 76.3688 76.0328 78.5187 76.5505C79.0102 76.8531 79.7134 77.6347 80.6341 78.8999C81.6714 80.3276 82.5491 81.3573 83.2708 81.9705C83.9763 82.5717 84.7607 83.0316 85.5925 83.3315C86.4161 83.6278 87.3063 83.7736 88.2688 83.7736C89.4346 83.7736 90.4781 83.5339 91.3975 83.0407L91.1909 82.4357C90.6573 82.6634 90.0881 82.7731 89.4889 82.7731C88.6753 82.7731 87.8532 82.456 87.0292 81.8194C86.2062 81.181 85.1771 79.9634 83.9497 78.1671C83.3727 77.3065 82.9745 76.7634 82.7492 76.5505C85.1017 76.0073 87.0358 74.6597 88.5444 72.5026C90.0523 70.3468 90.8071 67.8863 90.8071 65.1284C90.8071 61.8542 89.8217 59.1021 87.8655 56.8586C85.9075 54.6147 83.4998 53.4855 80.6439 53.4855V53.4855ZM92.0862 53.4855L92.1158 54.1949C93.3474 54.1949 94.0375 54.6239 94.1918 55.486C94.2492 55.7947 94.2755 56.3642 94.2801 57.1842L94.2703 72.8749C94.2601 74.0468 94.119 74.7949 93.8474 75.1197C93.5754 75.4421 93.1157 75.6442 92.4504 75.7244L92.4208 76.4342H104.699L105.014 72.8749H104.453C104.293 73.8444 103.926 74.5392 103.342 74.9336C102.756 75.331 101.719 75.5268 100.223 75.5268H99.0618C97.7151 75.5268 96.936 74.9513 96.7301 73.7936C96.6878 73.5647 96.6731 73.3192 96.6711 73.0494L96.7201 57.1842C96.7201 56.0142 96.8449 55.2302 97.104 54.8463C97.3656 54.4639 97.8375 54.2499 98.5207 54.1949L98.4913 53.4855H92.0862V53.4855ZM80.8404 54.346C82.9273 54.346 84.6309 55.3178 85.9469 57.2773C87.2624 59.2376 87.9147 61.9242 87.9147 65.3263C87.9147 68.5499 87.2531 71.131 85.9273 73.0726C84.6013 75.0136 82.8367 75.9805 80.6439 75.9805C78.5372 75.9805 76.8287 74.9834 75.5178 72.9797C74.2081 70.9757 73.5601 68.3742 73.5601 65.1749C73.5601 61.8876 74.2161 59.256 75.5377 57.2889C76.8583 55.3242 78.6269 54.3463 80.8407 54.3463L80.8404 54.346ZM109.078 57.7194C108.778 57.7194 108.55 57.8389 108.379 58.0799C108.204 58.3199 108.151 58.6107 108.212 58.9639C108.271 59.3065 108.434 59.6065 108.694 59.8594C108.952 60.1121 109.231 60.2434 109.53 60.2434C109.82 60.2434 110.041 60.1121 110.199 59.8594C110.358 59.6068 110.406 59.3065 110.347 58.9639C110.286 58.6107 110.128 58.3199 109.884 58.0797C109.638 57.8389 109.367 57.7192 109.078 57.7192V57.7194ZM117.175 60.1271C116.666 62.4413 115.563 63.6936 113.869 63.8955L113.889 64.5586H115.866L115.827 72.3981C115.83 73.7384 115.865 74.6307 115.945 75.0849C116.14 76.1721 116.74 76.7249 117.746 76.7249C119.2 76.7249 120.725 75.6776 122.32 73.5844L121.838 73.096C120.687 74.4744 119.668 75.1663 118.779 75.1663C118.232 75.1663 117.893 74.7947 117.765 74.0613C117.73 73.8831 117.716 73.6749 117.716 73.4331L117.736 64.5586H120.756L120.727 63.4999H117.746V60.1271H117.175V60.1271ZM128.853 63.0813C127.164 63.0813 125.79 64.051 124.721 65.9776C123.658 67.9073 123.329 70.0455 123.747 72.3981C123.993 73.776 124.483 74.8439 125.233 75.5965C125.981 76.3492 126.931 76.7249 128.066 76.7249C129.123 76.7249 130.595 76.4084 131.215 75.771C131.836 75.1342 132.408 74.1021 132.936 72.6889L132.513 72.1652C131.67 73.9989 129.969 74.9221 128.686 74.9221C126.922 74.9221 125.842 73.7778 125.439 71.5023C125.385 71.195 125.346 70.8843 125.321 70.5718C127.42 70.1792 129.01 69.4836 130.083 68.4784C131.156 67.4723 132.232 66.406 132.031 65.2797C131.912 64.6102 131.618 64.0839 131.165 63.6863C130.707 63.2886 129.518 63.0813 128.853 63.0813V63.0813ZM110.386 63.1628L106.746 64.1515V64.9192L108.005 64.7331C108.615 64.7331 108.974 65.0594 109.087 65.7099C109.126 65.9276 109.15 66.2336 109.156 66.6173L109.117 73.6542C109.107 74.6278 109.015 75.1939 108.832 75.3639C108.646 75.5342 108.157 75.6199 107.366 75.6199L107.346 76.2828H113.121L113.111 75.6197C112.309 75.6197 111.789 75.5449 111.557 75.3986C111.329 75.2539 111.172 74.9894 111.104 74.5847C111.052 74.2931 111.029 73.7905 111.026 73.096L111.045 63.1628H110.386H110.386ZM127.929 64.4655C128.28 64.4655 128.62 64.626 128.961 64.9423C129.299 65.2576 129.504 65.6081 129.572 65.9892C129.901 67.8602 128.498 69.1534 125.341 69.8739C125.251 68.51 125.451 67.2713 125.961 66.1521C126.467 65.0336 127.126 64.4655 127.929 64.4655V64.4655Z" fill="white"/>
<path d="M54.1603 26.6189H22.832C20.7322 26.6189 19.0144 28.6499 19.0144 31.132V71.9762C19.0144 74.4583 20.7322 76.4894 22.832 76.4894H43.4655C43.2313 64.352 46.7373 40.7973 54.1603 26.6189V26.6189Z" fill="white"/>
<path d="M53.0221 27.9354H22.832C21.341 27.9354 20.1278 29.3693 20.1278 31.1322V68.9962C26.9652 65.8941 37.2273 63.2173 44.3229 63.3388C45.7489 54.5246 49.9395 37.2509 53.0221 27.9354V27.9354Z" fill="white"/>
<path d="M61.4675 25.2798C59.3219 23.018 56.7239 23.9264 54.1603 26.6167C53.7796 27.0161 53.3999 27.4595 53.0221 27.9332C48.636 33.434 44.5647 43.6226 43.2998 51.4041C43.7927 52.5854 44.1776 54.0928 44.4309 55.2443C44.4959 55.5396 44.5544 55.817 44.6014 56.0527C44.7127 56.6112 44.7726 56.973 44.7726 56.973C44.7726 56.973 44.7332 56.7972 44.5718 56.2441C44.5411 56.138 44.5068 56.0222 44.4663 55.8859C44.4451 55.8193 44.4226 55.7533 44.3986 55.688C44.1126 54.9017 43.3212 53.2422 42.9728 52.5196C42.6967 53.477 42.4362 54.4406 42.1913 55.4099C43.1968 57.5848 43.8096 61.3122 43.8096 61.3122C43.8096 61.3122 43.7564 61.0706 43.5037 60.2274C43.2794 59.4819 42.1621 57.1675 41.8975 56.6264C41.4447 58.6025 41.2648 59.9364 41.4271 60.2611C41.7421 60.8903 42.0419 61.9764 42.3055 63.1772C42.9005 65.8824 43.3139 69.1761 43.3139 69.1761C43.3139 69.1761 43.3272 69.3945 43.3499 69.7303C43.2671 72.0021 43.3168 74.3576 43.4657 76.4865C43.6627 79.3049 44.0338 81.726 44.5068 83.0217L44.828 82.8149C44.1335 80.262 43.8512 76.9165 43.9748 73.0581C44.1617 67.1608 45.3097 60.0485 47.4308 52.6357C51.0147 41.4455 55.9867 32.4671 60.5373 28.1793C56.3896 32.6077 50.7761 46.9415 49.0957 52.2494C47.214 58.1935 45.8807 63.7714 45.0771 69.1155C46.4637 64.1053 50.9466 61.9519 50.9466 61.9519C50.9466 61.9519 53.1452 58.7461 55.7147 54.1662C54.1756 54.5812 51.6482 55.2917 50.8017 55.7122C49.5529 56.3314 49.2165 56.5427 49.2165 56.5427C49.2165 56.5427 53.2612 53.6307 56.7315 52.3122C61.5041 43.426 66.7038 30.8019 61.4675 25.2798" fill="white"/>
</g>
<defs>
<clipPath id="clip0">
<rect width="114" height="60" fill="white" transform="translate(19 24)"/>
</clipPath>
</defs>
</svg>
