<svg width="309" height="108" viewBox="0 0 309 108" fill="none" xmlns="http://www.w3.org/2000/svg">
<rect x="0.5" y="0.5" width="308" height="107" fill="#2D2C2C" stroke="black"/>
<path d="M155.35 45.1699H147.668V66H141.498V45.1699H133.957V40.4062H155.35V45.1699ZM165.457 66C165.246 65.6133 165.059 65.0449 164.895 64.2949C163.805 65.666 162.281 66.3516 160.324 66.3516C158.531 66.3516 157.008 65.8125 155.754 64.7344C154.5 63.6445 153.873 62.2793 153.873 60.6387C153.873 58.5762 154.635 57.0176 156.158 55.9629C157.682 54.9082 159.896 54.3809 162.803 54.3809H164.631V53.3789C164.631 51.6328 163.875 50.7598 162.363 50.7598C160.957 50.7598 160.254 51.4512 160.254 52.834H154.33C154.33 50.9941 155.109 49.5 156.668 48.3516C158.238 47.2031 160.236 46.6289 162.662 46.6289C165.088 46.6289 167.004 47.2207 168.41 48.4043C169.816 49.5879 170.537 51.2109 170.572 53.2734V61.6934C170.596 63.4395 170.865 64.7754 171.381 65.7012V66H165.457ZM161.748 62.1328C162.486 62.1328 163.096 61.9746 163.576 61.6582C164.068 61.3418 164.42 60.9844 164.631 60.5859V57.5449H162.908C160.846 57.5449 159.814 58.4707 159.814 60.3223C159.814 60.8613 159.996 61.3008 160.359 61.6406C160.723 61.9688 161.186 62.1328 161.748 62.1328ZM180.117 66H174.176V46.9805H180.117V66ZM173.824 42.0762C173.824 41.2324 174.129 40.541 174.738 40.002C175.348 39.4629 176.139 39.1934 177.111 39.1934C178.084 39.1934 178.875 39.4629 179.484 40.002C180.094 40.541 180.398 41.2324 180.398 42.0762C180.398 42.9199 180.094 43.6113 179.484 44.1504C178.875 44.6895 178.084 44.959 177.111 44.959C176.139 44.959 175.348 44.6895 174.738 44.1504C174.129 43.6113 173.824 42.9199 173.824 42.0762ZM190.031 66H184.09V39H190.031V66ZM210.123 58.1953L212.039 46.9805H217.717L213.234 66H208.225L205.078 54.7148L201.914 66H196.904L192.422 46.9805H198.1L199.98 58.459L203.004 46.9805H207.135L210.123 58.1953ZM226.102 66H220.16V46.9805H226.102V66ZM219.809 42.0762C219.809 41.2324 220.113 40.541 220.723 40.002C221.332 39.4629 222.123 39.1934 223.096 39.1934C224.068 39.1934 224.859 39.4629 225.469 40.002C226.078 40.541 226.383 41.2324 226.383 42.0762C226.383 42.9199 226.078 43.6113 225.469 44.1504C224.859 44.6895 224.068 44.959 223.096 44.959C222.123 44.959 221.332 44.6895 220.723 44.1504C220.113 43.6113 219.809 42.9199 219.809 42.0762ZM235.207 46.9805L235.4 49.2129C236.713 47.4902 238.523 46.6289 240.832 46.6289C242.812 46.6289 244.289 47.2207 245.262 48.4043C246.246 49.5879 246.756 51.3691 246.791 53.748V66H240.85V53.9941C240.85 53.0332 240.656 52.3301 240.27 51.8848C239.883 51.4277 239.18 51.1992 238.16 51.1992C237 51.1992 236.139 51.6562 235.576 52.5703V66H229.652V46.9805H235.207ZM249.34 56.3496C249.34 53.3379 249.99 50.9648 251.291 49.2305C252.592 47.4961 254.408 46.6289 256.74 46.6289C258.439 46.6289 259.869 47.2969 261.029 48.6328V39H266.971V66H261.645L261.346 63.9609C260.127 65.5547 258.58 66.3516 256.705 66.3516C254.443 66.3516 252.65 65.4844 251.326 63.75C250.002 62.0156 249.34 59.5488 249.34 56.3496ZM255.264 56.7188C255.264 60.0938 256.248 61.7812 258.217 61.7812C259.529 61.7812 260.467 61.2305 261.029 60.1289V52.8867C260.49 51.7617 259.564 51.1992 258.252 51.1992C256.424 51.1992 255.434 52.6758 255.281 55.6289L255.264 56.7188Z" fill="white"/>
<path d="M69 19C57.0001 19 49.4999 26.7779 46.5 42.3333C51 34.5554 56.2499 31.6387 62.25 33.5833C65.6732 34.6926 68.12 37.9123 70.8285 41.4757C75.2406 47.2812 80.3467 54 91.5 54C103.5 54 111 46.2221 114 30.6667C109.5 38.4446 104.25 41.3613 98.25 39.4167C94.8268 38.3074 92.38 35.0877 89.6715 31.5243C85.2594 25.7188 80.1533 19 69 19ZM46.5 54C34.5001 54 26.9999 61.7779 24 77.3333C28.5 69.5554 33.7499 66.6387 39.75 68.5833C43.1732 69.6926 45.62 72.9123 48.3285 76.4756C52.7406 82.2812 57.8467 89 69 89C80.9999 89 88.5001 81.2221 91.5 65.6667C87 73.4446 81.7501 76.3613 75.75 74.4167C72.3268 73.3074 69.88 70.0877 67.1715 66.5243C62.7594 60.7188 57.6533 54 46.5 54Z" fill="url(#paint0_linear)"/>
<defs>
<linearGradient id="paint0_linear" x1="21.4998" y1="41.4" x2="107.964" y2="79.8588" gradientUnits="userSpaceOnUse">
<stop stop-color="#2298BD"/>
<stop offset="1" stop-color="#0ED7B5"/>
</linearGradient>
</defs>
</svg>
