<svg width="309" height="108" viewBox="0 0 309 108" fill="none" xmlns="http://www.w3.org/2000/svg">
<rect x="0.5" y="0.5" width="308" height="107" fill="#2D2C2C" stroke="black"/>
<path d="M181.242 61.0391L186.34 42.4062H193.23L184.617 68H177.867L169.324 42.4062H176.162L181.242 61.0391ZM205.676 65.9434C204.422 67.5488 202.729 68.3516 200.596 68.3516C198.51 68.3516 196.928 67.748 195.85 66.541C194.783 65.3223 194.25 63.5762 194.25 61.3027V48.9805H200.174V61.3379C200.174 62.9668 200.965 63.7812 202.547 63.7812C203.906 63.7812 204.873 63.2949 205.447 62.3223V48.9805H211.406V68H205.852L205.676 65.9434ZM223.869 68.3516C220.951 68.3516 218.59 67.4844 216.785 65.75C214.98 64.0039 214.078 61.7363 214.078 58.9473V58.4551C214.078 56.5098 214.436 54.793 215.15 53.3047C215.877 51.8164 216.932 50.668 218.314 49.8594C219.697 49.0391 221.338 48.6289 223.236 48.6289C225.908 48.6289 228.018 49.4609 229.564 51.125C231.111 52.7773 231.885 55.0859 231.885 58.0508V60.3535H220.107C220.318 61.4199 220.781 62.2578 221.496 62.8672C222.211 63.4766 223.137 63.7812 224.273 63.7812C226.148 63.7812 227.613 63.125 228.668 61.8125L231.375 65.0117C230.637 66.0312 229.588 66.8457 228.229 67.4551C226.881 68.0527 225.428 68.3516 223.869 68.3516ZM223.201 53.1992C221.467 53.1992 220.436 54.3477 220.107 56.6445H226.084V56.1875C226.107 55.2383 225.867 54.5059 225.363 53.9902C224.859 53.4629 224.139 53.1992 223.201 53.1992Z" fill="white"/>
<path d="M78.2384 14L69 32.4749L59.7616 14H29L69 94L109 14H78.2384Z" fill="#4DBA87"/>
<path d="M78.2384 14L69 32.4749L59.7616 14H45L69 61.9978L93 14H78.2384Z" fill="#435466"/>
</svg>
